<svg xmlns="http://www.w3.org/2000/svg" width="243" height="149" viewBox="0 0 243 149" role="img">
<title></title>
<line x1="241.5" y1="147.5" x2="1.5" y2="147.5" fill="none" stroke="#0a0d0e" stroke-linecap="round" stroke-linejoin="round" stroke-width="3"/><polyline points="121.5 71.5 121.5 147.5 221.5 147.5 221.5 71.5" fill="none" stroke="#0a0d0e" stroke-linecap="round" stroke-linejoin="round" stroke-width="3"/><polygon points="67.5 1.5 175.5 1.5 225.5 61.5 117.5 61.5 67.5 1.5" fill="#E10EF3" stroke="#E10EF3" stroke-linecap="round" stroke-linejoin="round" stroke-width="3"/><polyline points="17.5 61.5 67.5 1.5 117.5 61.5" fill="none" stroke="#E10EF3" stroke-linecap="round" stroke-linejoin="round" stroke-width="3"/><polyline points="21.5 147.5 21.5 139.5 57.5 139.5 57.5 93.5 33.5 93.5 33.5 139.5" fill="none" stroke="#0a0d0e" stroke-linecap="round" stroke-linejoin="round" stroke-width="3"/><rect x="65.5" y="93.5" width="44" height="36" stroke-width="3" stroke="#0a0d0e" stroke-linecap="round" stroke-linejoin="round" fill="none"/><rect x="61.5" y="43.5" width="20" height="28" stroke-width="3" stroke="#0a0d0e" stroke-linecap="round" stroke-linejoin="round" fill="none"/><polyline points="67.5 16.3 21.5 71.5 21.5 147.5 121.5 147.5 121.5 71.5" fill="none" stroke="#0a0d0e" stroke-linecap="round" stroke-linejoin="round" stroke-width="3"/><polyline points="165.5 129.5 133.5 129.5 133.5 117.5 133.5 93.5 165.5 93.5 165.5 117.5" fill="none" stroke="#0a0d0e" stroke-linecap="round" stroke-linejoin="round" stroke-width="3"/><line x1="133.5" y1="101.5" x2="165.5" y2="101.5" fill="none" stroke="#0a0d0e" stroke-linecap="round" stroke-linejoin="round" stroke-width="3"/><line x1="133.5" y1="109.5" x2="165.5" y2="109.5" fill="none" stroke="#0a0d0e" stroke-linecap="round" stroke-linejoin="round" stroke-width="3"/><line x1="133.5" y1="117.5" x2="165.5" y2="117.5" fill="none" stroke="#0a0d0e" stroke-linecap="round" stroke-linejoin="round" stroke-width="3"/><polyline points="209.5 129.5 177.5 129.5 177.5 117.5 177.5 93.5 209.5 93.5 209.5 117.5" fill="none" stroke="#0a0d0e" stroke-linecap="round" stroke-linejoin="round" stroke-width="3"/><line x1="177.5" y1="101.5" x2="209.5" y2="101.5" fill="none" stroke="#0a0d0e" stroke-linecap="round" stroke-linejoin="round" stroke-width="3"/><line x1="177.5" y1="109.5" x2="209.5" y2="109.5" fill="none" stroke="#0a0d0e" stroke-linecap="round" stroke-linejoin="round" stroke-width="3"/><line x1="177.5" y1="117.5" x2="209.5" y2="117.5" fill="none" stroke="#0a0d0e" stroke-linecap="round" stroke-linejoin="round" stroke-width="3"/></svg>