<svg xmlns="http://www.w3.org/2000/svg" viewBox="0 0 116 140.34"><title/><g stroke-linecap="round" stroke-linejoin="round" stroke-width="2"><path fill="none" stroke="#070e15" d="M38 139.34h30"/><path fill="#fff" stroke="#070e15" d="M100 25.14A62.67 62.67 0 0 1 60.62 7l-4.79-4.83a4 4 0 0 0-5.66 0h0L45.38 7A62.76 62.76 0 0 1 4.8 25.23a4 4 0 0 0-3.8 4v22.11a78 78 0 0 0 31.2 62.4l18.4 13.8a4 4 0 0 0 4.8 0l18.4-13.8a78 78 0 0 0 31.2-62.4V39.22"/><path fill="none" stroke="#070e15" d="M105 34.22v-5"/><path fill="#E10EF3" stroke="#E10EF3" d="m53 109.34-14.4-10.8A54 54 0 0 1 17 55.34v-18h0a43.5 43.5 0 0 0 30.73-12.72L53 19.34l5.27 5.28A43.5 43.5 0 0 0 89 37.34h0v18a54 54 0 0 1-21.6 43.2Z"/><path fill="none" stroke="#070e15" d="M105 15.34v5m10 5h-5"/><path fill="#fff" stroke="#fff" d="M48.11 71.49c0-3.56 2.6-7 5.07-8.92s5.06-4.82 5.06-7.47c0-2.84-2.05-4.4-5.49-4.4s-5.75 1.8-7.17 5.36L38.47 52c2.41-6 8.08-9.34 14.59-9.34a14.75 14.75 0 0 1 9.46 3.19 10.39 10.39 0 0 1 4 8.68c0 9-10.13 11.76-10.13 17Zm.55 15.44a5.11 5.11 0 1 1 7.23 0 5.12 5.12 0 0 1-7.23 0Z"/></g></svg>