<svg xmlns="http://www.w3.org/2000/svg" width="71.93" height="75.62" viewBox="0 0 71.93 75.62" role="img">
<title></title>
<path d="M56.35,17.74l13.29,2.34a1.85,1.85,0,0,1,1.5,2.15" fill="none" stroke="#0b0d0e" stroke-linecap="round" stroke-linejoin="round" stroke-width="1.52"/><path d="M28.51,69.28,60,74.83a1.85,1.85,0,0,0,2.14-1.5l8.23-46.66" fill="none" stroke="#0b0d0e" stroke-linecap="round" stroke-linejoin="round" stroke-width="1.52"/><path d="M23.49,68.4A1.85,1.85,0,0,1,22,66.25l.19-1.08" fill="none" stroke="#0b0d0e" stroke-linecap="round" stroke-linejoin="round" stroke-width="1.52"/><path d="M48.93,52.63l1,5.76a1.85,1.85,0,0,1-1.5,2.15L22.18,65.17,11.94,67a1.84,1.84,0,0,1-2.14-1.5l-9-51.09a1.85,1.85,0,0,1,1.5-2.15L15.55,9.89" fill="none" stroke="#0b0d0e" stroke-linecap="round" stroke-linejoin="round" stroke-width="1.52"/><path d="M56.35,17.74l13.29,2.34a1.85,1.85,0,0,1,1.5,2.15" fill="none" stroke="#0b0d0e" stroke-linecap="round" stroke-linejoin="round" stroke-width="1.52"/><path d="M28.51,69.28,60,74.83a1.85,1.85,0,0,0,2.14-1.5l8.23-46.66" fill="none" stroke="#0b0d0e" stroke-linecap="round" stroke-linejoin="round" stroke-width="1.52"/><path d="M23.49,68.4A1.85,1.85,0,0,1,22,66.25l.19-1.08" fill="none" stroke="#0b0d0e" stroke-linecap="round" stroke-linejoin="round" stroke-width="1.52"/><path d="M48.93,52.63l1,5.76a1.85,1.85,0,0,1-1.5,2.15L22.18,65.17,11.94,67a1.84,1.84,0,0,1-2.14-1.5l-9-51.09a1.85,1.85,0,0,1,1.5-2.15l11.58-2" fill="none" stroke="#0b0d0e" stroke-linecap="round" stroke-linejoin="round" stroke-width="1.52"/><path d="M15.55,6.73V54.54a1.86,1.86,0,0,0,1.86,1.86H43.62a3.7,3.7,0,0,0,2.62-1.09l10-10V2.61A1.85,1.85,0,0,0,54.4.76h-37a1.85,1.85,0,0,0-1.85,1.85" fill="none" stroke="#0b0d0e" stroke-linecap="round" stroke-linejoin="round" stroke-width="1.52"/><path d="M36.09,25.27l-3-2.27a11.13,11.13,0,0,1-4.45-8.89V10.33h0A9,9,0,0,0,35,7.71l1.11-1.12L37.2,7.71a9,9,0,0,0,6.33,2.62h0v3.78A11.13,11.13,0,0,1,39.11,23Z" fill="#574CFA" fill-rule="evenodd"/><path d="M36.09,25.27l-3-2.27a11.13,11.13,0,0,1-4.45-8.89V10.33h0A9,9,0,0,0,35,7.71l1.11-1.12L37.2,7.71a9,9,0,0,0,6.33,2.62h0v3.78A11.13,11.13,0,0,1,39.11,23Z" fill="none" stroke="#574CFA" stroke-linecap="round" stroke-linejoin="round" stroke-width="1.52"/><polyline points="32.61 17.18 35.78 20.34 40.83 12.96" fill="none" stroke="#fff" stroke-linecap="round" stroke-linejoin="round" stroke-width="1.52"/><line x1="23.02" y1="31.01" x2="48.79" y2="31.01" fill="none" stroke="#0b0d0e" stroke-linecap="round" stroke-linejoin="round" stroke-width="1.52"/><line x1="23.02" y1="35.49" x2="48.79" y2="35.49" fill="none" stroke="#0b0d0e" stroke-linecap="round" stroke-linejoin="round" stroke-width="1.52"/><line x1="23.02" y1="45.2" x2="36.46" y2="45.2" fill="none" stroke="#0b0d0e" stroke-linecap="round" stroke-linejoin="round" stroke-width="1.52"/><path d="M51.77,45.2H46.9a1.85,1.85,0,0,0-1.85,1.85v7.49A1.85,1.85,0,0,1,43.2,56.4h.32a3.7,3.7,0,0,0,2.62-1.09L56.25,45.2" fill="none" stroke="#0b0d0e" stroke-linecap="round" stroke-linejoin="round" stroke-width="1.52"/></svg>