<?xml version="1.0" encoding="utf-8"?>
<svg fill="none" height="42" viewBox="0 0 85 42" width="85" xmlns="http: //www.w3.org/2000/svg"
role="img" aria-hidden="true">
<title></title>
<path clip-rule="evenodd" d="m43.4803 35.6005c1.0013 2.6604 3.6914 4.5698 6.8625 4.5698 3.1712 0
5.8612-1.9094 6.8619-4.5698z" fill="#070e15" fill-rule="evenodd"></path>
<path d="m43.4803 35.6005c1.0013 2.6604 3.6914 4.5698 6.8625 4.5698 3.1712 0 5.8612-1.9094 6.8619
-4.5698z" style="fill-rule: evenodd; clip-rule: evenodd; stroke: #070e15; stroke-width: 1.25; stroke-line
cap: round; stroke-linejoin: round"></path>
<path clip-rule="evenodd" d="m73.2785 16.1775c-6.5782-5.5877-14.8886-8.64912-23.4743-8.64912h-2.5
386c-6.0163 0-11.8197 2.25546-16.2916 6.331121-3.8411 3.5007c -. 8951.8152-2.0556 1.2664-3.2589 1.2
664h54.8977c-1.4859 0-2.9362 -. 4592-4.1585-1.3157z" fill="#574cfa" fill-rule="evenodd"></path>
<path d="m73.2785 16.1775c-6. 5782-5.5877-14.8886-8. 64912-23.4743-8.64912h-2.5386c-6.0163 0-11.819
7 2.25546-16.2916 6.331121-3.8411 3.5007c -. 8951.8152-2.0556 1.2664-3.2589 1.2664h54.8977c-1.4859
0-2.9362 -. 4592-4.1585-1.3157z" style="fill-rule: evenodd; clip-rule: evenodd; stroke: #574cfa; stroke-w
idth: 1.25; stroke-linecap: round; stroke-linejoin:round"></path>
<path clip-rule="evenodd" d="m21.9134 35.6005h9.7394 14.6084 33.00841.9408 -. 3146c1.6491 -. 5517 3.0
097-1.7041 3.7896-3.2109v-6.2671h-2.4348" fill="#fff" fill-rule="evenodd"></path>
<g stroke="#070e15" stroke-linecap="round" stroke-linejoin="round" stroke-width="1.25"> == $0
<path d="m21.9134 35.6005h9.7394 14.6084 33.00841.9408 -. 3146c1.6491 -. 5517 3.0097-1.7041 3.7896-
3.2109v-6.2671h-2.4348"></path>
<path d="m63.0866 25.8079c2.3636-2.2995 5.5683-3.5913 8.9098-3.5913h8.3129c2.0382 0 3.6907-1.60
7 3.6907-3.59"></path>
<path d="m51.3228 11.4454-3.3906 5.0493c -. 8947 1.332-2.4004 2.1316-4.0127 2.1316h-22.0208c-5.82
75 0-11.545 1.5723-16.54216 4.54871-2.62417 1.5632c -. 45222.2694 -. 814.6408-1.07882 1.0697h15.521
85.6403 2.1622c.9486 0 1.8759 -. 2784 2.6658 -. 801612.4062-1.5923"></path>
<path d="m1 40.6703h82.3465"></path>
<path d="m1.65355 32.6627h20.25985"></path>
<path d="m1.65355 29.3985h20.25985"></path>
<path d="m4.26772 36.1005h26.79528"></path>
</g>
<path clip-rule="evenodd" d="m10.8031 35.6005c1.0014 2.6604 3.6915 4.5698 6.8626 4.5698 3.1704 0
5.8612-1.9094 6.8619-4.5698z" fill="#070e15" fill-rule="evenodd"></path>
<path d="m10.8031 35.6005c1.0014 2.6604 3.6915 4.5698 6.8626 4.5698 3.1704 0 5.8612-1.9094 6.8619
-4.5698z" style="fill-rule: evenodd; clip-rule: evenodd; stroke: #070e15; stroke-width: 1.25; stroke-line
cap: round; stroke-linejoin: round"></path>
<path clip-rule="evenodd" d="m45.4409 32.9888c0 3.9667-3.2189 7.1816-7.1893 7.1816-3.9703 0-7.188
6-3.2149-7.1886-7.1816 0-3.9661 3.2183-7.1809 7.1886-7.1809 3.9704 0 7.1893 3.2148 7.1893 7.1809
z" fill="#fff" fill-rule="evenodd"></path>
<path d="m45.4409 32.9888c0 3.9667-3.2189 7.1816-7.1893 7.1816-3.9703 0-7.1886-3.2149-7.1886-7.18
16 0-3.9661 3.2183-7.1809 7.1886-7.1809 3.9704 0 7.1893 3.2148 7.1893 7.1809z" style="fill-rule:e
venodd; clip-rule: evenodd; stroke: #070e15; stroke-width: 1.25; stroke-linecap: round; stroke-linejoin: ro
und"></path>
<path clip-rule="evenodd" d="m78.1181 32.9888c0 3.9667-3.2189 7.1816-7.1893 7.1816-3.9703 0-7.188
6-3.2149-7.1886-7.1816 0-3.9661 3.2183-7.1809 7.1886-7.1809 3.9704 0 7.1893 3.2148 7.1893 7.1809
z" fill="#fff" fill-rule="evenodd"></path>
<path d="m78.1181 32.9888c0 3.9667-3.2189 7.1816-7.1893 7.1816-3.9703 0-7.1886-3.2149-7.1886-7.18
16 0-3.9661 3.2183-7.1809 7.1886-7.1809 3.9704 0 7.1893 3.2148 7.1893 7.1809z" style="fill-rule:e
venodd; clip-rule: evenodd; stroke: #070e15; stroke-width: 1.25; stroke-linecap: round; stroke-linejoin:ro
und"></path>
<path d="m74.8504 9.48692c.4357 -. 43544.8714 -. 87089 1.3071-1.30568" stroke="#070e15" stroke-
linecap="round" stroke-linejoin="round" stroke-width="1.25"></path>
<path d="m44.7057 2.30568 -. 4901-1.30568" stroke="#070e15" stroke-linecap="round" stroke-linejoin=
"round" stroke-width="1.25"></path>
<path d="m24.5276 11.4454c -. 8714 -. 6528-1.7428-1.3057-2.6142-1.95849" stroke="#070e15" stroke-
linecap="round" stroke-linejoin="round" stroke-width="1.25"></path>
</svg>
