<svg xmlns="http://www.w3.org/2000/svg" xmlns:xlink="http://www.w3.org/1999/xlink" width="1440" zoomAndPan="magnify" viewBox="0 0 1080 525.000007" height="700" preserveAspectRatio="xMidYMid meet" version="1.0"><defs><clipPath id="381a688a97"><path d="M 1.027344 0 L 1078.972656 0 L 1078.972656 524 L 1.027344 524 Z M 1.027344 0 " clip-rule="nonzero"/></clipPath><clipPath id="a591ffce41"><path d="M 513 0 L 1078.972656 0 L 1078.972656 524 L 513 524 Z M 513 0 " clip-rule="nonzero"/></clipPath><clipPath id="18239f901b"><path d="M 1396.429688 13.515625 L 1062.921875 842.648438 L 513.03125 621.460938 L 846.539062 -207.671875 Z M 1396.429688 13.515625 " clip-rule="nonzero"/></clipPath><clipPath id="8bca2a8a0d"><path d="M 1396.429688 13.515625 L 1063.773438 840.527344 L 513.882812 619.34375 L 846.539062 -207.671875 Z M 1396.429688 13.515625 " clip-rule="nonzero"/></clipPath></defs><g clip-path="url(#381a688a97)"><path fill="#ffffff" d="M 1.027344 0 L 1078.972656 0 L 1078.972656 524 L 1.027344 524 Z M 1.027344 0 " fill-opacity="1" fill-rule="nonzero"/><path fill="#f9f8f4" d="M 1.027344 0 L 1078.972656 0 L 1078.972656 524 L 1.027344 524 Z M 1.027344 0 " fill-opacity="1" fill-rule="nonzero"/></g><g clip-path="url(#a591ffce41)"><g clip-path="url(#18239f901b)"><g clip-path="url(#8bca2a8a0d)"><path fill="#1e2226" d="M 1396.429688 13.515625 L 1063.785156 840.5 L 513.894531 619.3125 L 846.539062 -207.671875 Z M 1396.429688 13.515625 " fill-opacity="1" fill-rule="nonzero"/></g></g></g></svg>