<?xml version="1.0" encoding="utf-8"?>
<!-- Generator: Adobe Illustrator 27.5.0, SVG Export Plug-In . SVG Version: 6.00 Build 0)  -->
<svg version="1.1" xmlns="http://www.w3.org/2000/svg" xmlns:xlink="http://www.w3.org/1999/xlink" x="0px" y="0px"
	 viewBox="0 0 750 500" style="enable-background:new 0 0 750 500;" xml:space="preserve">
<g id="Background_complete">
	<g>
		<g>
			<g>
				<g>
					<g>
						<path style="fill:#E0E0E0;" d="M673.734,332.771H492.988c-3.232,0-5.862-2.63-5.862-5.862V63.636
							c0-3.232,2.63-5.862,5.862-5.862h180.746c3.232,0,5.862,2.629,5.862,5.862v263.273
							C679.596,330.142,676.966,332.771,673.734,332.771z M492.988,58.024c-3.095,0-5.612,2.518-5.612,5.612v263.273
							c0,3.095,2.518,5.612,5.612,5.612h180.746c3.095,0,5.612-2.518,5.612-5.612V63.636c0-3.094-2.518-5.612-5.612-5.612H492.988z"
							/>
					</g>
				</g>
				<g>
					<g>
						<path style="fill:#E0E0E0;" d="M465.306,332.771H284.56c-3.232,0-5.862-2.63-5.862-5.862V63.636
							c0-3.232,2.629-5.862,5.862-5.862h180.747c3.232,0,5.862,2.629,5.862,5.862v263.273
							C471.168,330.142,468.538,332.771,465.306,332.771z M284.56,58.024c-3.094,0-5.612,2.518-5.612,5.612v263.273
							c0,3.095,2.518,5.612,5.612,5.612h180.747c3.095,0,5.612-2.518,5.612-5.612V63.636c0-3.094-2.518-5.612-5.612-5.612H284.56z"
							/>
					</g>
				</g>
			</g>
			<g>
				<g>
					<g>
						<path style="fill:#E0E0E0;" d="M257.012,332.771H76.266c-3.232,0-5.862-2.63-5.862-5.862V63.636
							c0-3.232,2.629-5.862,5.862-5.862h180.746c3.232,0,5.862,2.629,5.862,5.862v263.273
							C262.875,330.142,260.245,332.771,257.012,332.771z M76.266,58.024c-3.094,0-5.612,2.518-5.612,5.612v263.273
							c0,3.095,2.518,5.612,5.612,5.612h180.746c3.095,0,5.612-2.518,5.612-5.612V63.636c0-3.094-2.518-5.612-5.612-5.612H76.266z"
							/>
					</g>
				</g>
			</g>
			<g>
				<g>
					<rect y="364.085" style="fill:#E0E0E0;" width="750" height="0.12"/>
				</g>
			</g>
		</g>
		<g>
			<rect x="653.626" y="382.513" style="fill:#EBEBEB;" width="55.729" height="0.421"/>
			<rect x="495.044" y="387.078" style="fill:#EBEBEB;" width="14.627" height="0.421"/>
			<rect x="40.645" y="369.715" style="fill:#EBEBEB;" width="72.674" height="0.421"/>
			<rect x="128.299" y="369.715" style="fill:#EBEBEB;" width="10.655" height="0.421"/>
			<rect x="173.586" y="376.819" style="fill:#EBEBEB;" width="157.613" height="0.421"/>
		</g>
	</g>
	<g>
		<g>
			<g>
				<path style="fill:#E0E0E0;" d="M62.535,342.142c-0.016-0.51-1.733-51.159-9.971-59.17c-8.013-7.789-17.209-0.29-17.596,0.033
					l-0.826-0.99c0.104-0.088,10.483-8.56,19.321,0.033c8.608,8.371,10.293,57.947,10.36,60.054L62.535,342.142z"/>
			</g>
			<g>
				<path style="fill:#E0E0E0;" d="M63.242,352.096c-0.059-0.605-5.631-60.804,16.354-86.035l0.972,0.846
					c-21.62,24.813-16.101,84.464-16.043,85.063L63.242,352.096z"/>
			</g>
			<g>
				<path style="fill:#E0E0E0;" d="M62.43,345.728l-1.287-0.086c0.045-0.682,4.303-68.438-11.823-83.27l0.873-0.949
					C66.77,276.672,62.615,342.915,62.43,345.728z"/>
			</g>
			<g>
				<path style="fill:#E0E0E0;" d="M64.529,345.69l-1.289-0.01c0.016-1.866,0.532-45.766,13.002-52.911
					c2.772-1.59,5.487-1.855,8.068-0.787c7.54,3.119,11.277,16.538,11.432,17.108l-1.244,0.34
					c-0.036-0.134-3.726-13.38-10.682-16.257c-2.193-0.905-4.525-0.666-6.933,0.714C65.049,300.668,64.532,345.241,64.529,345.69z"
					/>
			</g>
			<g>
				<path style="fill:#E0E0E0;" d="M59.673,345.722l-1.287-0.073c0.019-0.346,1.881-34.691-7.388-46.792
					c-2.246-2.931-4.684-4.329-7.259-4.149c-6.073,0.424-11.166,9.312-11.216,9.401l-1.123-0.635
					c0.221-0.39,5.483-9.579,12.247-10.052c3.027-0.215,5.848,1.352,8.375,4.652C61.582,310.553,59.755,344.293,59.673,345.722z"/>
			</g>
			<g>
				<path style="fill:#E0E0E0;" d="M61.705,350.393c-0.252-3.332-6.059-81.752,4.158-95.571l1.036,0.766
					c-9.935,13.437-3.97,93.896-3.909,94.707L61.705,350.393z"/>
			</g>
		</g>
		<g>
			<path style="fill:#EBEBEB;" d="M87.088,299.929c0,0-6.129,2.26-4.307,7.594c1.822,5.335,21.204,14.114,21.204,14.114
				s8.117-7.44,0.663-19.54C97.193,289.997,87.254,296.112,87.088,299.929z"/>
		</g>
		<g>
			<path style="fill:#EBEBEB;" d="M60.442,289.774c0,0,6.527-0.273,6.898,5.352c0.371,5.625-14.14,21.187-14.14,21.187
				s-10.355-3.744-8.131-17.781C47.293,284.496,58.82,286.314,60.442,289.774z"/>
		</g>
		<g>
			<path style="fill:#EBEBEB;" d="M54.916,262.848c0,0,4.352-0.467,4.001-3.118c-0.35-2.651-16.916-9.473-26.69,1.559
				c0,0,6.258,10.75,15.305,10.891C56.579,272.32,54.916,262.848,54.916,262.848z"/>
		</g>
		<g>
			<path style="fill:#EBEBEB;" d="M63.025,256.411c0,0-3.94,1.905-5.045-0.53c-1.105-2.435,9.347-16.986,23.476-12.793
				c0,0,0.374,12.434-7.229,17.337C66.624,265.33,63.025,256.411,63.025,256.411z"/>
		</g>
		<g>
			<path style="fill:#EBEBEB;" d="M42.422,297.785c0,0,3.003-2.425-0.238-3.608c-3.241-1.184-19.144-0.847-19.31,14.906
				c0,0,18.522,3.078,20.815-2.922C45.982,300.159,42.422,297.785,42.422,297.785z"/>
		</g>
		<g>
			<path style="fill:#EBEBEB;" d="M80.192,262.453c0,0-3.003-2.425,0.238-3.608c3.241-1.184,19.144-0.847,19.31,14.906
				c0,0-18.522,3.078-20.815-2.922C76.632,264.827,80.192,262.453,80.192,262.453z"/>
		</g>
		<g>
			<path style="fill:#EBEBEB;" d="M70.4,275.143c0,0-0.264-2.948,2.116-1.792c2.38,1.155,10.67,10.099,2.076,18.587
				c0,0-11.568-8.568-9.483-13.029C67.194,274.446,70.4,275.143,70.4,275.143z"/>
		</g>
		<g>
			<path style="fill:#EBEBEB;" d="M39.737,279.343c0,0,1.795-2.353-0.834-2.644c-2.629-0.292-14.412,2.854-11.668,14.616
				c0,0,14.355-1.079,14.97-5.965C42.821,280.464,39.737,279.343,39.737,279.343z"/>
		</g>
		<polygon style="fill:#F0F0F0;" points="76.596,368.412 47.641,368.412 39.94,332.889 83.566,332.889 		"/>
		<rect x="37.313" y="332.375" style="fill:#E6E6E6;" width="48.766" height="10.215"/>
	</g>
	<g>
		<g>
			<g>
				<path style="fill:#E0E0E0;" d="M530.769,342.142c-0.016-0.51-1.732-51.159-9.971-59.17c-8.013-7.789-17.21-0.29-17.596,0.033
					l-0.826-0.99c0.104-0.088,10.483-8.56,19.321,0.033c8.609,8.371,10.293,57.947,10.36,60.054L530.769,342.142z"/>
			</g>
			<g>
				<path style="fill:#E0E0E0;" d="M531.477,352.096c-0.059-0.605-5.63-60.804,16.354-86.035l0.972,0.846
					c-21.62,24.813-16.101,84.464-16.043,85.063L531.477,352.096z"/>
			</g>
			<g>
				<path style="fill:#E0E0E0;" d="M530.664,345.728l-1.287-0.086c0.045-0.682,4.303-68.438-11.823-83.27l0.873-0.949
					C535.004,276.672,530.849,342.915,530.664,345.728z"/>
			</g>
			<g>
				<path style="fill:#E0E0E0;" d="M532.763,345.69l-1.289-0.01c0.016-1.866,0.532-45.766,13.002-52.911
					c2.772-1.59,5.486-1.855,8.068-0.787c7.54,3.119,11.277,16.538,11.432,17.108l-1.244,0.34
					c-0.036-0.134-3.726-13.38-10.682-16.257c-2.193-0.905-4.525-0.666-6.933,0.714C533.284,300.668,532.767,345.241,532.763,345.69
					z"/>
			</g>
			<g>
				<path style="fill:#E0E0E0;" d="M527.907,345.722l-1.287-0.073c0.019-0.346,1.881-34.691-7.388-46.792
					c-2.246-2.931-4.684-4.329-7.259-4.149c-6.073,0.424-11.166,9.312-11.216,9.401l-1.123-0.635
					c0.221-0.39,5.482-9.579,12.247-10.052c3.027-0.215,5.848,1.352,8.375,4.652C529.816,310.553,527.989,344.293,527.907,345.722z"
					/>
			</g>
			<g>
				<path style="fill:#E0E0E0;" d="M529.939,350.393c-0.252-3.332-6.059-81.752,4.158-95.571l1.036,0.766
					c-9.935,13.437-3.97,93.896-3.909,94.707L529.939,350.393z"/>
			</g>
		</g>
		<g>
			<path style="fill:#EBEBEB;" d="M555.322,299.929c0,0-6.129,2.26-4.307,7.594c1.822,5.335,21.204,14.114,21.204,14.114
				s8.117-7.44,0.663-19.54C565.427,289.997,555.488,296.112,555.322,299.929z"/>
		</g>
		<g>
			<path style="fill:#EBEBEB;" d="M528.677,289.774c0,0,6.527-0.273,6.898,5.352c0.371,5.625-14.14,21.187-14.14,21.187
				s-10.355-3.744-8.131-17.781C515.528,284.496,527.054,286.314,528.677,289.774z"/>
		</g>
		<g>
			<path style="fill:#EBEBEB;" d="M523.151,262.848c0,0,4.352-0.467,4.001-3.118c-0.35-2.651-16.916-9.473-26.69,1.559
				c0,0,6.258,10.75,15.305,10.891C524.814,272.32,523.151,262.848,523.151,262.848z"/>
		</g>
		<g>
			<path style="fill:#EBEBEB;" d="M531.259,256.411c0,0-3.94,1.905-5.045-0.53c-1.104-2.435,9.347-16.986,23.476-12.793
				c0,0,0.374,12.434-7.229,17.337C534.858,265.33,531.259,256.411,531.259,256.411z"/>
		</g>
		<g>
			<path style="fill:#EBEBEB;" d="M510.656,297.785c0,0,3.003-2.425-0.238-3.608c-3.241-1.184-19.144-0.847-19.31,14.906
				c0,0,18.522,3.078,20.815-2.922C514.216,300.159,510.656,297.785,510.656,297.785z"/>
		</g>
		<g>
			<path style="fill:#EBEBEB;" d="M548.426,262.453c0,0-3.003-2.425,0.238-3.608c3.241-1.184,19.144-0.847,19.31,14.906
				c0,0-18.522,3.078-20.815-2.922C544.867,264.827,548.426,262.453,548.426,262.453z"/>
		</g>
		<g>
			<path style="fill:#EBEBEB;" d="M538.634,275.143c0,0-0.264-2.948,2.115-1.792c2.38,1.155,10.67,10.099,2.077,18.587
				c0,0-11.568-8.568-9.483-13.029C535.429,274.446,538.634,275.143,538.634,275.143z"/>
		</g>
		<g>
			<path style="fill:#EBEBEB;" d="M507.971,279.343c0,0,1.795-2.353-0.834-2.644c-2.629-0.292-14.412,2.854-11.668,14.616
				c0,0,14.355-1.079,14.97-5.965C511.055,280.464,507.971,279.343,507.971,279.343z"/>
		</g>
		<polygon style="fill:#F0F0F0;" points="544.83,368.412 515.876,368.412 508.174,332.889 551.8,332.889 		"/>
		<rect x="505.547" y="332.375" style="fill:#E6E6E6;" width="48.766" height="10.215"/>
	</g>
	<g>
		<path style="fill:#EBEBEB;" d="M207.997,270.678l-7.505,0.705l0.001,14.534l7.504,0.707c0.978,4.711,2.816,9.28,5.546,13.438
			l-4.794,5.789l10.276,10.276l5.79-4.793c4.16,2.731,8.727,4.568,13.438,5.545l0.707,7.504l14.534,0.001l0.706-7.504
			c4.711-0.979,9.279-2.817,13.439-5.546l5.79,4.793l10.275-10.278l-4.792-5.788c2.73-4.16,4.567-8.729,5.545-13.439l7.505-0.707
			l-0.001-14.534l-7.505-0.707c-0.976-4.71-2.814-9.278-5.545-13.438l4.792-5.789l-10.276-10.276l-5.789,4.792
			c-4.159-2.729-8.727-4.568-13.439-5.546l-0.706-7.504l-14.534-0.001l-0.706,7.505c-4.711,0.978-9.279,2.815-13.439,5.546
			l-5.789-4.794l-10.276,10.277l4.794,5.79C210.813,261.398,208.975,265.966,207.997,270.678z M260.138,264.739
			c7.683,7.683,7.683,20.139-0.001,27.823c-7.682,7.682-20.139,7.683-27.822,0c-7.683-7.683-7.683-20.14,0-27.823
			C239.999,257.056,252.455,257.056,260.138,264.739z"/>
	</g>
	<g>
		<path style="fill:#EBEBEB;" d="M507.883,159.252l-4.5,0.423l0.001,8.714l4.499,0.424c0.586,2.825,1.688,5.564,3.325,8.057
			l-2.874,3.471l6.161,6.161l3.471-2.874c2.494,1.637,5.232,2.739,8.057,3.325l0.424,4.499l8.714,0.001l0.423-4.499
			c2.824-0.587,5.563-1.689,8.057-3.325l3.471,2.874l6.16-6.162l-2.873-3.47c1.637-2.494,2.738-5.234,3.325-8.057l4.5-0.424l0-8.714
			l-4.5-0.424c-0.585-2.824-1.687-5.563-3.324-8.057l2.873-3.471l-6.161-6.161l-3.47,2.873c-2.494-1.636-5.232-2.739-8.057-3.325
			l-0.424-4.499l-8.714-0.001l-0.423,4.5c-2.824,0.586-5.563,1.688-8.057,3.325l-3.471-2.874l-6.161,6.161l2.874,3.472
			C509.571,153.688,508.47,156.427,507.883,159.252z M539.145,155.691c4.606,4.606,4.606,12.075,0,16.681
			c-4.606,4.606-12.075,4.607-16.681,0c-4.607-4.606-4.606-12.075,0-16.682C527.07,151.085,534.539,151.085,539.145,155.691z"/>
	</g>
	<g>
		<path style="fill:#EBEBEB;" d="M226.176,363.633l-4.5,0.423l0.001,8.714l4.499,0.424c0.586,2.825,1.688,5.564,3.325,8.057
			l-2.874,3.471l6.161,6.161l3.471-2.874c2.494,1.637,5.232,2.739,8.057,3.325l0.424,4.499l8.714,0.001l0.423-4.499
			c2.824-0.587,5.563-1.689,8.057-3.325l3.471,2.874l6.16-6.162l-2.873-3.47c1.637-2.494,2.738-5.234,3.325-8.057l4.5-0.424
			l-0.001-8.714l-4.5-0.424c-0.585-2.824-1.687-5.563-3.324-8.057l2.873-3.471l-6.161-6.161l-3.471,2.873
			c-2.494-1.636-5.232-2.739-8.057-3.325l-0.424-4.499l-8.714,0l-0.423,4.5c-2.824,0.586-5.563,1.688-8.057,3.325l-3.471-2.874
			l-6.161,6.161l2.874,3.472C227.864,358.069,226.762,360.807,226.176,363.633z M257.438,360.072c4.606,4.606,4.606,12.075,0,16.681
			c-4.606,4.606-12.075,4.607-16.681,0c-4.607-4.606-4.606-12.075,0-16.682C245.363,355.465,252.831,355.466,257.438,360.072z"/>
	</g>
	<path style="fill:#EBEBEB;" d="M476.363,57.136c-2.872,4.375-4.804,9.18-5.834,14.136l-7.894,0.743l-0.001,15.287l7.895,0.744
		c1.028,4.955,2.961,9.76,5.833,14.135l-5.042,6.09l10.81,10.81l6.09-5.042c4.375,2.872,9.18,4.804,14.136,5.833l0.743,7.894
		l15.287-0.001l0.744-7.893c4.956-1.03,9.761-2.962,14.136-5.834l6.09,5.042l10.81-10.81l-5.042-6.09
		c2.872-4.375,4.804-9.18,5.833-14.135l7.893-0.744l0.001-15.287l-7.894-0.744c-1.029-4.955-2.962-9.76-5.834-14.135l5.042-6.09
		l-10.81-10.81l-6.09,5.042c-4.375-2.873-9.181-4.806-14.135-5.834l-0.744-7.894L503.1,31.551l-0.743,7.893
		c-4.956,1.029-9.76,2.961-14.135,5.833l-6.09-5.042l-10.81,10.81L476.363,57.136z M525.378,65.025
		c8.081,8.081,8.081,21.185,0,29.267c-8.082,8.082-21.186,8.081-29.267,0c-8.082-8.082-8.082-21.185,0-29.267
		C504.193,56.944,517.295,56.943,525.378,65.025z"/>
	<g>
		<rect x="183.057" y="66.052" style="fill:#E6E6E6;" width="44.92" height="84.685"/>
		<rect x="173.007" y="66.052" style="fill:#F0F0F0;" width="52.766" height="84.685"/>
		<rect x="181.027" y="73.574" style="fill:#FFFFFF;" width="36.701" height="69.641"/>
	</g>
	<g>
		<rect x="591.704" y="69.396" style="fill:#E6E6E6;" width="75.969" height="143.219"/>
		<rect x="574.707" y="69.396" style="fill:#F0F0F0;" width="89.238" height="143.219"/>
		<rect x="588.271" y="82.117" style="fill:#FFFFFF;" width="62.069" height="117.777"/>
	</g>
</g>
<g id="Background_simple" style="display:none;">
	<g style="display:inline;">
		<path style="fill:#407BFF;" d="M503.635,384.313c41.027-4.711,80.502-13.829,115.404-27.614
			c41.136-16.247,83.008-41.134,69.904-72.39c-24.193-57.703-134.947-56.649-113.584-96.166
			c24.198-44.762,6.412-96.386-106.24-108.686C255.153,56.096,0.198,221.557,74.35,308.386
			C120.514,362.442,285.789,409.329,503.635,384.313z"/>
		<path style="opacity:0.9;fill:#FFFFFF;" d="M503.635,384.313c41.027-4.711,80.502-13.829,115.404-27.614
			c41.136-16.247,83.008-41.134,69.904-72.39c-24.193-57.703-134.947-56.649-113.584-96.166
			c24.198-44.762,6.412-96.386-106.24-108.686C255.153,56.096,0.198,221.557,74.35,308.386
			C120.514,362.442,285.789,409.329,503.635,384.313z"/>
	</g>
</g>
<g id="Shadow">
	<g>
		<g>
			<path style="fill:#F0F0F0;" d="M636.375,462.808c0,4.992-116.926,9.039-261.162,9.039s-261.162-4.047-261.162-9.039
				c0-4.993,116.926-9.04,261.162-9.04S636.375,457.816,636.375,462.808z"/>
		</g>
	</g>
</g>
<g id="Plant">
	<g id="freepik--Plant--inject-111">
		<polygon style="fill:#263238;" points="669.804,347.919 673.907,370.435 698.188,370.435 702.538,347.919 		"/>
		<path style="fill:#407BFF;" d="M688.872,345.637c0.679-8.562,5.379-17.224,12.938-23.104c1.888-1.464,5.853-4.366,2.638-5.899
			c-3.673-1.754-10.718,6.435-11.706,7.95c2.085-6.524,8.404-11.249,15.26-13.956c3.388-1.338,6.619-2.606,3.009-4.593
			c-3.61-1.987-11.421,2.833-13.23,4.902c4.281-4.776,9.692-9.558,15.237-12.417c6.121-3.155,3.357-8.417-2.954-4.347
			c-3.91,2.524-10.339,8.833-10.339,8.833s10.102-16.208,7.053-17.666c-3.949-1.893-10.868,20.19-12.78,24.543
			c0.513-3.609,0.995-12.341-2.37-12.719c-3.073-0.341-2.322,21.401-3.033,25.237c-0.45,1.672-0.656,2.524-1.011,4.208
			c-0.332-2.896-2.37-10.53-5.418-9.647c-2.591,0.744-0.987,6.461-0.316,9.174c1.627,6.568,3.27,12.921,3.286,19.66L688.872,345.637
			z"/>
		<g>
			<path style="fill:#407BFF;" d="M683.315,348.788c-0.79-12.717-6.374-25.584-15.347-34.311c-2.235-2.172-6.935-6.485-3.159-8.76
				c4.352-2.599,12.717,9.557,13.878,11.801c-2.464-9.684-9.968-16.698-18.096-20.718c-4.02-1.99-7.851-3.862-3.57-6.816
				c4.281-2.954,13.554,4.21,15.687,7.275c-5.079-7.109-11.492-14.218-18.064-18.435c-7.259-4.676-3.949-12.496,3.499-6.453
				c4.684,3.744,12.298,13.088,12.298,13.088s-11.974-24.059-8.357-26.271c4.644-2.844,12.883,30.015,15.15,36.436
				c-0.6-5.355-1.169-18.325,2.859-18.886c3.641-0.505,2.749,31.768,3.594,37.471c0.537,2.488,0.79,3.736,1.193,6.248
				c0.403-4.297,2.796-15.631,6.437-14.32c3.065,1.106,1.169,9.589,0.371,13.617c-1.935,9.747-3.886,19.186-3.894,29.185
				L683.315,348.788z"/>
			<path style="fill:#407BFF;" d="M683.315,348.788c-0.79-12.717-6.374-25.584-15.347-34.311c-2.235-2.172-6.935-6.485-3.159-8.76
				c4.352-2.599,12.717,9.557,13.878,11.801c-2.464-9.684-9.968-16.698-18.096-20.718c-4.02-1.99-7.851-3.862-3.57-6.816
				c4.281-2.954,13.554,4.21,15.687,7.275c-5.079-7.109-11.492-14.218-18.064-18.435c-7.259-4.676-3.949-12.496,3.499-6.453
				c4.684,3.744,12.298,13.088,12.298,13.088s-11.974-24.059-8.357-26.271c4.644-2.844,12.883,30.015,15.15,36.436
				c-0.6-5.355-1.169-18.325,2.859-18.886c3.641-0.505,2.749,31.768,3.594,37.471c0.537,2.488,0.79,3.736,1.193,6.248
				c0.403-4.297,2.796-15.631,6.437-14.32c3.065,1.106,1.169,9.589,0.371,13.617c-1.935,9.747-3.886,19.186-3.894,29.185
				L683.315,348.788z"/>
			<path style="opacity:0.2;fill:#FFFFFF;enable-background:new    ;" d="M683.315,348.788c-0.79-12.717-6.374-25.584-15.347-34.311
				c-2.235-2.172-6.935-6.485-3.159-8.76c4.352-2.599,12.717,9.557,13.878,11.801c-2.464-9.684-9.968-16.698-18.096-20.718
				c-4.02-1.99-7.851-3.862-3.57-6.816c4.281-2.954,13.554,4.21,15.687,7.275c-5.079-7.109-11.492-14.218-18.064-18.435
				c-7.259-4.676-3.949-12.496,3.499-6.453c4.684,3.744,12.298,13.088,12.298,13.088s-11.974-24.059-8.357-26.271
				c4.644-2.844,12.883,30.015,15.15,36.436c-0.6-5.355-1.169-18.325,2.859-18.886c3.641-0.505,2.749,31.768,3.594,37.471
				c0.537,2.488,0.79,3.736,1.193,6.248c0.403-4.297,2.796-15.631,6.437-14.32c3.065,1.106,1.169,9.589,0.371,13.617
				c-1.935,9.747-3.886,19.186-3.894,29.185L683.315,348.788z"/>
		</g>
		<polygon style="opacity:0.2;enable-background:new    ;" points="701.39,352.482 702.292,348.896 669.989,348.896 
			670.803,352.191 		"/>
		<rect x="666.872" y="341.425" style="fill:#263238;" width="39.042" height="7.513"/>
	</g>
</g>
<g id="Clipboard">
	<g>
		<path style="fill:#407BFF;" d="M512.642,445.159H258.345c-4.102,0-7.427-3.325-7.427-7.427V77.474
			c0-4.102,3.325-7.427,7.427-7.427h254.297c4.102,0,7.427,3.325,7.427,7.427v360.258
			C520.069,441.833,516.744,445.159,512.642,445.159z"/>
		<rect x="260.694" y="107.455" style="opacity:0.3;" width="249.598" height="323.673"/>
		<g>
			<rect x="261.146" y="83.82" style="fill:#FFFFFF;" width="249.598" height="337.418"/>
			<rect x="289.404" y="152.305" style="fill:#E0E0E0;" width="192.18" height="10.381"/>
			<rect x="289.404" y="390.872" style="fill:#E0E0E0;" width="192.18" height="10.381"/>
			<rect x="289.403" y="176.698" style="fill:#263238;" width="192.18" height="1"/>
			<rect x="289.403" y="192.765" style="fill:#263238;" width="192.18" height="1"/>
			<rect x="289.403" y="208.831" style="fill:#263238;" width="192.18" height="1"/>
			<rect x="289.403" y="222.915" style="fill:#263238;" width="192.18" height="1"/>
			<g>
				<rect x="289.403" y="257.768" style="fill:#263238;" width="139.38" height="1"/>
				<rect x="289.403" y="272.411" style="fill:#263238;" width="139.38" height="1"/>
			</g>
			<g>
				<path style="fill:#263238;" d="M472.95,279.15h-26.364v-26.364h26.364V279.15z M447.586,278.15h24.364v-24.364h-24.364V278.15z"
					/>
				<g>
					<polygon style="fill:#407BFF;" points="463.029,276.037 449.147,265.7 452.755,260.856 462.063,267.788 474.853,252.529 
						479.482,256.409 					"/>
				</g>
			</g>
			<g>
				<rect x="289.403" y="303.303" style="fill:#263238;" width="139.38" height="1"/>
				<rect x="289.403" y="317.946" style="fill:#263238;" width="139.38" height="1"/>
			</g>
			<g>
				<path style="fill:#263238;" d="M472.95,324.685h-26.364v-26.363h26.364V324.685z M447.586,323.685h24.364v-24.363h-24.364
					V323.685z"/>
				<g>
					<polygon style="fill:#407BFF;" points="463.029,321.572 449.147,311.235 452.755,306.391 462.063,313.322 474.853,298.064 
						479.482,301.944 					"/>
				</g>
			</g>
			<g>
				<rect x="289.403" y="348.838" style="fill:#263238;" width="139.38" height="1"/>
				<rect x="289.403" y="363.48" style="fill:#263238;" width="139.38" height="1"/>
			</g>
			<g>
				<path style="fill:#263238;" d="M472.95,370.22h-26.364v-26.364h26.364V370.22z M447.586,369.22h24.364v-24.364h-24.364V369.22z"
					/>
				<g>
					<polygon style="fill:#407BFF;" points="463.029,367.107 449.147,356.77 452.755,351.926 462.063,358.857 474.853,343.599 
						479.482,347.478 					"/>
				</g>
			</g>
			<g>
				<path style="fill:#263238;" d="M330.632,115.973v12.29h-3.208v-12.29H330.632z"/>
				<path style="fill:#263238;" d="M342.712,122.285v5.979h-3.104v-5.084c0-1.069-0.631-1.736-1.613-1.736
					c-1.052,0.018-1.736,0.737-1.858,1.806v5.014h-3.121v-9.485h3.121v1.543c0.666-1.087,1.753-1.666,3.138-1.666
					C341.345,118.655,342.712,120.058,342.712,122.285z"/>
				<path style="fill:#263238;" d="M348.148,120.812c-0.526,0-0.894,0.193-0.894,0.596c0,1.245,4.979,0.648,4.961,3.945
					c0,1.946-1.701,3.05-4.015,3.05c-1.596,0-3.121-0.456-4.278-1.35l0.981-2.016c1.087,0.754,2.314,1.175,3.366,1.175
					c0.579,0,0.999-0.193,0.999-0.579c0-1.297-4.892-0.648-4.892-3.927c0-1.981,1.665-3.068,3.892-3.068
					c1.368,0,2.753,0.386,3.945,1.105l-1.052,2.034C349.989,121.163,348.919,120.812,348.148,120.812z"/>
				<path style="fill:#263238;" d="M363.156,118.778v9.485h-3.121v-1.543c-0.649,1.104-1.683,1.665-3.033,1.683
					c-2.051,0-3.384-1.42-3.384-3.629v-5.996h3.121v5.102c0,1.07,0.596,1.718,1.525,1.718c1.104-0.018,1.771-0.894,1.771-2.139
					v-4.681H363.156z"/>
				<path style="fill:#263238;" d="M371.713,118.655v2.858c-1.736-0.175-2.893,0.596-3.051,1.911v4.839h-3.121v-9.485h3.121v1.578
					C369.311,119.269,370.381,118.655,371.713,118.655z"/>
				<path style="fill:#263238;" d="M381.251,122.092v6.171h-3.068v-1.069c-0.613,0.789-1.577,1.21-2.857,1.21
					c-2.034,0-3.243-1.227-3.243-2.963c0-1.806,1.28-2.84,3.629-2.875h2.472v-0.105c0-0.894-0.613-1.42-1.806-1.42
					c-0.789,0-1.823,0.263-2.84,0.754l-0.859-2.104c1.49-0.667,2.858-1.035,4.418-1.035
					C379.708,118.655,381.233,119.918,381.251,122.092z M378.183,125.055v-0.824h-1.858c-0.876,0-1.314,0.315-1.314,0.981
					c0,0.649,0.473,1.07,1.28,1.07C377.219,126.282,377.99,125.773,378.183,125.055z"/>
				<path style="fill:#263238;" d="M393.052,122.285v5.979h-3.104v-5.084c0-1.069-0.631-1.736-1.612-1.736
					c-1.053,0.018-1.736,0.737-1.859,1.806v5.014h-3.12v-9.485h3.12v1.543c0.667-1.087,1.754-1.666,3.139-1.666
					C391.685,118.655,393.052,120.058,393.052,122.285z"/>
				<path style="fill:#263238;" d="M399.434,121.25c-1.122,0-1.894,0.93-1.894,2.297c0,1.385,0.771,2.297,1.894,2.297
					c0.824,0,1.473-0.333,1.858-1.069l2.297,1.315c-0.754,1.455-2.297,2.279-4.313,2.279c-2.928,0-4.874-1.911-4.874-4.804
					c0-2.945,1.964-4.892,4.909-4.892c1.911,0,3.419,0.824,4.242,2.244l-2.262,1.315C400.872,121.619,400.24,121.25,399.434,121.25z
					"/>
				<path style="fill:#263238;" d="M413.724,124.354h-6.593c0.299,1.069,1.088,1.665,2.157,1.665c0.807,0,1.595-0.333,2.227-0.964
					l1.63,1.63c-0.964,1.087-2.384,1.683-4.138,1.683c-3.103,0-5.014-1.911-5.014-4.804c0-2.945,1.981-4.892,4.944-4.892
					C412.251,118.673,413.934,120.899,413.724,124.354z M410.708,122.688c0-1.087-0.701-1.823-1.753-1.823
					c-1.018,0-1.684,0.736-1.894,1.823H410.708z"/>
				<path style="fill:#263238;" d="M430.941,120.286c0,2.893-1.806,4.576-4.944,4.576h-2.191v3.401h-3.208v-12.29h5.399
					C429.136,115.973,430.941,117.551,430.941,120.286z M427.891,120.391c0-1.209-0.754-1.858-2.051-1.858h-2.034v3.77h2.034
					C427.137,122.302,427.891,121.636,427.891,120.391z"/>
				<path style="fill:#263238;" d="M442.11,123.512c0,2.928-2.068,4.856-5.189,4.856s-5.172-1.928-5.172-4.856
					c0-2.91,2.051-4.839,5.172-4.839S442.11,120.602,442.11,123.512z M434.887,123.547c0,1.42,0.824,2.367,2.034,2.367
					c1.228,0,2.052-0.947,2.052-2.367c0-1.402-0.824-2.349-2.052-2.349C435.711,121.198,434.887,122.145,434.887,123.547z"/>
				<path style="fill:#263238;" d="M446.915,115.254v13.009h-3.12v-13.009H446.915z"/>
				<path style="fill:#263238;" d="M452.491,118.778v9.485h-3.103v-9.485H452.491z M452.368,116.113c0,0.824-0.597,1.42-1.42,1.42
					c-0.824,0-1.421-0.596-1.421-1.42c0-0.842,0.597-1.438,1.421-1.438C451.771,114.676,452.368,115.271,452.368,116.113z"/>
				<path style="fill:#263238;" d="M459.136,121.25c-1.122,0-1.893,0.93-1.893,2.297c0,1.385,0.772,2.297,1.893,2.297
					c0.824,0,1.473-0.333,1.858-1.069l2.297,1.315c-0.754,1.455-2.297,2.279-4.313,2.279c-2.928,0-4.874-1.911-4.874-4.804
					c0-2.945,1.964-4.892,4.909-4.892c1.911,0,3.419,0.824,4.242,2.244l-2.262,1.315C460.574,121.619,459.942,121.25,459.136,121.25
					z"/>
				<path style="fill:#263238;" d="M466.132,131.805c-1.069,0-1.946-0.315-2.805-0.982l1.297-2.156
					c0.439,0.368,0.807,0.526,1.263,0.526c0.525,0,0.894-0.246,1.14-0.719l0.228-0.438l-3.927-9.257h3.208l2.262,6.171l2.017-6.171
					h3.103l-4.067,10.414C469.13,130.963,467.92,131.805,466.132,131.805z"/>
			</g>
			<g>
				<path style="fill:#407BFF;" d="M312.031,137.643h-18.182c-2.455,0-4.445-1.99-4.445-4.445v-18.182
					c0-2.455,1.99-4.445,4.445-4.445h18.182c2.455,0,4.445,1.99,4.445,4.445v18.182
					C316.476,135.652,314.486,137.643,312.031,137.643z"/>
				<g>
					<circle style="fill:#FFFFFF;" cx="302.94" cy="119.636" r="3.979"/>
					<path style="fill:#FFFFFF;" d="M302.94,124.475c-4.463,0-8.08,3.618-8.08,8.08h16.161
						C311.02,128.092,307.402,124.475,302.94,124.475z"/>
				</g>
			</g>
		</g>
		<g>
			<g>
				<rect x="342.803" y="63.557" style="fill:#263238;" width="85.38" height="32.202"/>
				<polygon style="fill:#263238;" points="412.525,66.807 362.597,66.807 357.03,42.286 419.358,42.286 				"/>
			</g>
			<path style="opacity:0.3;" d="M414.264,42.286c-0.058,0.152-6.65,20.992-6.488,20.992c0.162,0,5.666,0,5.666,0l5.998-20.992
				H414.264z"/>
			<path style="opacity:0.3;" d="M422.67,63.557c0,0-0.412,32.202,0,32.202s5.513,0,5.513,0V63.557H422.67z"/>
		</g>
	</g>
</g>
<g id="Speech_Bubble">
	<g>
		<g>
			<g>
				<path style="fill:#407BFF;" d="M68.925,119.591c-2.982,14.078,6.013,27.907,20.09,30.889
					c10.868,2.302,21.565-2.552,27.261-11.354l7.732-1.205l-4.215-7.113c0.032-0.141,0.081-0.275,0.111-0.418
					c2.982-14.077-6.013-27.907-20.09-30.889C85.736,96.519,71.907,105.513,68.925,119.591z"/>
				<path style="opacity:0.7;fill:#FFFFFF;" d="M68.925,119.591c-2.982,14.078,6.013,27.907,20.09,30.889
					c10.868,2.302,21.565-2.552,27.261-11.354l7.732-1.205l-4.215-7.113c0.032-0.141,0.081-0.275,0.111-0.418
					c2.982-14.077-6.013-27.907-20.09-30.889C85.736,96.519,71.907,105.513,68.925,119.591z"/>
				<path style="fill:#407BFF;" d="M66.232,117.99c-0.014,0-0.029-0.001-0.043-0.003c-0.136-0.024-0.228-0.153-0.204-0.289
					c1.449-8.397,7.461-15.954,15.319-19.253c0.128-0.053,0.274,0.007,0.327,0.134c0.054,0.127-0.006,0.274-0.134,0.327
					c-7.704,3.234-13.599,10.643-15.019,18.876C66.457,117.904,66.352,117.99,66.232,117.99z"/>
				<path style="fill:#407BFF;" d="M85.036,97.549c-0.091,0-0.179-0.05-0.223-0.136c-0.063-0.123-0.014-0.274,0.109-0.336
					c1.176-0.6,2.495-0.958,3.813-1.036c0.132-0.016,0.256,0.097,0.264,0.235c0.008,0.138-0.097,0.256-0.235,0.264
					c-1.25,0.074-2.5,0.414-3.615,0.982C85.113,97.54,85.075,97.549,85.036,97.549z"/>
			</g>
		</g>
		<g>
			<rect x="91.004" y="113.864" style="fill:#407BFF;" width="8.233" height="23.883"/>
			
				<rect x="91.004" y="113.864" transform="matrix(6.123234e-17 -1 1 6.123234e-17 -30.6856 220.9254)" style="fill:#407BFF;" width="8.233" height="23.883"/>
		</g>
	</g>
</g>
<g id="Character_2">
	<g>
		<g>
			<g>
				
					<rect x="564.155" y="307.807" transform="matrix(0.9933 0.1157 -0.1157 0.9933 48.072 -62.9123)" style="fill:#263238;" width="3.332" height="149.442"/>
				
					<rect x="564.155" y="307.807" transform="matrix(0.9933 0.1157 -0.1157 0.9933 48.072 -62.9123)" style="opacity:0.4;fill:#FFFFFF;enable-background:new    ;" width="3.332" height="149.442"/>
				<path style="fill:#263238;" d="M559.166,463.063l-5.36-0.625c-0.616-0.072-1.016-0.742-0.846-1.416l1.545-6.096
					c0.138-0.546,0.61-0.907,1.11-0.849l3.713,0.433c0.499,0.058,0.875,0.518,0.885,1.082l0.102,6.288
					C560.326,462.574,559.782,463.135,559.166,463.063z"/>
			</g>
			<g>
				<path style="fill:#EEC1BB;" d="M567.629,297.522c0,0,1.955,3.372,4.332,3.699c2.376,0.327,3.58-1.194,3.58-1.194l0.5-11.708
					l-2.493-9.455l-5.377,7.154L567.629,297.522z"/>
				<path style="fill:#EEC1BB;" d="M578.049,200.915c0,0-7.255,46.268-8.168,51.323c-0.913,5.055-2.874,28.271-2.874,28.271
					l6.296,3.244l11.857-41.129l1.411-26.974L578.049,200.915z"/>
				<path style="fill:#263238;" d="M584.976,264.428l-12.46-3.836c-0.883-0.272-1.809,0.278-1.992,1.184l-1.422,7.013
					c-0.17,0.839,0.366,1.659,1.203,1.839l12.351,2.658c0.818,0.176,1.629-0.323,1.841-1.132l0.669-2.549l0.862-3.288
					C586.241,265.508,585.777,264.674,584.976,264.428z"/>
				<polygon style="fill:#263238;" points="576.491,311.223 583.229,273.656 577.493,272.079 571.972,310.642 				"/>
				<path style="fill:#263238;" d="M576.305,292.674l-14.977-3.341c-1.695-0.378-3.366,0.72-3.693,2.425l0,0
					c-0.317,1.654,0.755,3.256,2.404,3.594l13.908,2.853L576.305,292.674z"/>
				<path style="fill:#EEC1BB;" d="M573.047,281.007c0.027,0.451,0.824,4.569-0.599,7.529c-1.423,2.96-4.2,4.537-4.2,4.537
					s-0.357,7.418-2.613,7.555c-2.256,0.137-2.17-5.906-2.17-5.906s-0.115-4.371,0.737-7.743c0.852-3.373,3.555-7.764,3.555-7.764
					L573.047,281.007z"/>
				<path style="opacity:0.2;enable-background:new    ;" d="M581.987,236.529c0.002-0.028-4.123,0.911-5.926,4.516
					c-1.266,2.532,1.539,10,1.539,10S581.667,241.796,581.987,236.529z"/>
			</g>
		</g>
		<g>
			<g>
				<polygon style="fill:#EEC1BB;" points="638.908,452.916 629.043,453.882 623.653,428.699 638.908,427.272 				"/>
				<g>
					<path style="fill:#263238;" d="M627.614,449.526h3.522c0.797,0,1.534,0.403,2.005,1.046c2.031,2.774,3.557,1.725,5.767-0.882
						c1.404-0.164,1.782,1.448,1.897,1.881l2.633,9.577c0.229,0.8-0.234,1.634-1.034,1.862c-0.142,0.041-0.29,0.06-0.438,0.058
						c-4.277,0-6.301,0-11.624,0h-16.281c-4.438,0-5.358-4.473-3.53-4.886c8.221-1.817,14.042-4.236,16.583-6.627
						C627.586,451.136,627.102,450.823,627.614,449.526z"/>
					<path style="fill:#407BFF;" d="M622.363,452.79c1.112-0.027,2.218-0.169,3.3-0.425c0.102-0.036,0.154-0.148,0.118-0.25
						c-0.02-0.055-0.063-0.098-0.118-0.118c-0.495-0.241-4.898-2.3-6.002-1.518c-0.207,0.135-0.319,0.376-0.287,0.621
						c0.005,0.456,0.227,0.883,0.598,1.15C620.69,452.68,621.528,452.869,622.363,452.79z M624.973,452.1
						c-1.299,0.241-3.714,0.563-4.714-0.184c-0.259-0.204-0.419-0.51-0.437-0.839c-0.021-0.103,0.025-0.209,0.115-0.264
						C620.546,450.387,623.145,451.295,624.973,452.1z"/>
					<path style="fill:#407BFF;" d="M625.617,452.376c0.045,0.014,0.093,0.014,0.138,0c0.059-0.051,0.081-0.132,0.057-0.207
						c0-0.184-1.035-4.519-3.449-4.243c-0.598,0.081-0.77,0.368-0.793,0.609c-0.149,1.15,2.622,3.323,3.944,3.875L625.617,452.376z
						 M622.604,448.271c1.529,0,2.415,2.529,2.714,3.541c-1.437-0.759-3.45-2.564-3.323-3.265c0-0.058,0-0.219,0.448-0.264
						L622.604,448.271z"/>
					<path style="fill:#407BFF;" d="M628.16,454.421c-0.083,0-0.164-0.041-0.212-0.117c-0.615-0.978-1.667-1.655-2.813-1.812
						c-0.137-0.02-0.232-0.145-0.214-0.282c0.019-0.136,0.136-0.227,0.282-0.214c1.29,0.177,2.475,0.94,3.169,2.042
						c0.073,0.116,0.038,0.271-0.079,0.345C628.252,454.408,628.206,454.421,628.16,454.421z"/>
					<path style="fill:#407BFF;" d="M625.971,456.068c-0.083,0-0.164-0.041-0.212-0.117c-0.615-0.978-1.667-1.655-2.813-1.812
						c-0.137-0.02-0.232-0.145-0.214-0.282c0.02-0.136,0.141-0.226,0.282-0.214c1.29,0.177,2.474,0.94,3.168,2.042
						c0.073,0.116,0.038,0.271-0.079,0.345C626.063,456.056,626.017,456.068,625.971,456.068z"/>
					<path style="fill:#407BFF;" d="M623.248,457.454c-0.083,0-0.164-0.041-0.212-0.116c-0.617-0.979-1.669-1.657-2.813-1.813
						c-0.137-0.019-0.233-0.145-0.214-0.282c0.019-0.136,0.141-0.225,0.282-0.214c1.288,0.176,2.474,0.939,3.169,2.041
						c0.073,0.117,0.038,0.271-0.078,0.346C623.34,457.441,623.294,457.454,623.248,457.454z"/>
				</g>
			</g>
			<g>
				<polygon style="fill:#EEC1BB;" points="591.098,452.152 581.233,453.118 576.665,427.845 590.681,426.32 				"/>
				<g>
					<path style="fill:#263238;" d="M579.804,448.762h3.522c0.797,0,1.534,0.403,2.005,1.046c2.031,2.774,3.557,1.725,5.767-0.882
						c1.404-0.164,1.783,1.448,1.897,1.881l2.633,9.577c0.229,0.8-0.234,1.634-1.034,1.862c-0.142,0.041-0.29,0.06-0.438,0.058
						c-4.277,0-6.301,0-11.624,0h-16.281c-4.438,0-5.358-4.473-3.53-4.887c8.221-1.816,14.042-4.236,16.583-6.627
						C579.776,450.372,579.292,450.059,579.804,448.762z"/>
					<path style="fill:#407BFF;" d="M574.553,452.026c1.112-0.027,2.218-0.169,3.3-0.425c0.102-0.036,0.154-0.148,0.118-0.25
						c-0.02-0.055-0.063-0.098-0.118-0.118c-0.494-0.241-4.898-2.3-6.002-1.518c-0.207,0.135-0.319,0.376-0.287,0.621
						c0.005,0.456,0.227,0.883,0.598,1.15C572.88,451.916,573.718,452.105,574.553,452.026z M577.163,451.336
						c-1.299,0.242-3.714,0.564-4.714-0.184c-0.259-0.204-0.419-0.51-0.437-0.839c-0.021-0.104,0.025-0.209,0.115-0.264
						C572.736,449.623,575.334,450.531,577.163,451.336z"/>
					<path style="fill:#407BFF;" d="M577.807,451.612c0.045,0.014,0.093,0.014,0.138,0c0.059-0.051,0.081-0.133,0.057-0.207
						c0-0.184-1.035-4.519-3.449-4.243c-0.598,0.081-0.77,0.368-0.793,0.609c-0.15,1.15,2.621,3.323,3.944,3.875L577.807,451.612z
						 M574.794,447.507c1.529,0,2.414,2.529,2.713,3.541c-1.437-0.759-3.449-2.564-3.323-3.265c0-0.058,0-0.219,0.448-0.265
						L574.794,447.507z"/>
					<path style="fill:#407BFF;" d="M580.35,453.656c-0.083,0-0.164-0.041-0.212-0.117c-0.615-0.978-1.667-1.655-2.813-1.811
						c-0.137-0.018-0.232-0.144-0.214-0.282c0.02-0.136,0.14-0.223,0.282-0.214c1.289,0.176,2.474,0.939,3.168,2.041
						c0.073,0.116,0.038,0.271-0.079,0.345C580.441,453.644,580.396,453.656,580.35,453.656z"/>
					<path style="fill:#407BFF;" d="M578.161,455.305c-0.083,0-0.164-0.041-0.212-0.117c-0.616-0.978-1.668-1.656-2.814-1.811
						c-0.137-0.019-0.232-0.145-0.214-0.282c0.02-0.136,0.141-0.222,0.282-0.214c1.29,0.176,2.475,0.939,3.169,2.042
						c0.073,0.116,0.038,0.271-0.079,0.345C578.253,455.292,578.207,455.305,578.161,455.305z"/>
					<path style="fill:#407BFF;" d="M575.438,456.69c-0.083,0-0.164-0.041-0.212-0.117c-0.615-0.978-1.667-1.655-2.813-1.811
						c-0.138-0.018-0.233-0.145-0.215-0.281c0.02-0.137,0.151-0.223,0.281-0.215c1.291,0.176,2.476,0.939,3.17,2.041
						c0.073,0.116,0.038,0.27-0.079,0.345C575.529,456.677,575.483,456.69,575.438,456.69z"/>
				</g>
			</g>
			<path style="fill:#407BFF;" d="M575.233,265.194c-0.711,2.106-8.679,69.578-8.587,84.141c0.074,11.785,9.198,91.273,9.198,91.273
				l17.168-0.599c0,0-0.886-39.238-0.385-52.857c0.501-13.619-2.774-39.217-2.774-39.217l20.543-61.439l-0.771-20.612
				L575.233,265.194z"/>
			<path style="fill:#407BFF;" d="M636.59,355.842c-0.451-1.966-1.172-5.96-2.057-11.227c0.026-0.006,0.056-0.012,0.083-0.019
				c-0.648-6.965,1.588-43.046-0.615-63.654c-1.694-13.126-4.826-20.105-8.204-24.455c-0.174-0.223-0.334-0.426-0.479-0.607
				c-0.561-0.701-0.902-1.086-0.902-1.086c-0.642,0.161-1.28,0.31-1.916,0.449c-0.238,0.052-0.474,0.103-0.709,0.153
				c-23.85,4.987-44.037-2.16-44.037-2.16c-2.195,5.422-3.394,18.87-4.996,30.86c2.495,2.738,12.201,5.281,24.761,7.635
				l3.582,16.198c1.884,10.043,4.305,19.894,6.36,28.764l2.148,9.715c0.131,0.637,0.258,1.268,0.379,1.888
				c1.09,5.585,13.342,94.079,13.342,94.079l17.441,0.284C640.771,442.66,642.701,382.465,636.59,355.842z"/>
			<g>
				<path style="opacity:0.2;enable-background:new    ;" d="M575.681,258.884c0,0,8.278,9.077,22.477,9.209
					c14.198,0.131,30.126-8.139,30.126-8.139l-1.783-3.053l-40.885,4.454l-8.414-4.454L575.681,258.884z"/>
				<path style="opacity:0.2;enable-background:new    ;" d="M601.885,311.95c0.065,0.329-8.071-31.276-8.071-31.276
					s-6.242,28.625,3.694,44.367L601.885,311.95z"/>
			</g>
		</g>
		<g>
			<g>
				<path style="fill:#263238;" d="M584.479,187.697c-8.978,9.892-11.36,21.194-11.36,21.194l19.489,4.665
					c0,0,5.392-14.234,3.208-19.443C593.539,188.686,590.009,183.466,584.479,187.697z"/>
				<g style="opacity:0.3;">
					<path d="M583.264,196.943c-1.11,1.896-1.491,2.975-2.186,5.159c-0.695,2.184-1.077,6.157-1.25,8.209l3.749,1.08
						C583.432,206.38,583.41,201.954,583.264,196.943z"/>
				</g>
				<path style="fill:#263238;" d="M632.253,211.862l6.167-21.029c-3.901-5.823-23.205-10.297-23.205-10.297l-12.718,0.695
					c0,0-4.888,1.091-9.073,2.455c-5.587,1.822-8.608,3.287-9.94,6.387c0,0-2.331,6.868-0.93,21.022
					c0.385,3.892-0.052,24.126-1.138,30.81l-6.582,15.764c23.237,18.097,52.986,0.008,52.986,0.008
					c-1.044-3.196-1.747-6.746-2.219-9.868c0.341-3.984-0.134-10.128,1.554-17.104C627.481,229.36,631.687,213.171,632.253,211.862z
					"/>
				<path style="opacity:0.3;" d="M630.299,217.633c0,0-8.911-11.222-7.394-15.889l9.168,8.578L630.299,217.633z"/>
				<g>
					<path style="fill:#263238;" d="M635.675,188.747c4.88,1.642,9.743,17.071,9.743,17.071l-14.343,9.468
						c0,0-8.401-12.473-6.884-18.919C625.488,190.922,629.479,186.652,635.675,188.747z"/>
				</g>
			</g>
			<g>
				<path style="fill:#EEC1BB;" d="M632.002,214.674c0,0,8.817,19,8.667,19.735c-0.554,2.705-28.843,0.878-28.843,0.878
					l-0.683,7.591c0,0,12.825,4.112,26.028,4.377c13.623,0.273,19.834-6.869,16.534-15.372c-3.523-9.078-9.936-24.976-9.936-24.976
					L632.002,214.674z"/>
				<path style="opacity:0.3;" d="M640.669,234.408c0,0,2.784-0.565,5.603,1.093c0,0-0.276-1.253-2.585-2.11
					c-1.411-0.524-3.534-0.395-3.534-0.395L640.669,234.408z"/>
			</g>
			<g>
				<g>
					<g>
						<g>
							<g>
								<g>
									<g>
										<path style="fill:#EEC1BB;" d="M602.391,235.431c0,0-1.867-3.396-4.954-4.255c-3.087-0.859-5.324-2.366-7.664-2.845
											c-2.339-0.48-0.373,2.074,0.948,3.221c1.321,1.147,2.806,2.46,1.784,3.313c-1.022,0.853-12.295,2.844-13.577,4.188
											c-1.283,1.344,0.642,1.592,0.642,1.592s-2.725,0.557-2.798,1.697c-0.019,0.296,0.417,1.015,1.698,0.956
											c2.883-0.134,8.92-0.726,8.92-0.726c-0.347,0.027-7.746,1.29-8.829,1.623c-1.416,0.436-1.861,1.364-1.582,2.177
											c0.398,1.157,9.625-0.096,10.051,0.123c0,0-5.336,0.544-5.95,1.998c-0.613,1.454,2.764,1.295,5.716,0.589
											c2.706-0.647,8.183-1.208,10.87-2.133c3.311-1.139,5.278-2.648,5.589-5.917
											C603.567,237.764,602.391,235.431,602.391,235.431z"/>
									</g>
								</g>
							</g>
						</g>
					</g>
				</g>
				<path style="opacity:0.3;" d="M579.914,240.627c-0.06,0-0.112-0.042-0.123-0.103c-0.012-0.068,0.033-0.133,0.101-0.145
					c2.188-0.391,4.421-0.685,6.641-0.876c0.066-0.005,0.13,0.045,0.136,0.114c0.006,0.069-0.046,0.129-0.114,0.135
					c-2.212,0.189-4.439,0.483-6.617,0.873C579.929,240.626,579.921,240.627,579.914,240.627z"/>
			</g>
			<path style="fill:#407BFF;" d="M598.336,247.262l3.829-24.136l41.679-21.711c0,0,14.978,30.532,12.824,38.621
				c-3.79,14.234-12.027,11.171-18.249,11.531C632.197,251.928,598.336,247.262,598.336,247.262z"/>
			<polygon style="fill:#407BFF;" points="602.166,223.126 591.648,184.288 596.606,182.729 608.612,219.768 			"/>
			<polygon style="opacity:0.2;enable-background:new    ;" points="602.166,223.126 643.845,201.415 646.3,206.638 
				601.139,229.598 			"/>
		</g>
		<g>
			<g>
				<path style="fill:#263238;" d="M644.977,177.32c-0.749-1.176-2.161-1.857-3.398-2.638c-4.712-2.972-7.394-7.933-8.768-12.934
					c-1.374-5.001-1.628-10.188-2.583-15.266c-0.432-2.298-1.041-4.644-2.549-6.547c-1.508-1.903-6.171-4.926-9.488-0.571
					l-0.018,7.399c-1.307,3.494-1.141,7.284-0.675,10.944c0.466,3.66-2.078-1.985-2.261,1.695c-0.11,2.209,0.05,12.172-0.003,14.382
					c-0.053,2.21,3.017,6.042,4.4,7.876c1.736,2.303,4.804,3.539,7.852,4.092c3.943,0.716,8.1,0.463,11.898-0.723
					c1.853-0.579,3.68-1.418,4.891-2.796C645.488,180.856,645.947,178.843,644.977,177.32z"/>
			</g>
			<g>
				<g>
					<g>
						<path style="fill:#407BFF;" d="M618.252,138.775c1.951,0.345,3.496,1.937,4.318,3.74c0.548,1.201,0.834,2.553,0.606,3.854
							c-0.228,1.3-1.021,2.534-2.209,3.11c-1.188,0.575-2.76,0.377-3.641-0.605c-0.798-0.889-0.921-2.214-0.69-3.386
							c0.231-1.172,0.766-2.259,1.148-3.391c0.382-1.132,0.609-2.384,0.211-3.511"/>
					</g>
					<g>
						<path style="fill:#EEC1BB;" d="M618.192,181.347c0,0-3.944,3.033-9.021,7.408c-1.058,0.911-2.223,1.7-3.456,2.355
							c-3.328,1.767-4.763,1.314-5.584-0.29c-0.183-0.353-0.574-1.358-0.678-1.759c-0.698-2.686-1.758-4.375,0.414-6.103
							c2.448-1.949,3.629-3.616,3.187-6.254c-0.232-1.496-0.773-3.04-1.405-4.539l1.926-2.253l10.077-10.169
							C613.398,166.534,612.884,177.661,618.192,181.347z"/>
					</g>
					<path style="opacity:0.2;" d="M603.135,177.284c2.771-1.645,5.812-4.499,5.448-7.759c-0.163-1.373-0.458-2.674-0.787-3.507
						l-5.629,7.453C602.628,174.671,602.797,175.465,603.135,177.284z"/>
					<path style="fill:#EEC1BB;" d="M616.503,148.834c-0.948,10.353-1.131,14.744-6.474,20.173
						c-8.036,8.166-20.4,5.419-22.528-4.843c-1.916-9.237-0.043-24.616,10.121-28.967
						C607.635,130.909,617.451,138.48,616.503,148.834z"/>
					<path style="fill:#263238;" d="M603.607,152.098c-0.054,0.969-0.649,1.766-1.331,1.781c-0.681,0.014-1.189-0.76-1.135-1.729
						c0.054-0.969,0.649-1.766,1.33-1.781C603.152,150.355,603.66,151.129,603.607,152.098z"/>
					<path style="fill:#263238;" d="M592.878,151.951c-0.054,0.939-0.649,1.712-1.327,1.727c-0.679,0.014-1.185-0.735-1.131-1.675
						c0.054-0.939,0.649-1.712,1.327-1.727C592.426,150.262,592.932,151.012,592.878,151.951z"/>
					<path style="fill:#263238;" d="M601.389,146.199c0.132-0.009,0.264,0.035,0.363,0.134c1.529,1.546,3.345,1.107,3.366,1.102
						c0.269-0.066,0.532,0.097,0.581,0.371c0.048,0.274-0.133,0.551-0.406,0.621c-0.095,0.023-2.375,0.577-4.272-1.342
						c-0.189-0.191-0.179-0.515,0.023-0.722C601.141,146.262,601.265,146.207,601.389,146.199z"/>
					<path style="fill:#263238;" d="M593.291,145.736c0.123-0.026,0.253-0.007,0.361,0.066c0.224,0.149,0.273,0.465,0.112,0.704
						c-1.624,2.402-3.932,2.481-4.031,2.483c-0.276,0.006-0.488-0.217-0.475-0.5c0.013-0.282,0.248-0.515,0.523-0.522
						c0.09-0.002,1.881-0.09,3.172-2C593.037,145.843,593.161,145.764,593.291,145.736z"/>
					<path style="fill:#263238;" d="M612.092,155.329c0,0-3.195-4.829-1.878-14.232c0.221-1.576-0.777-3.069-2.339-3.373
						c-4.467-0.868-10.439-6.502-17.725,4.689c0,0,3.71-14.224,23.819-8.005c12.936,4.001,5.709,20.151,3.842,21.729
						C615.943,157.715,612.092,155.329,612.092,155.329z"/>
					<path style="fill:#EEC1BB;" d="M619.635,157.272c-1.223,2.123-3.21,3.457-5.032,3.914c-2.74,0.687-4.156-3.719-3.22-6.465
						c0.842-2.472,3.535-4.108,6.202-3.569C620.213,151.683,621.034,154.844,619.635,157.272z"/>
					<path style="fill:#D4827D;" d="M595.66,151.668c0,0-1.62,3.875-3.447,6.291c-0.319,0.422-0.122,1.038,0.375,1.221
						c1.278,0.47,2.775,0.045,2.775,0.045L595.66,151.668z"/>
				</g>
				<path style="fill:#263238;" d="M602.679,150.346l-2.376-0.561C600.303,149.784,601.602,151.556,602.679,150.346z"/>
				<path style="fill:#263238;" d="M591.991,150.301l-2.376-0.561C589.615,149.74,590.914,151.512,591.991,150.301z"/>
				<path style="fill:#263238;" d="M611.402,133.736c-9.067-6.102-18.521-0.902-18.521-0.902
					c-10.841,6.293-6.048,16.905-6.048,16.905c7.582-4.014,11.278-5.548,18.555-9.739c-1.706,2.719,1.185,6.546,4.368,9.35
					c3.183,2.804,2.254,4.036,2.254,4.036C620.62,143.962,620.469,139.839,611.402,133.736z"/>
			</g>
			<path d="M597.105,162.345c-0.071,0-0.142-0.03-0.19-0.088c-0.09-0.105-0.076-0.263,0.029-0.353
				c0.721-0.611,1.677-0.964,2.622-0.969h0.001c0.138,0,0.249,0.111,0.25,0.248c0.001,0.138-0.11,0.251-0.249,0.252
				c-0.829,0.004-1.668,0.315-2.302,0.851C597.22,162.326,597.163,162.345,597.105,162.345z"/>
			<path style="opacity:0.2;" d="M614.298,158.303c-0.118,0-0.224-0.084-0.246-0.205c-0.167-0.909-0.092-1.85,0.216-2.721
				c0.208-0.589,0.619-1.388,1.396-1.849c0.765-0.453,1.727-0.42,2.343,0.08c0.106,0.087,0.123,0.245,0.036,0.352
				c-0.088,0.108-0.245,0.122-0.352,0.036c-0.447-0.366-1.194-0.382-1.771-0.038c-0.648,0.385-1,1.075-1.181,1.586
				c-0.278,0.789-0.346,1.641-0.194,2.464c0.024,0.136-0.065,0.266-0.201,0.291C614.328,158.302,614.313,158.303,614.298,158.303z"
				/>
			<path style="fill:#D4827D;" d="M608.582,167.324l-6.44,3.119c-0.815,0.395-1.796,0.054-2.19-0.761l-0.101-0.209
				c-0.395-0.815-0.054-1.796,0.761-2.191l6.44-3.119c0.815-0.395,1.796-0.054,2.19,0.761l0.101,0.209
				C609.738,165.948,609.397,166.929,608.582,167.324z"/>
			<path style="opacity:0.2;fill:#FFFFFF;" d="M608.582,167.324l-6.44,3.119c-0.815,0.395-1.796,0.054-2.19-0.761l-0.101-0.209
				c-0.395-0.815-0.054-1.796,0.761-2.191l6.44-3.119c0.815-0.395,1.796-0.054,2.19,0.761l0.101,0.209
				C609.738,165.948,609.397,166.929,608.582,167.324z"/>
			<path style="opacity:0.2;fill:#FFFFFF;" d="M607.031,167.643l-3.677,1.781c-0.188,0.091-0.415,0.012-0.506-0.176l-0.861-1.779
				c-0.091-0.188-0.013-0.415,0.176-0.507l3.677-1.781c0.188-0.091,0.415-0.012,0.506,0.176l0.861,1.779
				C607.298,167.325,607.219,167.552,607.031,167.643z"/>
		</g>
	</g>
</g>
<g id="Character_1">
	<g>
		<polygon style="fill:#B97964;" points="240.094,192.995 253.029,187.533 259.953,194.643 248.729,202.963 		"/>
		<g>
			<g>
				<g>
					<g>
						<g>
							<g>
								<g>
									<path style="fill:#B97964;" d="M250.658,191.242c0,0-1.206-3.683,0.276-6.525c1.482-2.841,1.909-5.505,3.156-7.541
										c1.247-2.036,1.77,1.144,1.705,2.893c-0.064,1.748-0.12,3.73,1.201,3.566c1.321-0.164,10.475-7.038,12.333-7.056
										c1.857-0.019,0.724,1.556,0.724,1.556s2.268-1.61,3.151-0.885c0.229,0.188,0.457,0.998-0.462,1.893
										c-2.067,2.015-6.622,6.02-6.622,6.02c0.257-0.235,6.233-4.777,7.216-5.34c1.286-0.736,2.268-0.428,2.67,0.332
										c0.573,1.081-6.644,6.965-6.775,7.425c0,0,4.042-3.526,5.523-2.981c1.481,0.545-0.942,2.904-3.474,4.578
										c-2.321,1.534-6.472,5.152-8.982,6.483c-3.094,1.64-5.539,2.046-8.139,0.041
										C251.559,193.695,250.658,191.242,250.658,191.242z"/>
								</g>
							</g>
						</g>
					</g>
				</g>
			</g>
			<path style="opacity:0.3;" d="M264.548,182.658c-0.034,0-0.068-0.014-0.093-0.042c-0.046-0.051-0.042-0.13,0.009-0.176
				c1.652-1.489,3.393-2.919,5.175-4.252c0.056-0.04,0.134-0.031,0.175,0.025c0.041,0.055,0.03,0.133-0.025,0.175
				c-1.776,1.329-3.511,2.754-5.158,4.238C264.608,182.648,264.578,182.658,264.548,182.658z"/>
			<path style="opacity:0.3;" d="M267.709,189.128c-0.05,0-0.097-0.03-0.116-0.079c-1.046-2.645-2.909-4.996-5.245-6.619
				c-0.057-0.039-0.071-0.117-0.031-0.174c0.04-0.057,0.118-0.071,0.174-0.031c2.376,1.651,4.271,4.042,5.335,6.732
				c0.025,0.064-0.006,0.137-0.07,0.162C267.74,189.126,267.724,189.128,267.709,189.128z"/>
			<path style="opacity:0.3;" d="M255.73,191.564c-0.036,0-0.072-0.016-0.097-0.046c-0.044-0.054-0.035-0.132,0.019-0.176
				c0.884-0.715,1.52-1.765,1.745-2.879c0.224-1.115,0.044-2.329-0.494-3.33c-0.033-0.061-0.01-0.136,0.051-0.169
				c0.06-0.034,0.137-0.01,0.169,0.051c0.566,1.051,0.755,2.326,0.52,3.497c-0.236,1.171-0.904,2.273-1.833,3.024
				C255.786,191.554,255.758,191.564,255.73,191.564z"/>
		</g>
		<g>
			<path style="fill:#263238;" d="M80.868,290.419c0,0,4.178-9.826,11.829-9.352c7.651,0.473,10.326,12.269,10.326,12.269
				l-4.312-0.646c0,0-0.303-8.871-5.726-9.126c-5.423-0.255-8.998,7.615-8.998,7.615l-2.563-0.793"/>
			<polygon style="fill:#407BFF;" points="50.63,338.984 51.766,332.812 59.983,288.171 125.325,295.205 121.884,347.608 			"/>
			<polygon style="opacity:0.2;enable-background:new    ;" points="50.63,338.984 51.766,332.812 59.983,288.171 125.325,295.205 
				121.884,347.608 			"/>
			<path style="fill:#B97964;" d="M91.406,268.718c-0.877,0.488-4.984,7.852-5.704,9.861c-0.72,2.009-0.622,3.219,0.307,3.69
				c0.929,0.471,1.982,0.919,2.232,0.872c0.25-0.047-0.521,2.037,1.09,2.703c1.612,0.666,2.325,0.338,2.325,0.338
				s0.142,2.816,2.155,3.213c2.013,0.397,2.66-0.63,2.996-0.564c0.335,0.066,1.421-3.434,1.421-3.434l2.817,2.954
				c0,0,0.812-1.181,1.458-3.241c0.646-2.06-0.414-7.353-0.414-7.353l-1.891-4.555l0.404-7.123c0,0-8.448,0.431-8.475,0.63
				C92.099,266.907,91.406,268.718,91.406,268.718z"/>
			<path style="opacity:0.2;enable-background:new    ;" d="M59.983,288.171c0,0,8.756,25.927,27.154,24.453
				c18.398-1.474,38.189-17.419,38.189-17.419"/>
		</g>
		<g>
			<g>
				<g>
					<g>
						<path style="fill:#B97964;" d="M151.032,155.255c0,0,0.924-6.63-2.958-18.124c0-0.012,0.601-0.311,0.601-0.324
							c-0.536-1.608-1.096-3.09-1.62-4.374c-0.012-0.037-0.012-0.05-0.012-0.05l16.351,9.148
							c-0.212,3.739,1.437,10.873,2.366,13.876c0,0,2.136,3.856-5.172,4.415C155.249,160.231,151.032,155.255,151.032,155.255z"/>
						<path style="opacity:0.2;" d="M163.895,146.753l-9.254-1.667c0.956,2.814,3.625,6.082,10.014,6.08
							C164.654,151.166,163.88,148.004,163.895,146.753z"/>
					</g>
					<g>
						<path style="fill:#B97964;" d="M146.583,124.654c1.513,10.048,2.164,15.745,7.73,20.432c8.373,7.05,20.173,1.459,21.696-8.868
							c1.371-9.296-1.334-24.165-11.589-27.216C154.316,105.997,145.07,114.606,146.583,124.654z"/>
						<path style="fill:#263238;" d="M144.229,112.62c0.895-5.69,14.843-6.983,18.991-4.483c0.62,0.374-7.277,5.255-6.792,5.028
							l-3.772,1.689c-0.611-0.08-1.726,0.724-2.172,2.64c0,0,1.811,15.45-2.182,20.321c-3.679-1.409-4.428-7.529-5.863-11.087
							C140.301,121.43,137.6,113.629,144.229,112.62z"/>
						<path style="fill:#B97964;" d="M143.337,133.428c1.037,2.53,3.15,4.333,5.243,5.151c3.147,1.231,3.98-2.164,3.413-5.322
							c-0.51-2.842-1.655-6.258-4.961-6.14C143.774,127.234,142.151,130.536,143.337,133.428z"/>
						<path style="fill:#263238;" d="M161.301,126.293c0.091,1.034,0.714,1.818,1.39,1.752c0.676-0.066,1.15-0.958,1.059-1.992
							c-0.091-1.034-0.714-1.818-1.389-1.752C161.684,124.367,161.21,125.259,161.301,126.293z"/>
						<path style="fill:#263238;" d="M171.458,125.599c0.091,1.034,0.713,1.818,1.389,1.752c0.676-0.066,1.15-0.958,1.059-1.992
							c-0.091-1.034-0.713-1.818-1.389-1.752C171.841,123.674,171.367,124.565,171.458,125.599z"/>
						<path style="fill:#A24E3F;" d="M168.109,125.317c0,0,3.726,4.848,4.96,6.847c-1.324,1.427-3.856,1.047-3.856,1.047
							L168.109,125.317z"/>
						<path style="fill:#263238;" d="M158.343,121.644c0.162,0.05,0.346,0.014,0.48-0.111c1.591-1.484,3.336-1.087,3.353-1.083
							c0.261,0.062,0.525-0.098,0.59-0.357c0.065-0.26-0.095-0.521-0.354-0.584c-0.092-0.022-2.278-0.521-4.252,1.321
							c-0.197,0.184-0.208,0.49-0.026,0.685C158.194,121.577,158.266,121.62,158.343,121.644z"/>
						<path style="fill:#263238;" d="M165.655,137.202c-1.746,0-3.113-0.898-4.234-1.8c-0.161-0.13-0.187-0.366-0.057-0.527
							c0.13-0.16,0.367-0.186,0.527-0.057c1.568,1.262,2.823,1.744,4.188,1.614c0.205-0.027,0.39,0.13,0.409,0.337
							c0.02,0.206-0.131,0.39-0.337,0.409C165.983,137.194,165.817,137.202,165.655,137.202z"/>
					</g>
					<path style="opacity:0.2;" d="M150.278,133.299c-0.116,0-0.22-0.081-0.245-0.2c-0.167-0.82-0.548-1.586-1.101-2.213
						c-0.358-0.407-0.942-0.917-1.687-1.031c-0.664-0.1-1.349,0.191-1.629,0.697c-0.067,0.121-0.219,0.163-0.34,0.098
						c-0.121-0.067-0.165-0.219-0.098-0.34c0.384-0.694,1.266-1.083,2.143-0.949c0.893,0.138,1.572,0.726,1.985,1.195
						c0.61,0.692,1.031,1.538,1.216,2.444c0.027,0.135-0.06,0.267-0.195,0.295C150.311,133.298,150.294,133.299,150.278,133.299z"/>
				</g>
				<path style="fill:#263238;" d="M175.546,120.841c0.088-0.027,0.17-0.08,0.233-0.158c0.17-0.209,0.142-0.516-0.064-0.686
					c-2.067-1.705-4.195-1.03-4.295-1.012c-0.255,0.083-0.398,0.357-0.318,0.613c0.079,0.255,0.348,0.396,0.602,0.317
					c0.088-0.032,1.734-0.531,3.393,0.838C175.227,120.86,175.396,120.887,175.546,120.841z"/>
			</g>
			<g>
				<path style="fill:#263238;" d="M141.769,108.411c0.591-2.32,3.493-3.032,5.754-2.728c-0.303-2.761,3.187-4.618,5.462-4.706
					c2.37-0.092,3.286,0.793,3.286,0.793c-0.18,0.051,0.618-1.423,1.135-2.022c1.908-2.211,5.108-3.066,7.785-2.08
					c2.677,0.987,4.674,3.757,4.858,6.74c1.361-1.6,3.994-1.728,5.489-0.267c1.495,1.461,1.572,4.237,0.16,5.788
					c1.743-0.016,3.322,1.71,3.243,3.545c-0.079,1.835-1.801,3.403-3.535,3.22c0.04,2.056,0.001,4.629,0.041,6.685l-3.262-7.338
					c-1.444-0.402-1.757-1.026-2.15-2.545c-0.899,2.007-2.535,1.964-4.639,2.031c-2.105,0.067-4.2-1.195-5.212-3.141
					c-0.946,2.096-2.9,3.774-5.101,3.877c-2.201,0.102-4.457-1.681-4.609-3.997c-1.159,2.068-3.848,3.006-5.949,2.076
					C142.423,113.412,141.178,110.731,141.769,108.411z"/>
			</g>
			<path style="opacity:0.3;fill:#FFFFFF;" d="M140.769,122.033l9.82-3.489c0.137,1.293,0.222,2.588,0.25,3.886l-8.892,3.05
				C141.477,124.272,141.061,123.106,140.769,122.033z"/>
		</g>
		<polygon style="fill:#FFFFFF;" points="245.27,189.817 249.079,188.039 253.871,200.694 249.57,202.169 		"/>
		<g>
			<g>
				<g>
					<g>
						<g>
							<polygon style="fill:#B97964;" points="203.453,425.761 212.168,449.283 220.067,446.73 217.342,421.903 							"/>
						</g>
					</g>
				</g>
			</g>
			<g>
				<g>
					<g>
						<g>
							<g>
								<g>
									<g>
										<g>
											<g>
												<g>
													<g>
														<g>
															<path style="fill:#263238;" d="M211.316,459.178l7.162-0.053c0,0,1.442-0.781,2.294-0.685
																c0.848,0.098,3.802,0.638,3.802,0.638l19.019-0.143c-0.158-0.796-0.351-1.504-0.57-2.132
																c-0.266-0.766-0.574-1.413-0.915-1.961c-1.193-1.914-2.806-2.586-4.555-2.683
																c-2.664-0.147-11.088-5.678-11.088-5.678s-3.048-1.04-3.238-4.276c-0.072-1.213-1.874-2.681-2.728-2.796
																c-1.741-0.238-2.7,0.871-2.94,2.611l-0.277,2.022l-4.022-0.596c0,0-4.102-2.026-3.889-0.03
																c0.122,1.14,0.847,6.213,1.308,10.239c0.108,0.938,0.209,1.826,0.298,2.605l0.002,0.001
																C211.179,457.99,211.316,459.178,211.316,459.178z"/>
														</g>
													</g>
												</g>
											</g>
										</g>
									</g>
									<g style="opacity:0.2;">
										<path style="fill:#FFFFFF;" d="M243.593,458.935l-19.019,0.143c0,0-2.954-0.54-3.802-0.638
											c-0.851-0.096-2.293,0.685-2.293,0.685l-7.163,0.053c0,0-0.137-1.188-0.335-2.917l32.042,0.541
											C243.242,457.431,243.435,458.139,243.593,458.935z"/>
									</g>
									<g>
										<g>
											<g>
												<g>
													<path style="fill:#407BFF;" d="M230.655,448.525c-0.089-0.086-0.225-0.094-0.327-0.025
														c-0.469,0.317-0.862,0.762-1.127,1.318c-0.14,0.293,0.289,0.572,0.43,0.276c0.236-0.494,0.579-0.888,0.988-1.165
														c0.137-0.093,0.158-0.285,0.039-0.4C230.657,448.528,230.656,448.526,230.655,448.525z"/>
												</g>
											</g>
										</g>
									</g>
									<g>
										<g>
											<g>
												<g>
													<path style="fill:#407BFF;" d="M229.135,447.645c-0.089-0.086-0.225-0.094-0.327-0.025
														c-0.469,0.317-0.862,0.762-1.127,1.318c-0.14,0.293,0.289,0.572,0.43,0.276c0.236-0.494,0.579-0.888,0.989-1.165
														c0.137-0.093,0.158-0.285,0.039-0.4C229.138,447.648,229.136,447.647,229.135,447.645z"/>
												</g>
											</g>
										</g>
									</g>
									<g>
										<g>
											<g>
												<g>
													<path style="fill:#407BFF;" d="M227.568,446.825c-0.089-0.086-0.225-0.094-0.327-0.025
														c-0.469,0.317-0.862,0.762-1.127,1.318c-0.14,0.293,0.289,0.572,0.43,0.276c0.235-0.494,0.579-0.888,0.989-1.165
														c0.137-0.093,0.158-0.285,0.039-0.4C227.571,446.828,227.57,446.826,227.568,446.825z"/>
												</g>
											</g>
										</g>
									</g>
								</g>
							</g>
						</g>
					</g>
				</g>
			</g>
		</g>
		<g>
			<g>
				<g>
					<g>
						<g>
							<polygon style="fill:#B97964;" points="146.577,422.662 143.088,448.26 134.746,448.682 132.044,424.005 							"/>
						</g>
					</g>
				</g>
			</g>
			<g>
				<g>
					<g>
						<path style="fill:#263238;" d="M127.643,460.145h18.66c0,0,0.407-0.784-0.058-2.87c-0.071-0.325-0.164-0.682-0.284-1.072
							c-0.006-0.02-0.011-0.039-0.017-0.058c-0.174-0.577-0.375-1.288-0.588-2.054c-0.855-3.124-1.86-7.206-1.86-7.206
							s-3.105-6.646-6.737-4.987c-3.187,1.456-2.431,5.622-2.431,5.622s-0.312,2.446-2.728,4.603
							c-1.494,1.333-2.98,2.364-3.695,4.022c-0.134,0.31-0.239,0.639-0.314,0.997c-0.008,0.043-0.017,0.088-0.024,0.133
							C127.419,458.073,127.427,459.01,127.643,460.145z"/>
					</g>
				</g>
			</g>
			<g style="opacity:0.2;">
				<path style="fill:#FFFFFF;" d="M146.245,457.275c0.465,2.086,0.058,2.87,0.058,2.87h-18.66c-0.215-1.135-0.224-2.071-0.075-2.87
					H146.245z"/>
			</g>
			<g>
				<g>
					<g>
						<g>
							<path style="fill:#407BFF;" d="M135.079,448.566c1.049-0.818,2.427-0.712,3.371,0.209c0.254,0.247,0.644-0.142,0.389-0.389
								c-1.178-1.149-2.86-1.213-4.149-0.209C134.41,448.394,134.803,448.781,135.079,448.566L135.079,448.566z"/>
						</g>
					</g>
				</g>
			</g>
			<g>
				<g>
					<g>
						<g>
							<path style="fill:#407BFF;" d="M134.552,450.308c1.05-0.818,2.427-0.712,3.371,0.209c0.254,0.248,0.644-0.141,0.389-0.389
								c-1.178-1.149-2.86-1.213-4.149-0.209C133.884,450.136,134.276,450.524,134.552,450.308L134.552,450.308z"/>
						</g>
					</g>
				</g>
			</g>
			<g>
				<g>
					<g>
						<g>
							<path style="fill:#407BFF;" d="M134.023,451.911c1.05-0.818,2.427-0.712,3.371,0.209c0.254,0.248,0.644-0.141,0.389-0.389
								c-1.178-1.149-2.86-1.213-4.149-0.209C133.355,451.739,133.747,452.126,134.023,451.911L134.023,451.911z"/>
						</g>
					</g>
				</g>
			</g>
		</g>
		<g>
			<g>
				<g>
					<g>
						<path style="fill:#407BFF;" d="M127.295,260.293l40.281,0.341l23.429-4.1c0,0,18.312,77.585,19.772,91.564
							s14.018,87.586,14.018,87.586l-19.066,4.186c0,0-21.676-78.702-23.24-86.265c-1.363-6.592-16.425-48.852-20.272-59.597
							c-0.387,2.201-0.784,4.411-1.189,6.604c-0.973,9.908-4.093,41.496-5.451,53.251c0,0-2.951,67.148-6.377,86.648l-17.942,0.031
							c-2.368-27.682-3.888-124.915-3.888-124.915l0.003-0.002C126.047,294.506,127.295,260.293,127.295,260.293z"/>
					</g>
				</g>
				<g style="opacity:0.5;">
					<path d="M182.039,270.99c2.279,7.488,8.37,13.503,15.885,15.691c0.405,0.118,0.233,0.753-0.175,0.634
						c-7.737-2.252-13.999-8.441-16.344-16.15C181.281,270.759,181.916,270.586,182.039,270.99L182.039,270.99z"/>
					<path d="M161.577,270.988c0.444,6.552,0.877,13.113,1.321,19.665c0.021,0.423,0.676,0.423,0.655,0
						c-0.232-3.36-0.454-6.731-0.676-10.102c1.617,1.247,3.508-0.264,4.037-1.934c0.866-2.705,0.539-5.918-0.137-8.623
						c-0.106-0.412-0.74-0.233-0.634,0.169c0.475,1.902,0.676,3.846,0.539,5.801c-0.063,0.993-0.159,2.134-0.623,3.043
						c-0.518,1.014-1.828,1.87-2.874,0.951c-0.116-0.095-0.243-0.106-0.349-0.053c-0.201-2.969-0.402-5.949-0.602-8.918
						C162.211,270.566,161.556,270.566,161.577,270.988z"/>
					<path d="M142.312,272.105c0.092,8.685-6.593,15.958-15.238,16.64c-0.414,0.033-0.412-0.613,0-0.646
						c8.296-0.655,14.681-7.684,14.592-15.995C141.661,271.689,142.307,271.689,142.312,272.105L142.312,272.105z"/>
				</g>
			</g>
			
				<rect x="174.039" y="262.119" transform="matrix(0.9958 -0.0915 0.0915 0.9958 -23.5007 17.6717)" style="opacity:0.6;" width="13.871" height="6.025"/>
			
				<rect x="143.873" y="264.668" transform="matrix(0.9992 -0.0396 0.0396 0.9992 -10.4727 6.1763)" style="opacity:0.6;" width="13.871" height="6.025"/>
			
				<rect x="158.784" y="263.648" transform="matrix(0.9958 -0.0915 0.0915 0.9958 -23.7045 16.2822)" style="opacity:0.6;" width="13.871" height="6.025"/>
		</g>
		<g>
			<path style="fill:#FFFFFF;" d="M176.34,157.189c-5.481-0.341-28.081-0.734-50.456,3.756l5.204,75.113
				c0,0,0.401,8.611-1.044,20.012c23.401,9.044,47.881,7.17,62.787-2.118c0-0.115,0.325-0.074-1.132-13.797
				c-2.567-24.183-5.355-58.728-9.345-80.477C182.248,159.141,176.886,157.223,176.34,157.189z"/>
		</g>
		<polygon style="fill:#FFFFFF;" points="89.555,265.815 89.113,269.987 103.205,270.793 104.138,266.966 		"/>
		<g>
			<path style="fill:#263238;" d="M153.394,203.243c-1.289-22.501-8.264-48.971-8.264-48.971
				c-18.145,5.405-22.537,6.921-22.537,6.921s1.957,20.245,2.125,37.706c0,5.611,5.326,32.27,5.326,36.28l-8.102,47.139
				c0.182,3.773,24.513,2.408,33.595,1.42C158.607,283.348,154.683,225.745,153.394,203.243z"/>
			<path style="fill:#263238;" d="M167.171,154.506c0,0,10.526,24.089,11.296,61.266c0.771,37.177,1.64,64.287,1.64,64.287
				s17.2,1.747,18.98-1.664c0.981-1.866-5.329-38.872-5.329-38.872s-4.697-75.228-6.169-79.433
				C187.59,160.09,166.8,154.42,167.171,154.506z"/>
			<path style="fill:#263238;" d="M151.652,147.712l-8.442,6.56l-0.519,11.924c-0.17,3.919,1.063,7.77,3.482,10.87l1.755,2.249
				l-3.126,2.689c-0.989,0.851-1.353,2.216-0.918,3.441l9.79,27.599l0,0c-0.196-7.254,0.364-20.315-2.397-39.461
				C150.245,166.056,150.814,155.266,151.652,147.712z"/>
			<path style="fill:#263238;" d="M165.153,154.273c0,0,3.658,3.356,5.788,11.306c2.13,7.951,7.33,42.928,7.442,47.342l0.438-0.359
				l3.533-30.359c-0.217-1.49-1.067-2.816-2.334-3.642l-3.402-2.218l0,0c2.338-3.386,2.877-7.684,1.456-11.539
				c-1.373-3.726-3.076-7.937-4.123-9.039c-2.326-2.258-6.69-4.565-9.628-6.11L165.153,154.273z"/>
			<g>
				<polygon style="fill:#263238;" points="115.65,218.811 115.65,218.88 115.77,218.588 115.762,218.602 				"/>
			</g>
			<polygon style="fill:#407BFF;" points="158.4,165.257 161.113,169.331 164.67,169.143 165.643,164.451 161.364,159.876 			"/>
			<polygon style="opacity:0.2;" points="161.113,169.331 157.787,244.953 168.14,256.07 173.431,244.208 163.617,169.764 			"/>
			<polygon style="fill:#407BFF;" points="161.113,169.331 160.588,244.847 168.14,256.07 174.596,244.208 164.689,169.052 			"/>
			<path style="opacity:0.1;fill:#FFFFFF;enable-background:new    ;" d="M151.652,147.712l-8.442,6.56l-0.519,11.924
				c-0.17,3.919,1.063,7.77,3.482,10.87l1.755,2.249l-3.126,2.689c-0.989,0.851-1.353,2.216-0.918,3.441l9.79,27.599l0,0
				c-0.196-7.254,0.364-20.315-2.397-39.461C150.245,166.056,150.814,155.266,151.652,147.712z"/>
			<path style="opacity:0.1;fill:#FFFFFF;enable-background:new    ;" d="M165.153,154.273c0,0,3.658,3.356,5.788,11.306
				c2.13,7.951,7.33,42.928,7.442,47.342l0.438-0.359l3.533-30.359c-0.217-1.49-1.067-2.816-2.334-3.642l-3.402-2.218l0,0
				c2.338-3.386,2.877-7.684,1.456-11.539c-1.373-3.726-3.076-7.937-4.123-9.039c-2.326-2.258-6.69-4.565-9.628-6.11
				L165.153,154.273z"/>
			<path style="fill:#263238;" d="M130.044,190.79c-1.902,4.625-12.699,31.315-13.555,32.956l-10.968,43.421l-16.408-1.294
				l8.732-49.223l16.345-43.119c0,0,4.557-11.684,9.373-12.682L130.044,190.79z"/>
		</g>
		<path style="fill:#263238;" d="M187.59,160.09c0,0,4.566,2.281,6.686,8.446c2.12,6.165,21.023,28.615,21.023,28.615l30.094-9.235
			c0,0.57,5.608,14.749,5.608,14.749s-26.678,17.068-35.995,16.878c-9.317-0.19-25.233-21.251-25.233-21.251L187.59,160.09z"/>
		<path style="opacity:0.2;" d="M150.731,165.343l6.422,3.987l4.423-7.963l4.929,5.77l0.858-8.404c0,0-2.442,4.685-2.511,4.479
			c-0.069-0.207-3.237-3.122-3.237-3.122l-5.923,3.811c0,0-4.938-2.903-4.939-2.846
			C150.753,161.112,150.731,165.343,150.731,165.343z"/>
		<path style="fill:#FFFFFF;" d="M150.964,150.007l10.416,9.197l2.936-9.549l3.276,7.842l-1.506,8.148l-4.723-5.769
			c0,0-4.329,7.782-4.68,7.934c-0.351,0.152-5.947-5.851-5.947-5.851L150.964,150.007z"/>
		<path style="opacity:0.2;enable-background:new    ;" d="M215.299,197.151c0,0,0.225,3.982-0.905,7.128
			c0,0,3.017-3.208,3.681-7.98L215.299,197.151z"/>
	</g>
</g>
</svg>
