<?xml version="1.0" encoding="utf-8"?>
<!-- Generator: Adobe Illustrator 27.5.0, SVG Export Plug-In . SVG Version: 6.00 Build 0)  -->
<svg version="1.1" xmlns="http://www.w3.org/2000/svg" xmlns:xlink="http://www.w3.org/1999/xlink" x="0px" y="0px"
	 viewBox="0 0 500 500" style="enable-background:new 0 0 500 500;" xml:space="preserve">
<g id="Background_Complete">
	<g>
		<rect y="382.398" style="fill:#EBEBEB;" width="500" height="0.25"/>
		<rect x="416.779" y="398.494" style="fill:#EBEBEB;" width="33.122" height="0.25"/>
		<rect x="322.527" y="401.208" style="fill:#EBEBEB;" width="8.693" height="0.25"/>
		<rect x="396.586" y="389.208" style="fill:#EBEBEB;" width="19.192" height="0.25"/>
		<rect x="52.459" y="390.888" style="fill:#EBEBEB;" width="43.193" height="0.25"/>
		<rect x="104.556" y="390.888" style="fill:#EBEBEB;" width="6.333" height="0.25"/>
		<rect x="131.471" y="395.111" style="fill:#EBEBEB;" width="93.676" height="0.25"/>
		<path style="fill:#EBEBEB;" d="M237.014,337.8H43.915c-3.147,0-5.708-2.561-5.708-5.708V60.66c0-3.147,2.561-5.708,5.708-5.708
			h193.099c3.146,0,5.707,2.561,5.707,5.708v271.432C242.721,335.239,240.16,337.8,237.014,337.8z M43.915,55.203
			c-3.01,0-5.458,2.448-5.458,5.458v271.432c0,3.01,2.448,5.458,5.458,5.458h193.099c3.009,0,5.457-2.448,5.457-5.458V60.66
			c0-3.009-2.448-5.458-5.457-5.458H43.915z"/>
		<path style="fill:#EBEBEB;" d="M453.31,337.8H260.212c-3.147,0-5.707-2.561-5.707-5.708V60.66c0-3.147,2.561-5.708,5.707-5.708
			H453.31c3.148,0,5.708,2.561,5.708,5.708v271.432C459.019,335.239,456.458,337.8,453.31,337.8z M260.212,55.203
			c-3.009,0-5.457,2.448-5.457,5.458v271.432c0,3.01,2.448,5.458,5.457,5.458H453.31c3.01,0,5.458-2.448,5.458-5.458V60.66
			c0-3.009-2.448-5.458-5.458-5.458H260.212z"/>
	</g>
	<g>
		<circle style="fill:#FAFAFA;" cx="144.028" cy="90.754" r="27.787"/>
		<path style="fill:#F0F0F0;" d="M129.613,90.441c0-2.668-2.163-4.83-4.83-4.83c-0.482,0-0.947,0.073-1.387,0.204
			c0.07-0.484,0.108-0.979,0.108-1.483c0-5.649-4.58-10.229-10.229-10.229c-0.644,0-1.273,0.062-1.884,0.176
			c-1.572-2.573-4.398-4.296-7.634-4.296c-4.898,0-8.871,3.935-8.944,8.816c-0.05-0.001-0.099-0.007-0.149-0.007
			c-4.551,0-8.24,3.689-8.24,8.24c0,4.551,3.689,8.24,8.24,8.24h30.261l-0.006-0.007C127.523,95.191,129.613,93.063,129.613,90.441z
			"/>
		<path style="fill:#F0F0F0;" d="M416.848,147.498c0-2.668-2.163-4.83-4.83-4.83c-0.482,0-0.947,0.073-1.387,0.204
			c0.07-0.484,0.108-0.979,0.108-1.483c0-5.649-4.58-10.229-10.229-10.229c-0.644,0-1.273,0.062-1.884,0.176
			c-1.572-2.573-4.398-4.296-7.634-4.296c-4.898,0-8.871,3.935-8.944,8.816c-0.05-0.001-0.099-0.008-0.149-0.008
			c-4.551,0-8.24,3.689-8.24,8.24c0,4.551,3.689,8.24,8.24,8.24h30.26l-0.006-0.007C414.758,152.249,416.848,150.12,416.848,147.498
			z"/>
		<path style="fill:#F0F0F0;" d="M310.024,90.441c0-2.668,2.163-4.83,4.83-4.83c0.482,0,0.947,0.073,1.387,0.204
			c-0.07-0.484-0.108-0.979-0.108-1.483c0-5.649,4.58-10.229,10.229-10.229c0.644,0,1.273,0.062,1.884,0.176
			c1.572-2.573,4.398-4.296,7.634-4.296c4.898,0,8.871,3.935,8.944,8.816c0.05-0.001,0.099-0.007,0.149-0.007
			c4.551,0,8.24,3.689,8.24,8.24c0,4.551-3.689,8.24-8.24,8.24h-30.261l0.006-0.007C312.114,95.191,310.024,93.063,310.024,90.441z"
			/>
		<path style="fill:#F0F0F0;" d="M190.222,104.912c0-1.659-1.345-3.003-3.003-3.003c-0.3,0-0.589,0.045-0.862,0.127
			c0.044-0.301,0.067-0.609,0.067-0.922c0-3.512-2.847-6.359-6.359-6.359c-0.4,0-0.792,0.039-1.171,0.109
			c-0.977-1.6-2.735-2.671-4.746-2.671c-3.045,0-5.515,2.447-5.56,5.481c-0.031-0.001-0.061-0.005-0.093-0.005
			c-2.829,0-5.123,2.294-5.123,5.123s2.294,5.123,5.123,5.123h18.813l-0.004-0.004C188.922,107.866,190.222,106.542,190.222,104.912
			z"/>
		<path style="fill:#F0F0F0;" d="M280.636,167.982c0-1.659,1.345-3.003,3.003-3.003c0.3,0,0.589,0.045,0.862,0.127
			c-0.044-0.301-0.067-0.609-0.067-0.922c0-3.512,2.847-6.359,6.359-6.359c0.4,0,0.792,0.039,1.171,0.109
			c0.977-1.6,2.734-2.671,4.746-2.671c3.045,0,5.515,2.447,5.56,5.481c0.031-0.001,0.061-0.005,0.093-0.005
			c2.829,0,5.123,2.294,5.123,5.123s-2.293,5.123-5.123,5.123h-18.813l0.004-0.004C281.935,170.936,280.636,169.612,280.636,167.982
			z"/>
		<g>
			<path style="fill:#EBEBEB;" d="M43.363,214.614c-0.152-0.551-0.243-1.182-0.284-1.878c-0.231-3.894-3.949-3.277-7.112-3.806
				c-2.471-0.413,4.072-6.655-0.91-8.669c-0.925-0.374-1.931-0.797-2.404-1.676c-0.626-1.162,0.007-2.692,1.085-3.454
				c1.078-0.762,2.463-0.924,3.783-0.948c0.813-0.988,0.152-2.475-0.635-3.484c-0.786-1.009-1.75-2.157-1.452-3.401
				c0.45-1.879,3.075-1.946,4.972-1.581c0.701-1.135,0.687-2.554,1.027-3.844s1.366-2.644,2.69-2.482
				c1.248,0.152,2.01,1.561,3.233,1.849c1.421,0.335,2.651-0.921,3.765-1.864c1.114-0.942,3.063-1.531,3.831-0.289
				c0.459,0.743,0.184,1.779,0.662,2.511c0.828,1.268,2.79,0.481,4.009-0.418c1.219-0.899,3.16-1.714,4.017-0.465
				c0.263,0.382,0.32,0.864,0.472,1.303c0.576,1.664,2.375,2.492,3.775,3.559c1.401,1.067,2.51,3.189,1.325,4.491
				c-0.585,0.642-1.613,0.903-1.904,1.721c-0.363,1.023,0.682,1.94,1.509,2.643c1.377,1.171,1.626,4.675-0.194,5.633
				c-0.764,0.402-1.885,0.526-2.072,1.369c-0.168,0.754,0.597,1.34,1.105,1.921c1.396,1.596,0.805,4.469-1.107,5.385
				c-0.437,0.209-0.974,0.381-1.136,0.838c-0.116,0.327,0.011,0.683,0.104,1.017c0.177,0.632,0.237,1.297,0.175,1.95
				c-0.021,0.224-0.067,0.466-0.237,0.612c-0.155,0.133-0.373,0.153-0.577,0.162c-2.628,0.117-3.896-0.813-5.501,1.474
				c-0.154,0.22-0.316,0.446-0.547,0.581c-0.217,0.127-0.475,0.16-0.725,0.181c-1.807,0.149-2.988-0.979-4.639-1.189
				c-2.291-0.292-2.777,0.889-4.795,1.838C45.498,217.696,43.959,216.777,43.363,214.614z"/>
			<path style="fill:#EBEBEB;" d="M73.634,211.343c-0.152-0.551-0.243-1.182-0.284-1.878c-0.231-3.894-3.949-3.277-7.112-3.806
				c-2.471-0.413,4.072-6.655-0.91-8.669c-0.925-0.374-1.931-0.797-2.404-1.676c-0.626-1.162,0.007-2.692,1.085-3.454
				c1.078-0.762,2.463-0.924,3.783-0.949c0.813-0.988,0.152-2.475-0.635-3.484c-0.786-1.009-1.75-2.157-1.452-3.401
				c0.45-1.878,3.075-1.946,4.972-1.581c0.701-1.135,0.687-2.554,1.027-3.844c0.34-1.29,1.366-2.644,2.69-2.482
				c1.247,0.152,2.01,1.56,3.233,1.849c1.421,0.335,2.651-0.922,3.765-1.864c1.114-0.942,3.063-1.531,3.831-0.289
				c0.46,0.743,0.184,1.779,0.662,2.511c0.828,1.268,2.79,0.481,4.009-0.418c1.219-0.899,3.16-1.714,4.017-0.465
				c0.263,0.382,0.32,0.864,0.472,1.303c0.576,1.664,2.375,2.492,3.775,3.559c1.401,1.067,2.51,3.189,1.325,4.491
				c-0.585,0.642-1.613,0.903-1.904,1.721c-0.363,1.023,0.682,1.939,1.509,2.643c1.377,1.171,1.626,4.675-0.194,5.633
				c-0.764,0.402-1.885,0.526-2.072,1.369c-0.168,0.754,0.597,1.34,1.105,1.921c1.396,1.596,0.805,4.469-1.107,5.386
				c-0.437,0.209-0.974,0.381-1.136,0.838c-0.116,0.327,0.011,0.683,0.104,1.017c0.177,0.632,0.237,1.297,0.175,1.95
				c-0.021,0.223-0.067,0.466-0.237,0.612c-0.155,0.133-0.373,0.153-0.577,0.163c-2.629,0.117-3.896-0.813-5.501,1.474
				c-0.154,0.22-0.315,0.446-0.547,0.581c-0.217,0.127-0.475,0.16-0.725,0.181c-1.807,0.149-2.988-0.979-4.639-1.189
				c-2.291-0.292-2.776,0.889-4.795,1.838C75.769,214.425,74.23,213.506,73.634,211.343z"/>
			<path style="fill:#EBEBEB;" d="M76.551,192.065c-0.152-0.551-0.243-1.182-0.284-1.878c-0.231-3.894-3.949-3.277-7.112-3.806
				c-2.471-0.413,4.072-6.655-0.91-8.669c-0.925-0.374-1.931-0.797-2.404-1.676c-0.626-1.162,0.007-2.692,1.085-3.454
				c1.078-0.762,2.463-0.924,3.783-0.949c0.813-0.988,0.152-2.475-0.635-3.484c-0.786-1.009-1.75-2.157-1.451-3.401
				c0.45-1.879,3.075-1.946,4.972-1.581c0.701-1.135,0.687-2.554,1.027-3.844c0.34-1.29,1.366-2.644,2.69-2.482
				c1.247,0.152,2.01,1.56,3.233,1.849c1.421,0.335,2.651-0.922,3.765-1.864c1.114-0.943,3.063-1.531,3.831-0.289
				c0.46,0.743,0.184,1.779,0.662,2.511c0.828,1.268,2.79,0.481,4.009-0.418c1.219-0.899,3.16-1.714,4.017-0.465
				c0.263,0.382,0.32,0.864,0.472,1.303c0.576,1.664,2.375,2.492,3.775,3.559c1.401,1.067,2.51,3.189,1.325,4.491
				c-0.585,0.642-1.613,0.903-1.904,1.721c-0.363,1.023,0.682,1.939,1.509,2.643c1.377,1.171,1.626,4.675-0.194,5.633
				c-0.764,0.402-1.885,0.526-2.072,1.369c-0.168,0.754,0.597,1.34,1.105,1.921c1.396,1.596,0.805,4.47-1.107,5.386
				c-0.437,0.209-0.974,0.381-1.136,0.838c-0.116,0.327,0.011,0.683,0.104,1.017c0.178,0.632,0.237,1.297,0.175,1.95
				c-0.021,0.223-0.067,0.466-0.237,0.612c-0.155,0.133-0.373,0.153-0.577,0.162c-2.628,0.117-3.896-0.813-5.501,1.474
				c-0.154,0.22-0.316,0.446-0.547,0.581c-0.217,0.127-0.475,0.16-0.725,0.181c-1.807,0.149-2.988-0.979-4.639-1.189
				c-2.291-0.292-2.776,0.889-4.795,1.838C78.686,195.148,77.147,194.228,76.551,192.065z"/>
			<path style="fill:#EBEBEB;" d="M96.492,201.667c-0.152-0.551-0.243-1.182-0.284-1.878c-0.231-3.894-3.949-3.277-7.112-3.806
				c-2.471-0.413,4.072-6.655-0.91-8.669c-0.925-0.374-1.931-0.797-2.404-1.676c-0.626-1.162,0.007-2.692,1.085-3.455
				c1.078-0.762,2.463-0.924,3.783-0.948c0.813-0.988,0.152-2.475-0.635-3.484s-1.75-2.157-1.452-3.401
				c0.45-1.879,3.075-1.946,4.972-1.581c0.701-1.135,0.687-2.554,1.027-3.844c0.34-1.29,1.366-2.644,2.69-2.482
				c1.247,0.152,2.01,1.561,3.233,1.849c1.421,0.335,2.651-0.922,3.765-1.864c1.114-0.942,3.063-1.531,3.831-0.289
				c0.459,0.743,0.184,1.779,0.662,2.511c0.828,1.268,2.791,0.481,4.009-0.418c1.219-0.899,3.16-1.714,4.017-0.465
				c0.263,0.382,0.32,0.864,0.472,1.303c0.576,1.664,2.375,2.492,3.775,3.559c1.401,1.067,2.51,3.189,1.325,4.491
				c-0.585,0.642-1.613,0.902-1.904,1.721c-0.363,1.023,0.682,1.94,1.509,2.643c1.377,1.171,1.626,4.675-0.194,5.633
				c-0.764,0.402-1.885,0.526-2.072,1.369c-0.168,0.754,0.597,1.34,1.105,1.921c1.396,1.596,0.805,4.469-1.107,5.385
				c-0.437,0.209-0.974,0.381-1.136,0.838c-0.116,0.327,0.011,0.683,0.104,1.017c0.177,0.632,0.237,1.297,0.175,1.95
				c-0.021,0.224-0.067,0.466-0.237,0.612c-0.155,0.133-0.373,0.153-0.577,0.162c-2.629,0.117-3.896-0.813-5.501,1.474
				c-0.154,0.22-0.315,0.446-0.547,0.581c-0.217,0.126-0.475,0.16-0.725,0.181c-1.807,0.149-2.988-0.979-4.639-1.189
				c-2.291-0.292-2.777,0.889-4.795,1.838C98.627,204.75,97.088,203.83,96.492,201.667z"/>
			<path style="fill:#EBEBEB;" d="M116.645,197.232c-0.152-0.551-0.243-1.182-0.284-1.878c-0.231-3.894-3.949-3.277-7.112-3.806
				c-2.471-0.413,4.072-6.655-0.91-8.669c-0.925-0.374-1.931-0.797-2.404-1.676c-0.626-1.162,0.007-2.692,1.085-3.455
				c1.078-0.762,2.463-0.924,3.783-0.948c0.813-0.988,0.152-2.475-0.635-3.484c-0.786-1.009-1.75-2.157-1.452-3.401
				c0.45-1.879,3.075-1.946,4.972-1.581c0.701-1.135,0.687-2.554,1.027-3.844c0.34-1.29,1.366-2.644,2.69-2.482
				c1.248,0.152,2.01,1.561,3.233,1.849c1.421,0.335,2.651-0.922,3.765-1.864c1.114-0.943,3.063-1.531,3.831-0.289
				c0.459,0.743,0.184,1.779,0.662,2.511c0.828,1.268,2.79,0.481,4.009-0.418c1.219-0.899,3.16-1.714,4.017-0.465
				c0.263,0.382,0.32,0.864,0.472,1.303c0.576,1.664,2.375,2.492,3.775,3.559c1.4,1.067,2.51,3.189,1.325,4.491
				c-0.585,0.642-1.613,0.902-1.904,1.721c-0.363,1.023,0.682,1.94,1.509,2.643c1.377,1.171,1.626,4.675-0.194,5.633
				c-0.764,0.402-1.885,0.526-2.072,1.369c-0.168,0.754,0.597,1.34,1.105,1.921c1.396,1.596,0.805,4.469-1.107,5.386
				c-0.437,0.209-0.974,0.381-1.136,0.838c-0.116,0.327,0.011,0.683,0.104,1.017c0.177,0.632,0.237,1.297,0.175,1.95
				c-0.021,0.223-0.067,0.466-0.237,0.612c-0.154,0.133-0.373,0.153-0.577,0.162c-2.628,0.117-3.896-0.813-5.501,1.474
				c-0.154,0.22-0.316,0.446-0.547,0.581c-0.217,0.127-0.475,0.16-0.725,0.181c-1.807,0.149-2.988-0.979-4.639-1.189
				c-2.291-0.292-2.776,0.889-4.795,1.838C118.78,200.315,117.241,199.395,116.645,197.232z"/>
			<path style="fill:#EBEBEB;" d="M116.908,218.79c-0.12-0.434-0.191-0.931-0.223-1.478c-0.182-3.066-3.11-2.581-5.6-2.997
				c-1.946-0.325,3.206-5.24-0.717-6.826c-0.729-0.295-1.521-0.628-1.893-1.32c-0.493-0.915,0.006-2.12,0.854-2.72
				c0.849-0.6,1.939-0.727,2.978-0.747c0.64-0.778,0.119-1.949-0.5-2.743c-0.619-0.794-1.378-1.698-1.143-2.678
				c0.354-1.479,2.422-1.532,3.915-1.245c0.552-0.894,0.541-2.011,0.809-3.027c0.268-1.016,1.076-2.082,2.118-1.955
				c0.982,0.12,1.582,1.229,2.546,1.456c1.119,0.264,2.087-0.726,2.965-1.468c0.877-0.742,2.412-1.205,3.016-0.228
				c0.362,0.585,0.145,1.401,0.521,1.977c0.652,0.999,2.197,0.379,3.157-0.329c0.96-0.708,2.488-1.35,3.163-0.367
				c0.207,0.301,0.252,0.681,0.372,1.026c0.454,1.31,1.87,1.962,2.973,2.803c1.103,0.84,1.977,2.511,1.043,3.536
				c-0.461,0.506-1.27,0.711-1.499,1.355c-0.286,0.805,0.537,1.527,1.188,2.081c1.084,0.922,1.281,3.681-0.153,4.435
				c-0.602,0.317-1.484,0.414-1.632,1.078c-0.132,0.593,0.47,1.055,0.87,1.513c1.099,1.257,0.634,3.519-0.872,4.241
				c-0.344,0.165-0.767,0.3-0.894,0.66c-0.091,0.257,0.008,0.538,0.082,0.801c0.14,0.498,0.187,1.021,0.138,1.536
				c-0.017,0.176-0.053,0.367-0.187,0.482c-0.122,0.105-0.294,0.121-0.454,0.128c-2.07,0.092-3.068-0.64-4.331,1.161
				c-0.121,0.173-0.248,0.351-0.431,0.458c-0.171,0.1-0.374,0.126-0.571,0.142c-1.423,0.117-2.353-0.771-3.653-0.936
				c-1.804-0.23-2.186,0.7-3.775,1.447C118.589,221.217,117.377,220.493,116.908,218.79z"/>
			<path style="fill:#EBEBEB;" d="M128.2,211.343c-0.152-0.551-0.243-1.182-0.284-1.878c-0.231-3.894-3.949-3.277-7.112-3.806
				c-2.471-0.413,4.072-6.655-0.91-8.669c-0.925-0.374-1.931-0.797-2.404-1.676c-0.626-1.162,0.007-2.692,1.085-3.454
				c1.078-0.762,2.463-0.924,3.783-0.949c0.813-0.988,0.152-2.475-0.635-3.484c-0.786-1.009-1.75-2.157-1.452-3.401
				c0.45-1.878,3.075-1.946,4.972-1.581c0.701-1.135,0.687-2.554,1.027-3.844c0.34-1.29,1.366-2.644,2.69-2.482
				c1.247,0.152,2.01,1.56,3.233,1.849c1.421,0.335,2.651-0.922,3.765-1.864c1.114-0.942,3.063-1.531,3.831-0.289
				c0.459,0.743,0.184,1.779,0.662,2.511c0.828,1.268,2.79,0.481,4.009-0.418c1.219-0.899,3.16-1.714,4.017-0.465
				c0.263,0.382,0.32,0.864,0.472,1.303c0.577,1.664,2.375,2.492,3.775,3.559c1.401,1.067,2.51,3.189,1.325,4.491
				c-0.585,0.642-1.613,0.903-1.904,1.721c-0.363,1.023,0.682,1.939,1.509,2.643c1.377,1.171,1.626,4.675-0.194,5.633
				c-0.764,0.402-1.885,0.526-2.072,1.369c-0.168,0.754,0.597,1.34,1.105,1.921c1.396,1.596,0.805,4.469-1.107,5.386
				c-0.437,0.209-0.974,0.381-1.136,0.838c-0.116,0.327,0.011,0.683,0.104,1.017c0.177,0.632,0.237,1.297,0.175,1.95
				c-0.021,0.223-0.067,0.466-0.237,0.612c-0.154,0.133-0.373,0.153-0.577,0.163c-2.628,0.117-3.896-0.813-5.501,1.474
				c-0.154,0.22-0.316,0.446-0.547,0.581c-0.217,0.127-0.475,0.16-0.725,0.181c-1.807,0.149-2.988-0.979-4.639-1.189
				c-2.291-0.292-2.777,0.889-4.795,1.838C130.335,214.425,128.796,213.506,128.2,211.343z"/>
			<path style="fill:#EBEBEB;" d="M96.492,177.954c-0.152-0.551-0.243-1.182-0.284-1.878c-0.231-3.894-3.949-3.277-7.112-3.806
				c-2.471-0.413,4.072-6.655-0.91-8.669c-0.925-0.374-1.931-0.797-2.404-1.676c-0.626-1.162,0.007-2.692,1.085-3.455
				c1.078-0.762,2.463-0.924,3.783-0.948c0.813-0.988,0.152-2.475-0.635-3.484c-0.786-1.009-1.75-2.157-1.452-3.401
				c0.45-1.879,3.075-1.946,4.972-1.581c0.701-1.135,0.687-2.554,1.027-3.844c0.34-1.29,1.366-2.644,2.69-2.482
				c1.247,0.152,2.01,1.561,3.233,1.849c1.421,0.335,2.651-0.922,3.765-1.864c1.114-0.943,3.063-1.531,3.831-0.289
				c0.459,0.743,0.184,1.779,0.662,2.511c0.828,1.268,2.791,0.481,4.009-0.418c1.219-0.899,3.16-1.714,4.017-0.465
				c0.263,0.382,0.32,0.864,0.472,1.303c0.576,1.664,2.375,2.492,3.775,3.559c1.401,1.067,2.51,3.189,1.325,4.491
				c-0.585,0.642-1.613,0.903-1.904,1.721c-0.363,1.023,0.682,1.939,1.509,2.643c1.377,1.171,1.626,4.675-0.194,5.633
				c-0.764,0.402-1.885,0.526-2.072,1.369c-0.168,0.754,0.597,1.34,1.105,1.921c1.396,1.596,0.805,4.469-1.107,5.386
				c-0.437,0.209-0.974,0.381-1.136,0.838c-0.116,0.327,0.011,0.683,0.104,1.017c0.177,0.632,0.237,1.297,0.175,1.95
				c-0.021,0.223-0.067,0.466-0.237,0.612c-0.155,0.133-0.373,0.153-0.577,0.162c-2.629,0.117-3.896-0.813-5.501,1.474
				c-0.154,0.22-0.315,0.446-0.547,0.581c-0.217,0.127-0.475,0.16-0.725,0.181c-1.807,0.149-2.988-0.979-4.639-1.189
				c-2.291-0.292-2.777,0.889-4.795,1.838C98.627,181.037,97.088,180.117,96.492,177.954z"/>
			<path style="fill:#EBEBEB;" d="M70.602,179.278c-0.152-0.551-0.243-1.182-0.284-1.878c-0.231-3.895-3.949-3.277-7.112-3.806
				c-2.471-0.413,4.072-6.655-0.91-8.669c-0.925-0.374-1.931-0.797-2.404-1.676c-0.626-1.162,0.007-2.692,1.085-3.454
				s2.463-0.924,3.783-0.949c0.813-0.988,0.152-2.475-0.635-3.484c-0.786-1.009-1.75-2.157-1.452-3.401
				c0.45-1.879,3.075-1.946,4.972-1.581c0.701-1.135,0.687-2.554,1.027-3.844c0.34-1.29,1.366-2.644,2.69-2.482
				c1.247,0.152,2.01,1.56,3.233,1.849c1.421,0.335,2.651-0.922,3.765-1.864c1.115-0.943,3.063-1.531,3.831-0.289
				c0.459,0.743,0.184,1.779,0.662,2.511c0.828,1.268,2.791,0.481,4.009-0.418c1.219-0.899,3.16-1.714,4.017-0.465
				c0.263,0.382,0.32,0.864,0.472,1.303c0.577,1.664,2.375,2.492,3.775,3.559c1.401,1.067,2.51,3.189,1.325,4.491
				c-0.585,0.642-1.613,0.903-1.904,1.721c-0.363,1.023,0.682,1.939,1.509,2.643c1.377,1.171,1.626,4.675-0.194,5.633
				c-0.764,0.402-1.885,0.526-2.072,1.369c-0.168,0.754,0.597,1.34,1.105,1.921c1.396,1.596,0.805,4.47-1.107,5.386
				c-0.437,0.209-0.974,0.381-1.136,0.838c-0.116,0.327,0.011,0.683,0.104,1.017c0.177,0.632,0.237,1.297,0.175,1.95
				c-0.021,0.224-0.067,0.466-0.237,0.612c-0.155,0.133-0.373,0.153-0.577,0.162c-2.628,0.117-3.896-0.813-5.501,1.474
				c-0.154,0.22-0.315,0.446-0.547,0.581c-0.217,0.126-0.475,0.16-0.725,0.181c-1.807,0.149-2.988-0.979-4.639-1.189
				c-2.291-0.292-2.777,0.889-4.795,1.838C72.737,182.361,71.198,181.441,70.602,179.278z"/>
			<path style="fill:#EBEBEB;" d="M54.876,189.873c-0.152-0.551-0.243-1.182-0.284-1.878c-0.231-3.894-3.949-3.277-7.112-3.806
				c-2.471-0.413,4.072-6.655-0.91-8.669c-0.925-0.374-1.931-0.797-2.404-1.676c-0.626-1.162,0.007-2.692,1.085-3.455
				c1.078-0.762,2.463-0.924,3.783-0.948c0.813-0.988,0.152-2.475-0.635-3.484c-0.786-1.009-1.75-2.157-1.452-3.401
				c0.45-1.878,3.075-1.946,4.972-1.581c0.701-1.135,0.687-2.554,1.027-3.844c0.34-1.29,1.366-2.644,2.69-2.482
				c1.248,0.152,2.01,1.56,3.233,1.849c1.421,0.335,2.651-0.921,3.765-1.864c1.114-0.942,3.063-1.531,3.831-0.289
				c0.459,0.743,0.184,1.779,0.662,2.511c0.828,1.268,2.791,0.481,4.009-0.418c1.219-0.899,3.16-1.714,4.017-0.465
				c0.263,0.383,0.32,0.864,0.472,1.303c0.576,1.664,2.375,2.492,3.775,3.559c1.401,1.067,2.51,3.189,1.325,4.491
				c-0.585,0.642-1.613,0.903-1.904,1.721c-0.363,1.023,0.682,1.939,1.509,2.643c1.377,1.171,1.626,4.675-0.194,5.633
				c-0.764,0.402-1.885,0.526-2.072,1.369c-0.168,0.754,0.597,1.34,1.105,1.921c1.396,1.596,0.805,4.47-1.107,5.386
				c-0.437,0.209-0.974,0.381-1.136,0.838c-0.116,0.327,0.011,0.683,0.104,1.017c0.177,0.632,0.237,1.297,0.175,1.95
				c-0.021,0.224-0.067,0.466-0.237,0.612c-0.155,0.133-0.373,0.153-0.577,0.163c-2.628,0.117-3.896-0.813-5.501,1.474
				c-0.154,0.22-0.315,0.446-0.547,0.581c-0.217,0.126-0.475,0.16-0.725,0.181c-1.807,0.149-2.988-0.979-4.639-1.189
				c-2.291-0.292-2.777,0.889-4.795,1.838C57.011,192.956,55.472,192.036,54.876,189.873z"/>
			<path style="fill:#E6E6E6;" d="M59.644,203.264c0,0,6.577,9.298,8.845,12.246c2.268,2.948,13.607,21.317,15.15,33.467
				c0.165,1.297,0.327,2.413,0.485,3.389c-4.877,32.193-4.112,91.091-3.94,101.176h15.452c0.142-11.37,1.455-115.31,1.94-118.484
				c0.512-3.358,6.972-16.146,16.95-21.4c9.978-5.254,18.601-22.64,18.601-22.64h-3.18c0,0-5.896,10.659-14.287,16.555
				c-1.219,0.856-2.48,1.569-3.775,2.238c0.301-9.605-3.337-18.793-3.337-18.793l-1.717,1.588
				c2.318,9.493,2.013,15.573,1.312,19.066c-2.816,1.411-5.738,3.045-8.676,5.806c-8.704-11.318-13.598-37.202-13.598-37.202
				l-2.229,1.217c0,0,0.724,7.03,2.878,15.875c1.631,6.699,6.43,19.313,8.663,25.04c-2.219,3.082-4.424,7.067-6.575,12.342
				c-0.244-0.375-0.519-0.716-0.84-1.007c-5.67-5.126-16.328-29.345-16.328-29.345c-2.578-5.63,1.361-20.41,1.361-20.41h-2.975
				l-1.334,12.926l-7.484-8.164l-1.361,1.134l7.937,10.205l4.082,12.93l-10.659-11.796L59.644,203.264z"/>
		</g>
		<g>
			<path style="fill:#EBEBEB;" d="M458.764,212.407c0.152-0.551,0.242-1.182,0.284-1.877c0.231-3.894,3.949-3.277,7.112-3.806
				c2.471-0.413-4.072-6.655,0.91-8.669c0.925-0.374,1.931-0.797,2.404-1.676c0.626-1.162-0.007-2.692-1.085-3.455
				c-1.078-0.762-2.463-0.924-3.783-0.948c-0.813-0.988-0.152-2.475,0.635-3.484s1.75-2.157,1.452-3.401
				c-0.45-1.878-3.075-1.946-4.972-1.581c-0.701-1.135-0.687-2.554-1.027-3.844c-0.34-1.29-1.366-2.644-2.69-2.482
				c-1.247,0.152-2.01,1.561-3.233,1.849c-1.421,0.335-2.651-0.921-3.765-1.864c-1.114-0.942-3.063-1.531-3.831-0.289
				c-0.46,0.743-0.184,1.779-0.662,2.511c-0.828,1.268-2.79,0.481-4.009-0.418c-1.219-0.899-3.16-1.714-4.017-0.465
				c-0.263,0.382-0.32,0.864-0.472,1.303c-0.577,1.664-2.375,2.492-3.776,3.559c-1.401,1.067-2.51,3.189-1.325,4.491
				c0.585,0.642,1.613,0.902,1.904,1.721c0.363,1.023-0.682,1.939-1.509,2.643c-1.377,1.171-1.626,4.675,0.194,5.633
				c0.764,0.402,1.885,0.526,2.072,1.369c0.168,0.754-0.597,1.34-1.105,1.921c-1.396,1.596-0.805,4.47,1.107,5.386
				c0.437,0.209,0.974,0.381,1.136,0.838c0.116,0.327-0.011,0.683-0.104,1.017c-0.177,0.632-0.237,1.297-0.175,1.95
				c0.021,0.223,0.067,0.466,0.237,0.612c0.154,0.133,0.373,0.153,0.577,0.163c2.628,0.117,3.896-0.813,5.501,1.474
				c0.154,0.22,0.316,0.446,0.547,0.581c0.217,0.126,0.475,0.16,0.725,0.181c1.807,0.149,2.988-0.979,4.639-1.189
				c2.291-0.292,2.777,0.889,4.795,1.838C456.629,215.49,458.168,214.57,458.764,212.407z"/>
			<path style="fill:#EBEBEB;" d="M428.493,209.136c0.152-0.551,0.242-1.182,0.284-1.878c0.231-3.895,3.949-3.277,7.112-3.806
				c2.471-0.413-4.072-6.655,0.91-8.669c0.925-0.374,1.931-0.797,2.404-1.676c0.626-1.162-0.007-2.692-1.085-3.454
				c-1.078-0.762-2.463-0.924-3.783-0.949c-0.813-0.988-0.152-2.475,0.635-3.484c0.786-1.009,1.75-2.157,1.452-3.401
				c-0.45-1.879-3.075-1.946-4.972-1.581c-0.701-1.135-0.687-2.554-1.027-3.844c-0.34-1.29-1.366-2.644-2.69-2.482
				c-1.247,0.152-2.01,1.56-3.233,1.849c-1.421,0.335-2.651-0.921-3.765-1.864c-1.114-0.943-3.063-1.531-3.831-0.289
				c-0.46,0.743-0.184,1.779-0.662,2.511c-0.828,1.268-2.79,0.481-4.009-0.418c-1.219-0.899-3.16-1.714-4.017-0.465
				c-0.263,0.382-0.32,0.864-0.472,1.303c-0.576,1.664-2.375,2.492-3.775,3.559s-2.51,3.189-1.325,4.491
				c0.585,0.642,1.613,0.903,1.904,1.721c0.363,1.023-0.682,1.939-1.509,2.643c-1.377,1.171-1.626,4.675,0.194,5.633
				c0.764,0.402,1.885,0.526,2.072,1.369c0.168,0.754-0.597,1.34-1.105,1.921c-1.395,1.596-0.805,4.469,1.107,5.385
				c0.437,0.209,0.974,0.381,1.136,0.838c0.116,0.327-0.011,0.683-0.104,1.017c-0.178,0.632-0.237,1.297-0.175,1.95
				c0.021,0.224,0.067,0.466,0.237,0.612c0.155,0.133,0.373,0.153,0.577,0.162c2.629,0.117,3.896-0.813,5.501,1.474
				c0.154,0.22,0.315,0.446,0.547,0.581c0.217,0.126,0.475,0.16,0.725,0.181c1.807,0.149,2.988-0.979,4.639-1.189
				c2.291-0.292,2.776,0.889,4.795,1.838C426.358,212.219,427.897,211.299,428.493,209.136z"/>
			<path style="fill:#EBEBEB;" d="M425.576,189.858c0.152-0.551,0.243-1.182,0.284-1.878c0.231-3.895,3.949-3.277,7.112-3.806
				c2.471-0.413-4.072-6.655,0.91-8.669c0.925-0.374,1.931-0.797,2.404-1.676c0.626-1.162-0.007-2.692-1.085-3.454
				c-1.078-0.762-2.463-0.924-3.783-0.949c-0.813-0.988-0.152-2.475,0.635-3.484c0.786-1.009,1.75-2.157,1.452-3.401
				c-0.45-1.879-3.075-1.946-4.972-1.581c-0.701-1.135-0.687-2.554-1.027-3.844c-0.34-1.29-1.366-2.644-2.69-2.482
				c-1.247,0.152-2.01,1.561-3.233,1.849c-1.421,0.335-2.651-0.921-3.765-1.864c-1.114-0.943-3.063-1.531-3.831-0.289
				c-0.46,0.743-0.184,1.779-0.662,2.511c-0.828,1.268-2.791,0.481-4.009-0.418c-1.219-0.899-3.16-1.714-4.017-0.465
				c-0.263,0.382-0.32,0.864-0.472,1.303c-0.577,1.664-2.375,2.492-3.776,3.559s-2.51,3.189-1.325,4.491
				c0.585,0.642,1.613,0.903,1.904,1.721c0.363,1.023-0.682,1.94-1.509,2.643c-1.377,1.171-1.626,4.675,0.194,5.633
				c0.764,0.402,1.885,0.526,2.072,1.369c0.168,0.754-0.597,1.34-1.105,1.921c-1.396,1.596-0.805,4.469,1.107,5.385
				c0.437,0.209,0.974,0.381,1.136,0.838c0.116,0.327-0.011,0.683-0.104,1.017c-0.177,0.632-0.237,1.297-0.175,1.95
				c0.021,0.224,0.067,0.466,0.237,0.612c0.155,0.133,0.373,0.153,0.577,0.162c2.629,0.117,3.896-0.813,5.501,1.474
				c0.154,0.22,0.315,0.446,0.547,0.581c0.217,0.126,0.475,0.16,0.725,0.181c1.807,0.149,2.988-0.979,4.639-1.189
				c2.291-0.292,2.776,0.889,4.795,1.838C423.441,192.941,424.98,192.021,425.576,189.858z"/>
			<path style="fill:#EBEBEB;" d="M405.636,199.46c0.152-0.551,0.243-1.182,0.284-1.878c0.231-3.894,3.949-3.277,7.112-3.806
				c2.471-0.413-4.072-6.655,0.91-8.669c0.925-0.374,1.931-0.797,2.404-1.676c0.626-1.162-0.007-2.692-1.085-3.454
				c-1.078-0.762-2.463-0.924-3.783-0.949c-0.813-0.988-0.152-2.475,0.635-3.484c0.786-1.009,1.75-2.157,1.452-3.401
				c-0.45-1.878-3.075-1.946-4.972-1.581c-0.701-1.135-0.687-2.554-1.027-3.844c-0.34-1.29-1.366-2.644-2.69-2.482
				c-1.248,0.152-2.01,1.561-3.233,1.849c-1.421,0.335-2.651-0.921-3.765-1.864c-1.114-0.942-3.063-1.531-3.831-0.289
				c-0.46,0.743-0.184,1.779-0.662,2.511c-0.828,1.268-2.79,0.481-4.009-0.418c-1.219-0.899-3.16-1.714-4.017-0.466
				c-0.263,0.382-0.32,0.864-0.472,1.303c-0.577,1.664-2.375,2.492-3.776,3.559c-1.4,1.067-2.51,3.189-1.325,4.491
				c0.585,0.642,1.613,0.903,1.904,1.721c0.363,1.023-0.682,1.939-1.509,2.643c-1.377,1.171-1.626,4.675,0.194,5.633
				c0.764,0.402,1.885,0.526,2.072,1.369c0.168,0.754-0.597,1.34-1.105,1.921c-1.396,1.596-0.805,4.47,1.107,5.386
				c0.437,0.209,0.974,0.381,1.136,0.838c0.116,0.327-0.011,0.683-0.104,1.017c-0.177,0.632-0.237,1.297-0.175,1.95
				c0.021,0.223,0.067,0.466,0.237,0.612c0.155,0.133,0.373,0.153,0.577,0.163c2.628,0.117,3.896-0.813,5.501,1.474
				c0.154,0.22,0.315,0.446,0.547,0.581c0.217,0.126,0.475,0.16,0.725,0.181c1.807,0.149,2.988-0.979,4.639-1.189
				c2.291-0.292,2.777,0.889,4.795,1.838C403.5,202.543,405.039,201.623,405.636,199.46z"/>
			<path style="fill:#EBEBEB;" d="M385.482,195.025c0.152-0.551,0.243-1.182,0.284-1.878c0.231-3.894,3.949-3.277,7.112-3.806
				c2.471-0.413-4.072-6.655,0.91-8.669c0.925-0.374,1.931-0.797,2.404-1.676c0.626-1.162-0.007-2.692-1.085-3.454
				c-1.078-0.762-2.463-0.924-3.783-0.949c-0.813-0.988-0.152-2.475,0.635-3.484c0.786-1.009,1.75-2.157,1.452-3.401
				c-0.45-1.878-3.075-1.946-4.972-1.581c-0.701-1.135-0.687-2.554-1.027-3.844c-0.34-1.29-1.366-2.644-2.69-2.482
				c-1.247,0.152-2.01,1.56-3.233,1.849c-1.421,0.335-2.651-0.921-3.765-1.864s-3.063-1.531-3.831-0.289
				c-0.46,0.743-0.184,1.779-0.662,2.511c-0.828,1.268-2.79,0.481-4.009-0.418c-1.219-0.899-3.16-1.714-4.017-0.465
				c-0.263,0.382-0.32,0.864-0.472,1.303c-0.577,1.664-2.375,2.492-3.776,3.559c-1.401,1.067-2.51,3.189-1.325,4.491
				c0.585,0.642,1.613,0.903,1.904,1.721c0.363,1.023-0.682,1.939-1.509,2.643c-1.377,1.171-1.626,4.675,0.194,5.633
				c0.764,0.402,1.885,0.526,2.072,1.369c0.168,0.754-0.597,1.34-1.105,1.921c-1.396,1.596-0.805,4.47,1.107,5.386
				c0.437,0.209,0.974,0.381,1.136,0.838c0.116,0.327-0.011,0.683-0.104,1.017c-0.177,0.632-0.237,1.297-0.175,1.95
				c0.021,0.224,0.067,0.466,0.237,0.612c0.155,0.133,0.373,0.153,0.577,0.163c2.628,0.117,3.896-0.813,5.501,1.474
				c0.154,0.22,0.315,0.446,0.547,0.581c0.217,0.126,0.475,0.16,0.725,0.181c1.807,0.149,2.988-0.979,4.639-1.189
				c2.291-0.292,2.777,0.889,4.795,1.838C383.347,198.108,384.886,197.188,385.482,195.025z"/>
			<path style="fill:#EBEBEB;" d="M385.219,216.583c0.12-0.434,0.191-0.931,0.223-1.478c0.182-3.066,3.11-2.581,5.6-2.997
				c1.946-0.325-3.206-5.24,0.717-6.826c0.729-0.294,1.521-0.627,1.893-1.32c0.493-0.915-0.006-2.12-0.854-2.72
				c-0.849-0.6-1.939-0.727-2.978-0.747c-0.64-0.778-0.12-1.949,0.5-2.743c0.619-0.795,1.378-1.698,1.143-2.678
				c-0.354-1.479-2.421-1.532-3.915-1.245c-0.552-0.894-0.541-2.011-0.809-3.027c-0.268-1.016-1.076-2.082-2.118-1.955
				c-0.982,0.12-1.582,1.229-2.546,1.456c-1.118,0.264-2.087-0.726-2.965-1.468c-0.878-0.742-2.412-1.205-3.017-0.228
				c-0.362,0.585-0.145,1.401-0.521,1.977c-0.652,0.999-2.197,0.379-3.157-0.329c-0.96-0.708-2.488-1.35-3.163-0.367
				c-0.207,0.301-0.252,0.68-0.372,1.026c-0.454,1.31-1.87,1.962-2.973,2.803c-1.103,0.84-1.977,2.511-1.043,3.536
				c0.46,0.506,1.27,0.711,1.499,1.355c0.286,0.805-0.537,1.527-1.188,2.081c-1.084,0.922-1.28,3.681,0.153,4.435
				c0.602,0.317,1.484,0.414,1.632,1.078c0.132,0.593-0.47,1.055-0.87,1.513c-1.099,1.257-0.634,3.519,0.872,4.24
				c0.344,0.165,0.767,0.3,0.894,0.66c0.091,0.257-0.008,0.538-0.082,0.801c-0.14,0.498-0.187,1.021-0.138,1.536
				c0.017,0.176,0.053,0.367,0.187,0.482c0.122,0.104,0.294,0.121,0.454,0.128c2.07,0.092,3.068-0.64,4.331,1.161
				c0.121,0.173,0.249,0.351,0.431,0.458c0.171,0.1,0.374,0.126,0.571,0.142c1.423,0.117,2.353-0.771,3.653-0.936
				c1.804-0.23,2.186,0.7,3.775,1.447C383.538,219.01,384.75,218.286,385.219,216.583z"/>
			<path style="fill:#EBEBEB;" d="M373.927,209.136c0.152-0.551,0.242-1.182,0.284-1.878c0.231-3.895,3.949-3.277,7.112-3.806
				c2.471-0.413-4.072-6.655,0.91-8.669c0.925-0.374,1.931-0.797,2.404-1.676c0.626-1.162-0.007-2.692-1.085-3.454
				c-1.078-0.762-2.463-0.924-3.783-0.949c-0.813-0.988-0.152-2.475,0.635-3.484c0.786-1.009,1.75-2.157,1.452-3.401
				c-0.45-1.879-3.075-1.946-4.972-1.581c-0.701-1.135-0.687-2.554-1.027-3.844c-0.34-1.29-1.366-2.644-2.69-2.482
				c-1.247,0.152-2.01,1.56-3.233,1.849c-1.421,0.335-2.651-0.921-3.765-1.864s-3.063-1.531-3.831-0.289
				c-0.46,0.743-0.184,1.779-0.662,2.511c-0.828,1.268-2.79,0.481-4.009-0.418c-1.219-0.899-3.16-1.714-4.017-0.465
				c-0.263,0.382-0.32,0.864-0.472,1.303c-0.577,1.664-2.375,2.492-3.776,3.559c-1.401,1.067-2.51,3.189-1.325,4.491
				c0.585,0.642,1.613,0.903,1.904,1.721c0.363,1.023-0.682,1.939-1.509,2.643c-1.377,1.171-1.626,4.675,0.194,5.633
				c0.764,0.402,1.885,0.526,2.072,1.369c0.167,0.754-0.597,1.34-1.105,1.921c-1.396,1.596-0.805,4.469,1.107,5.385
				c0.437,0.209,0.974,0.381,1.136,0.838c0.116,0.327-0.011,0.683-0.104,1.017c-0.177,0.632-0.237,1.297-0.175,1.95
				c0.021,0.224,0.067,0.466,0.237,0.612c0.155,0.133,0.373,0.153,0.577,0.162c2.628,0.117,3.896-0.813,5.501,1.474
				c0.154,0.22,0.315,0.446,0.547,0.581c0.217,0.126,0.475,0.16,0.725,0.181c1.807,0.149,2.988-0.979,4.639-1.189
				c2.291-0.292,2.777,0.889,4.795,1.838C371.792,212.219,373.331,211.299,373.927,209.136z"/>
			<path style="fill:#EBEBEB;" d="M405.636,175.747c0.152-0.551,0.243-1.182,0.284-1.878c0.231-3.894,3.949-3.277,7.112-3.806
				c2.471-0.413-4.072-6.655,0.91-8.669c0.925-0.374,1.931-0.797,2.404-1.676c0.626-1.162-0.007-2.692-1.085-3.455
				c-1.078-0.762-2.463-0.924-3.783-0.948c-0.813-0.988-0.152-2.475,0.635-3.484c0.786-1.009,1.75-2.157,1.452-3.401
				c-0.45-1.878-3.075-1.946-4.972-1.581c-0.701-1.135-0.687-2.554-1.027-3.844c-0.34-1.29-1.366-2.644-2.69-2.482
				c-1.248,0.152-2.01,1.56-3.233,1.849c-1.421,0.335-2.651-0.921-3.765-1.864c-1.114-0.942-3.063-1.531-3.831-0.289
				c-0.46,0.743-0.184,1.779-0.662,2.511c-0.828,1.268-2.79,0.481-4.009-0.418c-1.219-0.899-3.16-1.714-4.017-0.465
				c-0.263,0.382-0.32,0.864-0.472,1.303c-0.577,1.664-2.375,2.492-3.776,3.559c-1.4,1.067-2.51,3.189-1.325,4.491
				c0.585,0.642,1.613,0.903,1.904,1.721c0.363,1.023-0.682,1.939-1.509,2.643c-1.377,1.171-1.626,4.675,0.194,5.633
				c0.764,0.402,1.885,0.526,2.072,1.369c0.168,0.754-0.597,1.34-1.105,1.921c-1.396,1.596-0.805,4.469,1.107,5.385
				c0.437,0.209,0.974,0.381,1.136,0.838c0.116,0.327-0.011,0.683-0.104,1.017c-0.177,0.632-0.237,1.297-0.175,1.95
				c0.021,0.224,0.067,0.466,0.237,0.612c0.155,0.133,0.373,0.153,0.577,0.163c2.628,0.117,3.896-0.813,5.501,1.474
				c0.154,0.22,0.315,0.446,0.547,0.581c0.217,0.126,0.475,0.16,0.725,0.181c1.807,0.149,2.988-0.979,4.639-1.189
				c2.291-0.292,2.777,0.889,4.795,1.838C403.5,178.83,405.039,177.91,405.636,175.747z"/>
			<path style="fill:#EBEBEB;" d="M431.526,177.071c0.152-0.551,0.242-1.182,0.284-1.878c0.231-3.894,3.949-3.277,7.112-3.806
				c2.471-0.413-4.072-6.655,0.91-8.669c0.925-0.374,1.931-0.797,2.404-1.676c0.626-1.162-0.007-2.692-1.085-3.454
				c-1.078-0.762-2.463-0.924-3.783-0.948c-0.813-0.988-0.152-2.475,0.635-3.484s1.75-2.157,1.452-3.401
				c-0.45-1.878-3.075-1.946-4.972-1.581c-0.701-1.135-0.687-2.554-1.027-3.844c-0.34-1.29-1.366-2.644-2.69-2.482
				c-1.247,0.152-2.01,1.561-3.233,1.849c-1.421,0.335-2.651-0.921-3.765-1.864c-1.114-0.942-3.063-1.531-3.831-0.289
				c-0.459,0.743-0.184,1.779-0.662,2.511c-0.828,1.268-2.79,0.481-4.009-0.418c-1.219-0.899-3.16-1.714-4.017-0.465
				c-0.263,0.382-0.32,0.864-0.472,1.303c-0.577,1.664-2.375,2.492-3.776,3.559c-1.401,1.067-2.51,3.189-1.325,4.491
				c0.585,0.642,1.613,0.903,1.904,1.721c0.363,1.023-0.682,1.94-1.509,2.643c-1.377,1.171-1.626,4.675,0.194,5.633
				c0.764,0.402,1.885,0.526,2.072,1.369c0.168,0.754-0.597,1.34-1.105,1.921c-1.396,1.596-0.805,4.469,1.107,5.385
				c0.437,0.209,0.974,0.381,1.136,0.838c0.116,0.327-0.011,0.683-0.104,1.017c-0.177,0.632-0.237,1.297-0.175,1.95
				c0.021,0.224,0.067,0.466,0.237,0.612c0.154,0.133,0.373,0.153,0.577,0.163c2.628,0.117,3.896-0.813,5.501,1.474
				c0.154,0.22,0.316,0.446,0.547,0.581c0.217,0.126,0.475,0.16,0.725,0.181c1.807,0.149,2.988-0.979,4.639-1.189
				c2.291-0.292,2.777,0.889,4.795,1.838C429.39,180.154,430.929,179.234,431.526,177.071z"/>
			<path style="fill:#EBEBEB;" d="M447.251,187.666c0.152-0.551,0.243-1.182,0.284-1.878c0.231-3.895,3.949-3.277,7.112-3.806
				c2.471-0.413-4.072-6.655,0.91-8.669c0.925-0.374,1.931-0.797,2.404-1.676c0.626-1.162-0.007-2.692-1.085-3.454
				c-1.078-0.762-2.463-0.924-3.783-0.948c-0.813-0.988-0.152-2.475,0.635-3.484c0.786-1.009,1.75-2.157,1.452-3.401
				c-0.45-1.878-3.075-1.946-4.972-1.581c-0.701-1.135-0.687-2.554-1.027-3.844s-1.366-2.644-2.69-2.482
				c-1.247,0.152-2.01,1.56-3.233,1.849c-1.421,0.335-2.651-0.921-3.765-1.864c-1.114-0.943-3.063-1.531-3.831-0.289
				c-0.459,0.743-0.184,1.779-0.662,2.511c-0.828,1.268-2.79,0.481-4.009-0.418c-1.219-0.899-3.16-1.714-4.017-0.465
				c-0.263,0.382-0.32,0.864-0.472,1.303c-0.577,1.664-2.375,2.492-3.776,3.559c-1.401,1.067-2.51,3.189-1.325,4.491
				c0.585,0.642,1.613,0.903,1.904,1.721c0.363,1.023-0.682,1.94-1.509,2.643c-1.377,1.171-1.626,4.675,0.194,5.633
				c0.764,0.402,1.885,0.526,2.072,1.369c0.168,0.754-0.597,1.34-1.105,1.921c-1.396,1.596-0.805,4.469,1.107,5.385
				c0.437,0.209,0.974,0.381,1.136,0.838c0.116,0.327-0.011,0.683-0.104,1.017c-0.177,0.632-0.237,1.297-0.175,1.95
				c0.021,0.224,0.067,0.466,0.237,0.612c0.154,0.133,0.373,0.153,0.577,0.162c2.628,0.117,3.896-0.813,5.501,1.474
				c0.154,0.22,0.316,0.446,0.547,0.581c0.217,0.127,0.475,0.16,0.725,0.181c1.807,0.149,2.988-0.979,4.639-1.189
				c2.291-0.292,2.777,0.889,4.795,1.838C445.116,190.749,446.655,189.829,447.251,187.666z"/>
			<path style="fill:#E6E6E6;" d="M442.484,201.058c0,0-6.577,9.298-8.845,12.246c-2.268,2.948-13.607,21.317-15.15,33.467
				c-0.165,1.297-0.327,2.413-0.485,3.389c4.877,32.193,4.112,91.092,3.94,101.175h-15.452c-0.142-11.37-1.455-115.31-1.94-118.484
				c-0.512-3.358-6.972-16.146-16.95-21.4c-9.978-5.254-18.601-22.64-18.601-22.64h3.18c0,0,5.896,10.659,14.287,16.555
				c1.219,0.856,2.48,1.569,3.775,2.238c-0.301-9.605,3.337-18.793,3.337-18.793l1.717,1.587
				c-2.318,9.493-2.013,15.573-1.312,19.066c2.816,1.411,5.738,3.045,8.676,5.806c8.704-11.318,13.598-37.202,13.598-37.202
				l2.229,1.217c0,0-0.724,7.03-2.878,15.875c-1.631,6.699-6.43,19.313-8.663,25.04c2.219,3.082,4.424,7.067,6.575,12.342
				c0.244-0.375,0.519-0.717,0.84-1.007c5.67-5.126,16.328-29.345,16.328-29.345c2.578-5.63-1.361-20.41-1.361-20.41h2.975
				l1.333,12.927l7.484-8.164l1.361,1.134l-7.937,10.205l-4.082,12.929l10.659-11.796L442.484,201.058z"/>
		</g>
		<g>
			<path style="fill:#E6E6E6;" d="M314.363,120.159c0,0,0.791-2.67-3.61-4.994c0,0-0.989,0.791-4.451,1.533
				c-3.461,0.742,2.324,6.082,5.687,6.33C315.352,123.275,314.363,120.159,314.363,120.159z"/>
			<path style="fill:#F0F0F0;" d="M313.621,120.355c0,0,0.824-4.284,8.208-5.339c7.385-1.055,10.354-1.467,10.354-1.467
				s0.773,7.863-9.513,9.181l9.513-0.89c0,0-0.859,2.621-4.716,3.758l-5.044-1.038c0,0-8.733,2.256-12.659-1.484
				c-1.523-1.45-3.865-1.235-3.865-1.235s0.453-0.693,1.294-0.94c0,0-0.451-1.19,0.346-1.731
				C310.159,117.39,311.916,121.145,313.621,120.355z"/>
		</g>
		<g>
			<path style="fill:#E6E6E6;" d="M258.974,99.725c0,0,0.448-1.511-2.043-2.826c0,0-0.56,0.448-2.519,0.867
				c-1.959,0.42,1.315,3.442,3.218,3.582S258.974,99.725,258.974,99.725z"/>
			<path style="fill:#F0F0F0;" d="M258.555,99.836c0,0,0.466-2.424,4.645-3.021c4.179-0.597,5.859-0.83,5.859-0.83
				s0.437,4.449-5.383,5.195l5.383-0.504c0,0-0.486,1.483-2.669,2.127l-2.854-0.588c0,0-4.942,1.276-7.164-0.84
				c-0.862-0.821-2.187-0.699-2.187-0.699s0.257-0.392,0.732-0.532c0,0-0.255-0.673,0.196-0.979
				C256.596,98.158,257.59,100.283,258.555,99.836z"/>
		</g>
		<g>
			<path style="fill:#E6E6E6;" d="M221.107,126.849c0,0,0.314-1.06-1.433-1.983c0,0-0.393,0.314-1.767,0.609
				c-1.374,0.294,0.923,2.415,2.257,2.513C221.5,128.085,221.107,126.849,221.107,126.849z"/>
			<path style="fill:#F0F0F0;" d="M220.813,126.926c0,0,0.327-1.701,3.258-2.119s4.11-0.582,4.11-0.582s0.307,3.121-3.776,3.645
				l3.776-0.353c0,0-0.341,1.04-1.872,1.492l-2.002-0.412c0,0-3.467,0.895-5.025-0.589c-0.605-0.576-1.534-0.491-1.534-0.491
				s0.18-0.275,0.514-0.373c0,0-0.179-0.472,0.137-0.687C219.439,125.749,220.136,127.24,220.813,126.926z"/>
		</g>
		<path style="fill:#EBEBEB;" d="M168.914,382.297c0.656-2.488,3.674-15.624-4.917-18.457c-9.5-3.133-15.136-10.491-14.818-18.812
			c0.318-8.321-9.682-16.419-17.182-8.62c-7.5,7.799-6.5-5.997-16.5-9.349c-10-3.352-18.477,4.781-15.738,12.214
			c2.738,7.433-7.13,12.076-18.946,5.755c-11.816-6.321-24.816,5.179-22.316,14.179s0.453,10-7.024,7
			c-7.383-2.962-20.504,5.291-16.318,16.091H168.914z"/>
		<path style="fill:#EBEBEB;" d="M469.668,382.297H366.894c-2.534-5.003,1.475-11.709,5.883-12.591c5-1,10.026-9.798,10.263-15.399
			c0.237-5.601,9.237-22.829,23.237-12.19s9.745,1.567,19.872-1.422c10.128-2.989,16.516,5.611,12.072,12.061
			c0,0,10.174-2.55,14.365,6.95c4.191,9.5,0,15.4,0,15.4S466.974,374.686,469.668,382.297z"/>
	</g>
</g>
<g id="Background_Simple" style="display:none;">
	<g style="display:inline;">
		<path style="fill:#574CFA;" d="M94.607,98.283c9.085-11.482,25.61-15.279,39.936-12.129c14.456,3.178,26.927,12.31,37.502,22.666
			c10.575,10.356,19.708,22.119,30.428,32.326c12.948,12.328,31.726,22.698,48.075,15.462c12.674-5.609,18.895-19.577,26.148-31.388
			c17.747-28.901,50.556-50.514,84.269-46.815c63.783,6.998,74.074,81.647,55.395,130.562c-7.339,19.218-17.591,37.163-26.53,55.69
			c-7.762,16.087-14.618,34.736-8.146,51.384c6.177,15.891,23.629,27.12,24.498,44.147c0.596,11.688-7.543,22.573-17.926,27.971
			c-10.383,5.399-22.583,6.148-34.249,5.228c-54.793-4.319-103.914-42.352-158.85-40.62c-17.127,0.54-33.853,4.981-50.735,7.921
			c-16.881,2.94-34.601,4.327-50.86-1.084s-30.751-18.981-32.821-35.991c-2.487-20.429,12.572-38.507,27.485-52.688
			c14.914-14.182,31.753-29.263,34.481-49.661c1.948-14.567-3.892-29.057-11.126-41.85c-7.234-12.793-16.041-24.856-20.946-38.71
			c-4.905-13.854-5.239-30.46,3.727-42.105C94.442,98.493,94.524,98.388,94.607,98.283z"/>
		<path style="opacity:0.9;fill:#FFFFFF;enable-background:new    ;" d="M94.607,98.283c9.085-11.482,25.61-15.279,39.936-12.129
			c14.456,3.178,26.927,12.31,37.502,22.666c10.575,10.356,19.708,22.119,30.428,32.326c12.948,12.328,31.726,22.698,48.075,15.462
			c12.674-5.609,18.895-19.577,26.148-31.388c17.747-28.901,50.556-50.514,84.269-46.815c63.783,6.998,74.074,81.647,55.395,130.562
			c-7.339,19.218-17.591,37.163-26.53,55.69c-7.762,16.087-14.618,34.736-8.146,51.384c6.177,15.891,23.629,27.12,24.498,44.147
			c0.596,11.688-7.543,22.573-17.926,27.971c-10.383,5.399-22.583,6.148-34.249,5.228c-54.793-4.319-103.914-42.352-158.85-40.62
			c-17.127,0.54-33.853,4.981-50.735,7.921c-16.881,2.94-34.601,4.327-50.86-1.084s-30.751-18.981-32.821-35.991
			c-2.487-20.429,12.572-38.507,27.485-52.688c14.914-14.182,31.753-29.263,34.481-49.661c1.948-14.567-3.892-29.057-11.126-41.85
			c-7.234-12.793-16.041-24.856-20.946-38.71c-4.905-13.854-5.239-30.46,3.727-42.105C94.442,98.493,94.524,98.388,94.607,98.283z"
			/>
	</g>
</g>
<g id="Shadow_1_">
	<ellipse id="_x3C_Path_x3E__359_" style="fill:#F5F5F5;" cx="250" cy="416.238" rx="193.889" ry="11.323"/>
</g>
<g id="Plant_2">
	<g>
		<g>
			<path style="fill:#574CFA;" d="M402.874,350.715c0.187,1.309-3.361,2.169-6.254,2.652c0.236,2.375,1.817,4.776,3.999,7.018
				c2.746-1.547,6.666-3.592,7.388-3.092c0.789,0.546-3.225,3.141-5.735,4.667c1.766,1.567,3.753,3.028,5.686,4.307
				c1.23-1.15,2.672-2.159,3.53-1.613c0.89,0.567,0.649,2.346,0.21,3.934c2.987,1.741,5.224,2.801,5.224,2.801
				s1.254-3.801,1.995-8.481c-0.151-0.297-0.3-0.598-0.438-0.916c-0.481-1.113-0.012-1.587,0.783-1.743
				c0.206-2.049,0.265-4.155,0.049-6.11c-3.381-0.709-7.492-2.022-5.952-4.049c0.929-1.223,2.629-1.361,4.398-1.055
				c-0.247-0.408-0.521-0.792-0.835-1.138c-6.153-6.78-10.446,0-10.446,0c-3.576-2.98-8.599-2.174-9.684,2.483
				C398.8,349.865,402.643,349.099,402.874,350.715z"/>
			<path style="opacity:0.3;fill:#FFFFFF;enable-background:new    ;" d="M402.874,350.715c0.187,1.309-3.361,2.169-6.254,2.652
				c0.236,2.375,1.817,4.776,3.999,7.018c2.746-1.547,6.666-3.592,7.388-3.092c0.789,0.546-3.225,3.141-5.735,4.667
				c1.766,1.567,3.753,3.028,5.686,4.307c1.23-1.15,2.672-2.159,3.53-1.613c0.89,0.567,0.649,2.346,0.21,3.934
				c2.987,1.741,5.224,2.801,5.224,2.801s1.254-3.801,1.995-8.481c-0.151-0.297-0.3-0.598-0.438-0.916
				c-0.481-1.113-0.012-1.587,0.783-1.743c0.206-2.049,0.265-4.155,0.049-6.11c-3.381-0.709-7.492-2.022-5.952-4.049
				c0.929-1.223,2.629-1.361,4.398-1.055c-0.247-0.408-0.521-0.792-0.835-1.138c-6.153-6.78-10.446,0-10.446,0
				c-3.576-2.98-8.599-2.174-9.684,2.483C398.8,349.865,402.643,349.099,402.874,350.715z"/>
		</g>
		<g>
			<g>
				<path style="fill:#574CFA;" d="M410.551,400.54l-0.887-0.073c0.038-0.458,3.643-45.855-6.545-50.134
					c-1.094-0.46-2.105-0.435-3.088,0.077c-3.681,1.915-5.445,9.862-5.463,9.943l-0.87-0.189c0.075-0.343,1.871-8.435,5.921-10.543
					c1.216-0.633,2.509-0.669,3.844-0.109C414.241,354.039,410.706,398.643,410.551,400.54z"/>
			</g>
			<g>
				<path style="fill:#574CFA;" d="M411.835,399.556c-0.181-2.042-4.339-50.075,3.437-55.174c1.865-1.222,3.526-1.484,4.939-0.768
					c3.674,1.853,4.157,9.709,4.176,10.042l-0.888,0.051c-0.004-0.077-0.471-7.677-3.689-9.299
					c-1.107-0.556-2.469-0.317-4.049,0.719c-7.335,4.81-3.082,53.856-3.038,54.352L411.835,399.556z"/>
			</g>
			<g>
				<path style="fill:#574CFA;" d="M413.004,403.439c-0.058-1.563-1.339-38.331,5.742-41.549c1.4-0.636,2.817-0.647,4.211-0.034
					c4.859,2.138,7.86,11.193,7.985,11.577l-0.846,0.276c-0.029-0.09-3.002-9.062-7.498-11.039
					c-1.169-0.513-2.309-0.505-3.484,0.029c-5.43,2.468-5.61,30.221-5.221,40.706L413.004,403.439z"/>
			</g>
			<g>
				<path style="fill:#574CFA;" d="M411.202,401.757l-0.884-0.101c1.248-10.943,3.633-40.102-0.264-43.58
					c-0.581-0.52-1.102-0.68-1.594-0.493c-2.612,1.002-4.202,10.486-4.594,14.057l-0.885-0.097c0.15-1.369,1.574-13.414,5.16-14.79
					c0.821-0.315,1.663-0.094,2.506,0.66C415.683,361.907,411.387,400.132,411.202,401.757z"/>
			</g>
		</g>
		<g>
			<polygon style="fill:#574CFA;" points="396.351,381.013 428.324,381.013 425.654,416.827 399.021,416.827 			"/>
		</g>
		<g>
			<path style="fill:#574CFA;" d="M400.706,367.87c-0.333,0.871-2.816,0.186-4.766-0.509c-0.669,1.546-0.517,3.568,0.06,5.699
				c2.224-0.013,5.342,0.07,5.616,0.626c0.299,0.607-3.066,0.831-5.137,0.912c0.552,1.572,1.277,3.154,2.03,4.606
				c1.153-0.287,2.388-0.416,2.73,0.215c0.355,0.655-0.404,1.669-1.219,2.498c1.245,2.098,2.261,3.518,2.261,3.518
				s2.077-1.914,4.138-4.546c0.009-0.235,0.02-0.472,0.044-0.715c0.085-0.852,0.536-0.983,1.08-0.807
				c0.829-1.193,1.588-2.472,2.125-3.751c-1.842-1.596-3.927-3.815-2.283-4.538c0.992-0.436,2.088,0.062,3.074,0.857
				c-0.013-0.336-0.05-0.667-0.125-0.988c-1.47-6.291-6.442-3.581-6.442-3.581c-1.184-3.064-4.558-4.288-6.824-1.789
				C398.486,365.949,401.118,366.794,400.706,367.87z"/>
			<path style="opacity:0.3;fill:#FFFFFF;enable-background:new    ;" d="M400.706,367.87c-0.333,0.871-2.816,0.186-4.766-0.509
				c-0.669,1.546-0.517,3.568,0.06,5.699c2.224-0.013,5.342,0.07,5.616,0.626c0.299,0.607-3.066,0.831-5.137,0.912
				c0.552,1.572,1.277,3.154,2.03,4.606c1.153-0.287,2.388-0.416,2.73,0.215c0.355,0.655-0.404,1.669-1.219,2.498
				c1.245,2.098,2.261,3.518,2.261,3.518s2.077-1.914,4.138-4.546c0.009-0.235,0.02-0.472,0.044-0.715
				c0.085-0.852,0.536-0.983,1.08-0.807c0.829-1.193,1.588-2.472,2.125-3.751c-1.842-1.596-3.927-3.815-2.283-4.538
				c0.992-0.436,2.088,0.062,3.074,0.857c-0.013-0.336-0.05-0.667-0.125-0.988c-1.47-6.291-6.442-3.581-6.442-3.581
				c-1.184-3.064-4.558-4.288-6.824-1.789C398.486,365.949,401.118,366.794,400.706,367.87z"/>
		</g>
		<g>
			<path style="fill:#574CFA;" d="M424.446,372.122c-1.008,0.075-1.976,0.306-2.922,0.615c-0.246-0.676-0.407-1.379-0.43-2.116
				c-0.203-6.448,4.413-3.729,6.852-5.624c1.216-0.945,2.706-1.552,4.081-1.279c-0.206,0.355-0.394,0.722-0.552,1.104
				c-0.255,0.617,0.147,1.261,0.781,1.379c0.595,0.112,1.264,0.06,1.811-0.215c0.171-0.086,0.314-0.21,0.465-0.322
				c0.341,0.575,0.643,1.28,0.886,2.156c0.249,0.896,0.377,1.825,0.417,2.758c-0.363,0.081-0.723,0.178-1.078,0.304
				c-0.555,0.197-0.851,1.083-0.404,1.533c0.392,0.394,0.842,0.707,1.331,0.934c-0.16,1.062-0.456,2.069-0.812,3.023
				c-0.11,0.017-0.22,0.029-0.329,0.05c-0.235,0.046-0.466,0.107-0.696,0.172c-0.132,0.038-0.262,0.082-0.386,0.141
				c-0.319,0.152-0.552,0.424-0.603,0.782c-0.049,0.352,0.097,0.715,0.38,0.931c0.15,0.115,0.316,0.205,0.48,0.295
				c-0.735,1.164-1.604,2.085-2.554,2.577c0,0-1.177-0.513-2.717-1.435c0.193-0.258,0.385-0.516,0.564-0.783
				c0.211-0.314,0.305-0.637,0.274-1.013c-0.031-0.364-0.251-0.681-0.522-0.91c-0.262-0.22-0.68-0.317-1.013-0.274
				c-0.326,0.042-0.721,0.242-0.91,0.523c-0.214,0.318-0.449,0.62-0.683,0.923c-1.178-0.888-2.35-1.96-3.275-3.18
				c0.036-0.01,0.074-0.022,0.098-0.029c0.596-0.156,1.204-0.257,1.818-0.302c0.766-0.057,1.243-0.828,1.184-1.535
				C425.917,372.539,425.16,372.069,424.446,372.122z"/>
			<path style="opacity:0.5;fill:#FFFFFF;enable-background:new    ;" d="M424.446,372.122c-1.008,0.075-1.976,0.306-2.922,0.615
				c-0.246-0.676-0.407-1.379-0.43-2.116c-0.203-6.448,4.413-3.729,6.852-5.624c1.216-0.945,2.706-1.552,4.081-1.279
				c-0.206,0.355-0.394,0.722-0.552,1.104c-0.255,0.617,0.147,1.261,0.781,1.379c0.595,0.112,1.264,0.06,1.811-0.215
				c0.171-0.086,0.314-0.21,0.465-0.322c0.341,0.575,0.643,1.28,0.886,2.156c0.249,0.896,0.377,1.825,0.417,2.758
				c-0.363,0.081-0.723,0.178-1.078,0.304c-0.555,0.197-0.851,1.083-0.404,1.533c0.392,0.394,0.842,0.707,1.331,0.934
				c-0.16,1.062-0.456,2.069-0.812,3.023c-0.11,0.017-0.22,0.029-0.329,0.05c-0.235,0.046-0.466,0.107-0.696,0.172
				c-0.132,0.038-0.262,0.082-0.386,0.141c-0.319,0.152-0.552,0.424-0.603,0.782c-0.049,0.352,0.097,0.715,0.38,0.931
				c0.15,0.115,0.316,0.205,0.48,0.295c-0.735,1.164-1.604,2.085-2.554,2.577c0,0-1.177-0.513-2.717-1.435
				c0.193-0.258,0.385-0.516,0.564-0.783c0.211-0.314,0.305-0.637,0.274-1.013c-0.031-0.364-0.251-0.681-0.522-0.91
				c-0.262-0.22-0.68-0.317-1.013-0.274c-0.326,0.042-0.721,0.242-0.91,0.523c-0.214,0.318-0.449,0.62-0.683,0.923
				c-1.178-0.888-2.35-1.96-3.275-3.18c0.036-0.01,0.074-0.022,0.098-0.029c0.596-0.156,1.204-0.257,1.818-0.302
				c0.766-0.057,1.243-0.828,1.184-1.535C425.917,372.539,425.16,372.069,424.446,372.122z"/>
		</g>
		<g>
			<path style="fill:#574CFA;" d="M426.291,349.89c0.563-0.403,1.172-0.707,1.805-0.959c-0.167-0.463-0.391-0.903-0.702-1.3
				c-2.723-3.477-3.955-0.022-6.068,0.053c-1.053,0.037-2.103,0.372-2.705,1.119c0.264,0.096,0.524,0.207,0.774,0.338
				c0.405,0.212,0.476,0.727,0.195,1.067c-0.264,0.32-0.638,0.586-1.045,0.682c-0.128,0.03-0.257,0.027-0.386,0.035
				c0.073,0.452,0.224,0.955,0.481,1.522c0.263,0.58,0.603,1.124,0.991,1.632c0.226-0.117,0.458-0.224,0.7-0.313
				c0.378-0.14,0.923,0.196,0.885,0.628c-0.033,0.379-0.132,0.741-0.289,1.075c0.55,0.488,1.148,0.887,1.753,1.232
				c0.065-0.039,0.128-0.081,0.195-0.118c0.143-0.079,0.292-0.148,0.441-0.215c0.086-0.038,0.174-0.072,0.265-0.095
				c0.234-0.06,0.476-0.02,0.66,0.146c0.18,0.163,0.263,0.418,0.209,0.656c-0.029,0.126-0.076,0.246-0.123,0.366
				c0.897,0.289,1.758,0.391,2.473,0.233c0,0,0.393-0.786,0.797-1.946c-0.214-0.051-0.429-0.102-0.64-0.164
				c-0.249-0.072-0.44-0.201-0.588-0.412c-0.144-0.205-0.167-0.468-0.125-0.707c0.041-0.231,0.218-0.465,0.412-0.588
				c0.19-0.121,0.485-0.189,0.707-0.125c0.252,0.073,0.508,0.128,0.764,0.185c0.229-0.983,0.374-2.061,0.325-3.108
				c-0.023,0.01-0.048,0.021-0.064,0.028c-0.381,0.18-0.745,0.393-1.087,0.639c-0.427,0.306-1.017,0.111-1.296-0.287
				C425.702,350.754,425.893,350.175,426.291,349.89z"/>
			<path style="opacity:0.3;fill:#FFFFFF;enable-background:new    ;" d="M426.291,349.89c0.563-0.403,1.172-0.707,1.805-0.959
				c-0.167-0.463-0.391-0.903-0.702-1.3c-2.723-3.477-3.955-0.022-6.068,0.053c-1.053,0.037-2.103,0.372-2.705,1.119
				c0.264,0.096,0.524,0.207,0.774,0.338c0.405,0.212,0.476,0.727,0.195,1.067c-0.264,0.32-0.638,0.586-1.045,0.682
				c-0.128,0.03-0.257,0.027-0.386,0.035c0.073,0.452,0.224,0.955,0.481,1.522c0.263,0.58,0.603,1.124,0.991,1.632
				c0.226-0.117,0.458-0.224,0.7-0.313c0.378-0.14,0.923,0.196,0.885,0.628c-0.033,0.379-0.132,0.741-0.289,1.075
				c0.55,0.488,1.148,0.887,1.753,1.232c0.065-0.039,0.128-0.081,0.195-0.118c0.143-0.079,0.292-0.148,0.441-0.215
				c0.086-0.038,0.174-0.072,0.265-0.095c0.234-0.06,0.476-0.02,0.66,0.146c0.18,0.163,0.263,0.418,0.209,0.656
				c-0.029,0.126-0.076,0.246-0.123,0.366c0.897,0.289,1.758,0.391,2.473,0.233c0,0,0.393-0.786,0.797-1.946
				c-0.214-0.051-0.429-0.102-0.64-0.164c-0.249-0.072-0.44-0.201-0.588-0.412c-0.144-0.205-0.167-0.468-0.125-0.707
				c0.041-0.231,0.218-0.465,0.412-0.588c0.19-0.121,0.485-0.189,0.707-0.125c0.252,0.073,0.508,0.128,0.764,0.185
				c0.229-0.983,0.374-2.061,0.325-3.108c-0.023,0.01-0.048,0.021-0.064,0.028c-0.381,0.18-0.745,0.393-1.087,0.639
				c-0.427,0.306-1.017,0.111-1.296-0.287C425.702,350.754,425.893,350.175,426.291,349.89z"/>
		</g>
		<g>
			<path style="fill:#574CFA;" d="M400.241,356.344c-0.187,1.309,3.361,2.17,6.254,2.652c-0.236,2.375-1.817,4.776-3.999,7.018
				c-2.746-1.547-6.666-3.592-7.388-3.092c-0.789,0.546,3.225,3.141,5.735,4.667c-1.766,1.567-3.754,3.028-5.686,4.307
				c-1.231-1.15-2.672-2.159-3.53-1.613c-0.89,0.567-0.65,2.346-0.21,3.934c-2.987,1.741-5.224,2.801-5.224,2.801
				s-1.254-3.801-1.995-8.481c0.151-0.297,0.3-0.598,0.438-0.916c0.481-1.113,0.012-1.587-0.783-1.743
				c-0.206-2.049-0.265-4.155-0.049-6.11c3.38-0.709,7.492-2.022,5.952-4.049c-0.929-1.223-2.629-1.361-4.398-1.055
				c0.247-0.408,0.521-0.792,0.835-1.138c6.153-6.78,10.446,0,10.446,0c3.576-2.98,8.599-2.173,9.684,2.483
				C404.315,355.493,400.471,354.728,400.241,356.344z"/>
			<path style="opacity:0.5;fill:#FFFFFF;enable-background:new    ;" d="M400.241,356.344c-0.187,1.309,3.361,2.17,6.254,2.652
				c-0.236,2.375-1.817,4.776-3.999,7.018c-2.746-1.547-6.666-3.592-7.388-3.092c-0.789,0.546,3.225,3.141,5.735,4.667
				c-1.766,1.567-3.754,3.028-5.686,4.307c-1.231-1.15-2.672-2.159-3.53-1.613c-0.89,0.567-0.65,2.346-0.21,3.934
				c-2.987,1.741-5.224,2.801-5.224,2.801s-1.254-3.801-1.995-8.481c0.151-0.297,0.3-0.598,0.438-0.916
				c0.481-1.113,0.012-1.587-0.783-1.743c-0.206-2.049-0.265-4.155-0.049-6.11c3.38-0.709,7.492-2.022,5.952-4.049
				c-0.929-1.223-2.629-1.361-4.398-1.055c0.247-0.408,0.521-0.792,0.835-1.138c6.153-6.78,10.446,0,10.446,0
				c3.576-2.98,8.599-2.173,9.684,2.483C404.315,355.493,400.471,354.728,400.241,356.344z"/>
		</g>
	</g>
</g>
<g id="Plant_1">
	<g>
		<path style="fill:#574CFA;" d="M84.805,393.455c0,0-4.596-10.028,0.655-19.913c5.251-9.885,6.773-12.214,3.426-14.239
			c-3.347-2.025-4.883,7.908-4.883,7.908s-2.822-6.833-0.492-13.985c2.33-7.152,3.791-18.8,0.609-20.049
			c-3.182-1.25-0.608,14.531-3.368,19.91c0,0-2.319-5.988-2.701-11.732c-0.382-5.744,0.215-14.916-2.298-17.269
			c-2.512-2.353-4.122-0.725-1.653,11.951c2.469,12.676,2.451,22.981,2.451,22.981s-5.454-16.628-9.114-17.113
			c-3.66-0.485-3.656,4.9-0.522,9.571c3.133,4.671,9.175,13.038,10.166,17.344c0,0-5.986-12.513-11.371-8.678
			c-5.385,3.835,4.687,11.394,9.176,14.125c4.489,2.731,7.606,19.851,7.606,19.851L84.805,393.455z"/>
		<path style="opacity:0.6;fill:#FFFFFF;enable-background:new    ;" d="M84.805,393.455c0,0-4.596-10.028,0.655-19.913
			c5.251-9.885,6.773-12.214,3.426-14.239c-3.347-2.025-4.883,7.908-4.883,7.908s-2.822-6.833-0.492-13.985
			c2.33-7.152,3.791-18.8,0.609-20.049c-3.182-1.25-0.608,14.531-3.368,19.91c0,0-2.319-5.988-2.701-11.732
			c-0.382-5.744,0.215-14.916-2.298-17.269c-2.512-2.353-4.122-0.725-1.653,11.951c2.469,12.676,2.451,22.981,2.451,22.981
			s-5.454-16.628-9.114-17.113c-3.66-0.485-3.656,4.9-0.522,9.571c3.133,4.671,9.175,13.038,10.166,17.344
			c0,0-5.986-12.513-11.371-8.678c-5.385,3.835,4.687,11.394,9.176,14.125c4.489,2.731,7.606,19.851,7.606,19.851L84.805,393.455z"
			/>
		<path style="fill:#574CFA;" d="M81.177,397.568c0,0,4.475-10.095-0.894-19.901c-5.369-9.806-6.919-12.112-3.596-14.187
			c3.323-2.075,4.978,7.834,4.978,7.834s2.74-6.875,0.324-13.991c-2.415-7.116-4.016-18.741-0.849-20.038
			c3.166-1.297,0.782,14.521,3.607,19.858c0,0,2.247-6.022,2.56-11.771c0.313-5.749-0.393-14.912,2.091-17.302
			c2.484-2.39,4.113-0.786,1.796,11.926c-2.317,12.712-2.175,23.015-2.175,23.015s5.254-16.708,8.908-17.248
			c3.654-0.539,3.714,4.845,0.637,9.562c-3.077,4.717-9.018,13.174-9.957,17.494c0,0,5.836-12.602,11.266-8.847
			c5.431,3.755-4.55,11.463-9.006,14.26c-4.456,2.798-7.368,19.963-7.368,19.963L81.177,397.568z"/>
		<path style="opacity:0.7;fill:#FFFFFF;enable-background:new    ;" d="M81.177,397.568c0,0,4.475-10.095-0.894-19.901
			c-5.369-9.806-6.919-12.112-3.596-14.187c3.323-2.075,4.978,7.834,4.978,7.834s2.74-6.875,0.324-13.991
			c-2.415-7.116-4.016-18.741-0.849-20.038c3.166-1.297,0.782,14.521,3.607,19.858c0,0,2.247-6.022,2.56-11.771
			c0.313-5.749-0.393-14.912,2.091-17.302c2.484-2.39,4.113-0.786,1.796,11.926c-2.317,12.712-2.175,23.015-2.175,23.015
			s5.254-16.708,8.908-17.248c3.654-0.539,3.714,4.845,0.637,9.562c-3.077,4.717-9.018,13.174-9.957,17.494
			c0,0,5.836-12.602,11.266-8.847c5.431,3.755-4.55,11.463-9.006,14.26c-4.456,2.798-7.368,19.963-7.368,19.963L81.177,397.568z"/>
		<g>
			<polygon style="fill:#574CFA;" points="101.818,390.371 64.848,390.371 67.84,416.827 98.826,416.827 			"/>
		</g>
	</g>
</g>
<g id="House">
	<g>
		<g>
			<path style="fill:#574CFA;" d="M176.509,210.796h-38.098c-0.682,0-1.234-0.552-1.234-1.234v-61.236
				c0-0.682,0.553-1.234,1.234-1.234h38.098c0.682,0,1.234,0.553,1.234,1.234v61.236
				C177.743,210.244,177.191,210.796,176.509,210.796z"/>
			<g>
				<rect x="140.137" y="155.884" style="opacity:0.6;fill:#FFFFFF;enable-background:new    ;" width="10.495" height="3.429"/>
				<rect x="151.346" y="155.884" style="opacity:0.6;fill:#FFFFFF;enable-background:new    ;" width="10.495" height="3.429"/>
				<rect x="145.385" y="160.104" style="opacity:0.6;fill:#FFFFFF;enable-background:new    ;" width="10.495" height="3.429"/>
				<g>
					<rect x="138.116" y="185.423" style="opacity:0.6;fill:#FFFFFF;enable-background:new    ;" width="10.495" height="3.429"/>
					<rect x="149.325" y="185.423" style="opacity:0.6;fill:#FFFFFF;enable-background:new    ;" width="10.495" height="3.429"/>
					<rect x="143.364" y="189.643" style="opacity:0.6;fill:#FFFFFF;enable-background:new    ;" width="10.495" height="3.428"/>
				</g>
				<rect x="159.522" y="168.148" style="opacity:0.6;fill:#FFFFFF;enable-background:new    ;" width="10.495" height="3.428"/>
				<rect x="138.116" y="170.654" style="opacity:0.6;fill:#FFFFFF;enable-background:new    ;" width="10.495" height="3.428"/>
				<rect x="164.77" y="172.368" style="opacity:0.6;fill:#FFFFFF;enable-background:new    ;" width="10.495" height="3.429"/>
				<rect x="143.364" y="180.612" style="opacity:0.6;fill:#FFFFFF;enable-background:new    ;" width="10.495" height="3.429"/>
			</g>
			<g>
				<path style="fill:#574CFA;" d="M178.108,152.719h-41.296c-0.559,0-1.013-0.453-1.013-1.013v-5.304
					c0-0.559,0.453-1.013,1.013-1.013h41.296c0.559,0,1.013,0.453,1.013,1.013v5.304
					C179.121,152.266,178.667,152.719,178.108,152.719z"/>
				<path style="opacity:0.6;fill:#FFFFFF;enable-background:new    ;" d="M178.108,152.719h-41.296
					c-0.559,0-1.013-0.453-1.013-1.013v-5.304c0-0.559,0.453-1.013,1.013-1.013h41.296c0.559,0,1.013,0.453,1.013,1.013v5.304
					C179.121,152.266,178.667,152.719,178.108,152.719z"/>
			</g>
		</g>
		<g>
			<polygon style="fill:#574CFA;" points="407.908,238.429 249.999,135.044 92.092,238.429 122.513,238.429 122.513,414.827 
				377.487,414.827 377.487,238.429 			"/>
			<polygon style="opacity:0.8;fill:#FFFFFF;enable-background:new    ;" points="407.912,238.428 377.482,238.428 377.482,414.828 
				122.512,414.828 122.512,238.428 92.092,238.428 250.002,135.048 			"/>
			<g>
				<rect x="279.693" y="262.001" style="fill:#574CFA;" width="76.341" height="67.741"/>
				<rect x="279.693" y="262.001" style="opacity:0.8;fill:#FFFFFF;enable-background:new    ;" width="76.341" height="67.741"/>
				<rect x="281.605" y="263.858" style="opacity:0.8;fill:#FFFFFF;" width="72.42" height="64.064"/>
				<polygon style="fill:#FFFFFF;" points="298.601,263.858 281.605,327.783 281.605,297.745 290.579,263.858 				"/>
				<polygon style="fill:#FFFFFF;" points="304.621,263.858 287.475,327.922 284.739,327.922 301.884,263.858 				"/>
				<polygon style="fill:#FFFFFF;" points="354.025,304.283 354.025,314.52 350.556,327.922 347.819,327.922 				"/>
				<rect x="305.644" y="262.707" style="fill:#574CFA;" width="1.22" height="66.646"/>
				<rect x="329.286" y="262.707" style="fill:#574CFA;" width="1.22" height="66.646"/>
				<rect x="305.644" y="262.707" style="opacity:0.8;fill:#FFFFFF;enable-background:new    ;" width="1.22" height="66.646"/>
				<rect x="329.286" y="262.707" style="opacity:0.8;fill:#FFFFFF;enable-background:new    ;" width="1.22" height="66.646"/>
			</g>
			<polygon style="opacity:0.2;fill:#574CFA;enable-background:new    ;" points="407.912,238.428 377.482,238.428 377.482,306.498 
				253.023,231.658 142.162,229.748 140.653,325.518 156.563,414.828 122.512,414.828 122.512,238.428 92.092,238.428 
				250.002,135.048 			"/>
			<g>
				<g>
					<path style="fill:none;stroke:#574CFA;stroke-miterlimit:10;" d="M133.403,368.312c0,0,4.178-3.484,7.762,0
						c3.583,3.484,4.275,25.067,4.275,25.067"/>
					<path style="fill:none;stroke:#574CFA;stroke-miterlimit:10;" d="M145.735,397.547c0,0-2.463-25.329,6.811-35.973"/>
					<path style="fill:none;stroke:#574CFA;stroke-miterlimit:10;" d="M144.853,394.877c0,0,1.897-28.835-5.059-35.232"/>
					<path style="fill:none;stroke:#574CFA;stroke-miterlimit:10;" d="M145.735,394.877c0,0,0.162-19.054,5.331-22.016
						s7.804,6.699,7.804,6.699"/>
					<path style="fill:none;stroke:#574CFA;stroke-miterlimit:10;" d="M143.694,394.877c0,0,0.843-14.628-3.162-19.855
						c-4.005-5.228-8.22,2.24-8.22,2.24"/>
					<path style="fill:none;stroke:#574CFA;stroke-miterlimit:10;" d="M145.089,396.837c0,0-2.59-34.209,1.696-40.006"/>
				</g>
				<g>
					<path style="fill:#574CFA;" d="M155.492,375.637c0,0-2.577,0.95-1.811,3.193c0.766,2.243,8.916,5.935,8.916,5.935
						s3.413-3.129,0.279-8.217C159.741,371.461,155.562,374.032,155.492,375.637z"/>
					<path style="opacity:0.2;fill:#FFFFFF;enable-background:new    ;" d="M155.492,375.637c0,0-2.577,0.95-1.811,3.193
						c0.766,2.243,8.916,5.935,8.916,5.935s3.413-3.129,0.279-8.217C159.741,371.461,155.562,374.032,155.492,375.637z"/>
				</g>
				<g>
					<path style="fill:#574CFA;" d="M144.288,371.367c0,0,2.744-0.115,2.9,2.25s-5.946,8.909-5.946,8.909s-4.354-1.574-3.419-7.477
						C138.759,369.147,143.606,369.912,144.288,371.367z"/>
					<path style="opacity:0.2;fill:#FFFFFF;enable-background:new    ;" d="M144.288,371.367c0,0,2.744-0.115,2.9,2.25
						s-5.946,8.909-5.946,8.909s-4.354-1.574-3.419-7.477C138.759,369.147,143.606,369.912,144.288,371.367z"/>
				</g>
				<g>
					<path style="fill:#574CFA;" d="M141.964,360.045c0,0,1.83-0.196,1.683-1.311c-0.147-1.115-7.113-3.983-11.223,0.655
						c0,0,2.632,4.52,6.436,4.579C142.664,364.028,141.964,360.045,141.964,360.045z"/>
					<path style="opacity:0.2;fill:#FFFFFF;enable-background:new    ;" d="M141.964,360.045c0,0,1.83-0.196,1.683-1.311
						c-0.147-1.115-7.113-3.983-11.223,0.655c0,0,2.632,4.52,6.436,4.579C142.664,364.028,141.964,360.045,141.964,360.045z"/>
				</g>
				<g>
					<path style="fill:#574CFA;" d="M145.374,357.338c0,0-1.657,0.801-2.121-0.223c-0.464-1.024,3.93-7.142,9.872-5.379
						c0,0,0.157,5.228-3.04,7.29C146.887,361.088,145.374,357.338,145.374,357.338z"/>
					<path style="opacity:0.2;fill:#FFFFFF;enable-background:new    ;" d="M145.374,357.338c0,0-1.657,0.801-2.121-0.223
						c-0.464-1.024,3.93-7.142,9.872-5.379c0,0,0.157,5.228-3.04,7.29C146.887,361.088,145.374,357.338,145.374,357.338z"/>
				</g>
				<g>
					<path style="fill:#574CFA;" d="M136.711,374.736c0,0,1.263-1.02-0.1-1.517c-1.363-0.498-8.05-0.356-8.12,6.268
						c0,0,7.788,1.294,8.752-1.229C138.207,375.734,136.711,374.736,136.711,374.736z"/>
					<path style="opacity:0.2;fill:#FFFFFF;enable-background:new    ;" d="M136.711,374.736c0,0,1.263-1.02-0.1-1.517
						c-1.363-0.498-8.05-0.356-8.12,6.268c0,0,7.788,1.294,8.752-1.229C138.207,375.734,136.711,374.736,136.711,374.736z"/>
				</g>
				<g>
					<path style="fill:#574CFA;" d="M152.593,359.879c0,0-1.263-1.02,0.1-1.517c1.363-0.498,8.05-0.356,8.12,6.268
						c0,0-7.788,1.294-8.752-1.229C151.096,360.877,152.593,359.879,152.593,359.879z"/>
					<path style="opacity:0.2;fill:#FFFFFF;enable-background:new    ;" d="M152.593,359.879c0,0-1.263-1.02,0.1-1.517
						c1.363-0.498,8.05-0.356,8.12,6.268c0,0-7.788,1.294-8.752-1.229C151.096,360.877,152.593,359.879,152.593,359.879z"/>
				</g>
				<g>
					<path style="fill:#574CFA;" d="M148.475,365.215c0,0-0.111-1.24,0.889-0.754c1.001,0.486,4.487,4.247,0.873,7.816
						c0,0-4.864-3.603-3.987-5.479C147.127,364.922,148.475,365.215,148.475,365.215z"/>
					<path style="opacity:0.2;fill:#FFFFFF;enable-background:new    ;" d="M148.475,365.215c0,0-0.111-1.24,0.889-0.754
						c1.001,0.486,4.487,4.247,0.873,7.816c0,0-4.864-3.603-3.987-5.479C147.127,364.922,148.475,365.215,148.475,365.215z"/>
				</g>
				<g>
					<path style="fill:#574CFA;" d="M135.582,366.981c0,0,0.755-0.989-0.351-1.112c-1.106-0.123-6.06,1.2-4.906,6.146
						c0,0,6.036-0.454,6.295-2.508C136.878,367.452,135.582,366.981,135.582,366.981z"/>
					<path style="opacity:0.2;fill:#FFFFFF;enable-background:new    ;" d="M135.582,366.981c0,0,0.755-0.989-0.351-1.112
						c-1.106-0.123-6.06,1.2-4.906,6.146c0,0,6.036-0.454,6.295-2.508C136.878,367.452,135.582,366.981,135.582,366.981z"/>
				</g>
				<polygon style="fill:#574CFA;" points="155.974,413.239 135.263,413.239 133.029,390.564 158.208,390.564 				"/>
				<polygon style="opacity:0.5;fill:#FFFFFF;enable-background:new    ;" points="155.974,413.239 135.263,413.239 
					133.029,390.564 158.208,390.564 				"/>
				<rect x="131.923" y="388.062" style="fill:#574CFA;" width="27.391" height="5.004"/>
				<rect x="131.923" y="388.062" style="opacity:0.2;fill:#FFFFFF;enable-background:new    ;" width="27.391" height="5.004"/>
			</g>
			<g>
				<path style="fill:#574CFA;" d="M355.231,229.269v19.447c0,1.093-0.885,1.82-1.978,1.82h-65.676c0,0-7.592-3.541-7.053-8.487
					c0.43-3.947,0.875-7.167,1.241-9.615c0.45-2.982,3.002-5.144,6.014-5.144h65.473
					C354.345,227.29,355.231,228.176,355.231,229.269z"/>
				<path style="opacity:0.8;fill:#FFFFFF;" d="M355.231,229.269v19.447c0,1.093-0.885,1.82-1.978,1.82h-65.676
					c0,0-7.592-3.541-7.053-8.487c0.43-3.947,0.875-7.167,1.241-9.615c0.45-2.982,3.002-5.144,6.014-5.144h65.473
					C354.345,227.29,355.231,228.176,355.231,229.269z"/>
				<path style="opacity:0.2;enable-background:new    ;" d="M355.231,229.269v19.447c0,1.093-0.885,1.82-1.978,1.82h-5.792
					c0,0-7.597-3.541-7.053-8.487c0.43-3.947,0.875-7.167,1.241-9.615c0.445-2.982,3.002-5.144,6.014-5.144h5.589
					C354.345,227.29,355.231,228.176,355.231,229.269z"/>
				<path style="fill:#574CFA;" d="M282.033,243.612h57.372c0,0,1.896,4.204,5.111,5.935h-56.053
					C288.462,249.547,282.527,246.827,282.033,243.612z"/>
				<path style="opacity:0.4;fill:#FFFFFF;" d="M282.033,243.612h57.372c0,0,1.896,4.204,5.111,5.935h-56.053
					C288.462,249.547,282.527,246.827,282.033,243.612z"/>
				<polygon style="opacity:0.4;fill:#FFFFFF;" points="285.989,247.568 341.382,247.568 340.558,249.547 285.989,249.547 				"/>
				<polygon style="opacity:0.4;fill:#FFFFFF;" points="284.011,245.096 339.404,245.096 338.58,247.074 284.011,247.074 				"/>
				<rect x="336.025" y="242.128" style="fill:#574CFA;" width="1.401" height="0.577"/>
				<rect x="334.045" y="242.128" style="fill:#574CFA;" width="1.401" height="0.577"/>
			</g>
			<g>
				<path style="opacity:0.8;fill:#FFFFFF;" d="M254.824,203.296c-0.73,1.96-2.61,3.35-4.82,3.35c-2.21,0-4.09-1.39-4.82-3.35
					H254.824z"/>
				<polygon style="opacity:0.2;enable-background:new    ;" points="260.887,203.293 251.308,193.714 251.308,134.661 
					248.697,134.661 248.697,193.714 239.118,203.293 				"/>
			</g>
			<g>
				<g>
					<path style="fill:#574CFA;" d="M349.536,338.037h-77.215c-6.154,0-11.143,4.989-11.143,11.143v44.304h99.501V349.18
						C360.679,343.026,355.69,338.037,349.536,338.037z"/>
					<path style="opacity:0.4;fill:#FFFFFF;enable-background:new    ;" d="M349.536,338.037h-77.215
						c-6.154,0-11.143,4.989-11.143,11.143v44.304h99.501V349.18C360.679,343.026,355.69,338.037,349.536,338.037z"/>
				</g>
				<g>
					<path style="fill:#574CFA;" d="M254.556,370.874h-10.153c-3.657,0-6.622,2.965-6.622,6.621v36.639h23.396v-36.639
						C261.178,373.839,258.213,370.874,254.556,370.874z"/>
					<path style="opacity:0.4;fill:#FFFFFF;enable-background:new    ;" d="M254.556,370.874h-10.153
						c-3.657,0-6.622,2.965-6.622,6.621v36.639h23.396v-36.639C261.178,373.839,258.213,370.874,254.556,370.874z"/>
					<path style="opacity:0.5;fill:#FFFFFF;enable-background:new    ;" d="M244.618,370.874h-0.214
						c-3.657,0-6.622,2.965-6.622,6.621v36.639h13.457v-36.639C251.239,373.839,248.275,370.874,244.618,370.874z"/>
				</g>
				<g>
					<rect x="254.073" y="397.304" style="fill:#574CFA;" width="98.342" height="16.83"/>
					
						<rect x="254.073" y="397.304" transform="matrix(-1 -1.224647e-16 1.224647e-16 -1 606.4879 811.4388)" style="opacity:0.4;fill:#FFFFFF;enable-background:new    ;" width="98.342" height="16.83"/>
				</g>
				<g>
					<path style="fill:#574CFA;" d="M349.533,381.912h-95.57c-3.718,0-6.732,3.014-6.732,6.732v4.194
						c0,3.718,3.014,6.732,6.732,6.732h95.57c3.718,0,6.732-3.014,6.732-6.732v-4.194
						C356.265,384.926,353.251,381.912,349.533,381.912z"/>
					<path style="opacity:0.6;fill:#FFFFFF;enable-background:new    ;" d="M349.533,381.912h-95.57
						c-3.718,0-6.732,3.014-6.732,6.732v4.194c0,3.718,3.014,6.732,6.732,6.732h95.57c3.718,0,6.732-3.014,6.732-6.732v-4.194
						C356.265,384.926,353.251,381.912,349.533,381.912z"/>
					<path style="opacity:0.2;enable-background:new    ;" d="M349.41,381.912h-9.314c-3.718,0-6.732,3.014-6.732,6.732v4.194
						c0,3.718,3.014,6.732,6.732,6.732h9.314c3.718,0,6.732-3.014,6.732-6.732v-4.194
						C356.142,384.926,353.128,381.912,349.41,381.912z"/>
				</g>
				<g>
					<path style="fill:#574CFA;" d="M360.567,370.874h-10.153c-3.657,0-6.622,2.965-6.622,6.621v36.639h23.396v-36.639
						C367.189,373.839,364.224,370.874,360.567,370.874z"/>
					<path style="opacity:0.6;fill:#FFFFFF;enable-background:new    ;" d="M360.567,370.874h-10.153
						c-3.657,0-6.622,2.965-6.622,6.621v36.639h23.396v-36.639C367.189,373.839,364.224,370.874,360.567,370.874z"/>
					<path style="opacity:0.4;fill:#FFFFFF;enable-background:new    ;" d="M350.629,370.874h-0.214
						c-3.657,0-6.622,2.965-6.622,6.621v36.639h13.457v-36.639C357.25,373.839,354.286,370.874,350.629,370.874z"/>
				</g>
			</g>
		</g>
		<g>
			<path style="fill:#574CFA;" d="M377.487,416.827H122.513c-1.104,0-2-0.895-2-2V240.429H92.092c-0.884,0-1.664-0.581-1.917-1.429
				c-0.253-0.848,0.081-1.76,0.821-2.244L248.904,133.37c0.666-0.436,1.525-0.436,2.191,0l157.909,103.385
				c0.74,0.484,1.074,1.396,0.821,2.244c-0.253,0.848-1.032,1.429-1.917,1.429h-28.421v174.398
				C379.487,415.932,378.591,416.827,377.487,416.827z M124.513,412.827h250.974V238.429c0-1.104,0.896-2,2-2h23.715
				l-151.203-98.994L98.798,236.429h23.715c1.104,0,2,0.896,2,2V412.827z"/>
		</g>
	</g>
</g>
<g id="Character">
	<g id="_x3C_Group_x3E__68_">
		<g>
			<polygon style="fill:#E4897B;" points="264.82,408.01 263.43,408.17 251.91,409.45 250.01,409.66 247.71,409.92 245.81,410.13 
				240,410.77 241.19,400.71 241.2,400.68 241.21,400.68 242.06,400.67 246.31,400.62 248.19,400.6 250.06,400.58 251.41,400.57 
				257.29,400.51 260.99,400.48 			"/>
			<path style="fill:#263238;" d="M277.53,416.4c-5.24-4.24-9.89-6.87-12.68-7.33c-0.52-0.08-1-0.36-1.32-0.78l-0.1-0.12l-6.14-7.66
				l-0.25-0.31c-0.22-0.28-0.22-0.66,0-0.94l4.88-6.07c0.44-0.54,1.24-0.61,1.78-0.17c0.07,0.06,0.13,0.12,0.19,0.2
				c2.06,2.65,3.43,4.69,6.06,7.97c1.63,2.03,6.74,7.97,8.98,10.77C281.17,414.76,278.7,417.34,277.53,416.4z"/>
			<polygon style="opacity:0.2;enable-background:new    ;" points="251.91,409.45 250.01,409.66 247.71,409.92 245.81,410.13 
				240,410.77 241.19,400.71 241.21,400.68 242.06,400.67 246.31,400.62 248.19,400.6 250.06,400.58 251.41,400.56 251.41,400.57 
							"/>
			<path style="fill:#263238;" d="M259.75,327.09c0,0-4.07,10.52-9.66,26.07c-0.27,0.74-0.77,1.63-1.48,2.63
				c-7.65,10.83-38.46,35.35-34.93,39.25c3.29,3.63,26.02,3.3,32.76,3.12c1.19-0.03,1.88-0.06,1.88-0.06l-0.13,2.5l-0.48,9.32
				l-0.12,2.34c0,0-0.69,0.16-1.92,0.41c-3.08,0.65-9.59,1.91-17.23,2.88c-14.42,1.82-32.9,2.58-40.1-3.94
				c-17.06-15.44,35.43-68.26,38.1-80.55L259.75,327.09z"/>
			<polygon style="fill:#574CFA;" points="250.09,396.31 250.06,400.58 250.01,409.66 249.99,413.31 245.61,413.87 245.67,412.67 
				245.81,410.13 246.31,400.62 246.44,398.16 246.51,396.8 			"/>
			<path style="opacity:0.2;enable-background:new    ;" d="M277.53,416.4c-5.24-4.24-9.89-6.87-12.68-7.33
				c-0.52-0.08-1-0.36-1.32-0.78l-0.1-0.12l-11.52,1.28l-1.9,0.21l-0.02,3.65l-4.38,0.56l0.06-1.2c-3.08,0.65-9.59,1.91-17.23,2.88
				c-9.79-6.26-18.78-13.21-20.03-18.25c-2.9-11.63,24.63-48.18,24.63-48.18l15.57,6.67c-7.65,10.83-38.46,35.35-34.93,39.25
				c3.29,3.63,26.02,3.3,32.76,3.12l0.07-1.36l3.58-0.49l-0.03,4.27l1.35-0.02v0.01l5.88-0.06l-0.25-0.31
				c-0.22-0.28-0.22-0.66,0-0.94l4.88-6.07c0.44-0.54,1.24-0.61,1.78-0.17c0.07,0.06,0.13,0.12,0.19,0.2
				c2.06,2.65,3.43,4.69,6.06,7.97c1.63,2.03,6.74,7.97,8.98,10.77C281.17,414.76,278.7,417.34,277.53,416.4z"/>
			<g>
				<path style="fill:#EEC1BB;" d="M190.947,287.527c0,0-7.759,18.473-9.342,20.583s-17.405-7.786-17.405-7.786l-5.013,8.709
					c0,0,17.741,11.351,24.778,10.955c7.037-0.396,19.254-27.966,19.254-27.966L190.947,287.527z"/>
				<path style="opacity:0.1;enable-background:new    ;" d="M190.947,287.527c0,0-7.759,18.473-9.342,20.583
					s-17.405-7.786-17.405-7.786l-5.013,8.709c0,0,17.741,11.351,24.778,10.955c7.037-0.396,19.254-27.966,19.254-27.966
					L190.947,287.527z"/>
			</g>
			<g>
				<path style="fill:#574CFA;" d="M210.613,292.42l-10.13,11.78l-0.04,0.05l-14.71-5.91l-0.79-0.32c0,0,0.28-0.93,0.79-2.46
					c1.78-5.35,6.34-18.05,11.16-23.65l7.98,11.93L210.613,292.42z"/>
				<path style="opacity:0.2;enable-background:new    ;" d="M210.613,292.42l-10.13,11.78c0.79-9.11,3.41-17.49,4.39-20.36
					L210.613,292.42z"/>
			</g>
			<g>
				<path style="fill:#EEC1BB;" d="M252.55,239.407c0,0,26.256,4.632,26.506,13.111c0.333,11.33-27.692,16.032-27.692,16.032
					l-7.78-12.616c0,0,21.297-2.173,21.033-3.416c-0.264-1.243-13.516-4.685-13.516-4.685L252.55,239.407z"/>
				<path style="opacity:0.1;enable-background:new    ;" d="M252.55,239.407c0,0,26.256,4.632,26.506,13.111
					c0.333,11.33-27.692,16.032-27.692,16.032l-7.78-12.616c0,0,21.297-2.173,21.033-3.416c-0.264-1.243-13.516-4.685-13.516-4.685
					L252.55,239.407z"/>
			</g>
			<path style="fill:#574CFA;" d="M222.727,257.719c0,0,3.925-3.207,32.798-4.793l5.334,16.797l-11.88,4.967
				C248.978,274.69,239.584,258.361,222.727,257.719z"/>
			<g>
				<polygon style="fill:#E4897B;" points="304.822,408.013 291.908,409.454 279.996,410.774 281.194,400.705 281.197,400.676 
					281.207,400.677 282.064,400.669 291.412,400.572 300.991,400.483 				"/>
				<path style="fill:#263238;" d="M303.53,408.292l-6.489-8.095c-0.217-0.274-0.216-0.662,0.003-0.935l4.88-6.07
					c0.441-0.538,1.235-0.617,1.773-0.176c0.072,0.059,0.137,0.126,0.195,0.199c2.057,2.653,3.425,4.689,6.061,7.978
					c1.624,2.026,6.735,7.967,8.977,10.765c2.242,2.797-0.229,5.377-1.4,4.436c-5.237-4.24-9.886-6.862-12.679-7.324
					C304.327,408.991,303.854,408.712,303.53,408.292z"/>
				<path style="fill:#574CFA;" d="M306.466,409.559c0.399,0.424,0.642,0.971,0.687,1.552c-0.006,0.415-0.226,0.797-0.583,1.01
					c-0.184,0.155-0.442,0.187-0.658,0.082c-0.973-0.432-1.376-3.645-1.414-4.004c-0.016-0.079,0.021-0.159,0.091-0.199
					c0.072-0.044,0.163-0.04,0.231,0.01C305.425,408.464,305.977,408.983,306.466,409.559z M305.88,411.658
					c0.051,0.075,0.122,0.134,0.205,0.169c0.034,0.042,0.134,0.046,0.268-0.048c0.234-0.144,0.383-0.393,0.398-0.667
					c-0.26-1.019-0.898-1.901-1.784-2.469C305.076,409.698,305.386,410.721,305.88,411.658z"/>
				<path style="fill:#574CFA;" d="M304.863,408.045l0.061,0.076c0.177,0.986-0.222,3.492-1.034,3.92
					c-0.281,0.146-0.626,0.072-0.823-0.176c-0.226-0.217-0.347-0.52-0.333-0.833c0.009-1.274,1.795-2.971,1.882-3.054
					c0.057-0.047,0.135-0.062,0.205-0.039C304.846,407.97,304.861,408.007,304.863,408.045z M303.233,411.552l0.061,0.076
					c0.163,0.203,0.295,0.125,0.345,0.1c0.5-0.262,0.931-2,0.898-3.101c-0.724,0.653-1.23,1.511-1.453,2.46
					C303.075,411.255,303.128,411.42,303.233,411.552z"/>
				<polygon style="opacity:0.2;enable-background:new    ;" points="291.908,409.454 279.996,410.774 281.194,400.705 
					281.207,400.677 282.064,400.669 291.414,400.562 291.412,400.572 				"/>
				<path style="fill:#263238;" d="M240.958,325.805c-2.674,12.293-29.673,70.362-12.618,85.808
					c12.526,11.344,59.255,0.644,59.255,0.644l0.727-14.16c0,0-36.776,1.215-40.641-3.053c-3.864-4.268,18.828-36.387,21.974-45.143
					c5.589-15.553-0.477-24.727-0.477-24.727L240.958,325.805z"/>
				<polygon style="fill:#574CFA;" points="286.514,396.796 285.612,413.873 289.99,413.312 290.088,396.309 				"/>
			</g>
			<path style="fill:#263238;" d="M213.316,242.655c0,0,3.385,4.942,6.152,4.859c0,0-0.126,3.511-1.801,3.855
				c0,0,2.564,2.33,1.035,5.122c0,0-0.403-1.305-1.715-1.106c0,0,2.584,4.436-2.077,8.018c-4.66,3.582-12.305,3.01-12.305,3.01
				s0.464-0.77,0.551-1.654c0,0-1.104,1.281-2.882,1.248c0,0,0.958-2.759-2.395-5.337c-3.353-2.578-3.866-2.954-3.866-2.954
				s-2.728,1.104-4.584-0.343c0,0,1.498-1.236-0.366-6.334c-1.864-5.098-3.651-11.214,6.248-13.747
				C205.209,234.759,211.288,238.969,213.316,242.655z"/>
			<path style="fill:#574CFA;" d="M272.533,332.04l-50.19,4.51c0,0-7.36-37.18-16.56-48.73c-9.21-11.56-8.89-15.91-8.89-15.91
				s6.09-8.48,20.79-13.14c14.69-4.66,29.13,5.61,29.13,5.61s2.56,2.82,6.18,9.03c1.34,2.29,2.82,5.04,4.36,8.28
				C262.573,292.58,268.582,309,272.533,332.04z"/>
			<path style="fill:#EEC1BB;" d="M226.042,258c0,0-1.14,9.63-9.34,11.34c-5.61,1.17-7.91-0.6-8.8-1.83
				c-0.42-0.57-0.53-1.03-0.53-1.03s3.18-0.6-1.59-4.39c-3.27-2.59,0.94-6.64,3.94-8.95c1.38-1.07,2.51-1.77,2.51-1.77
				s3.22,7.51,7.86,7.4C224.722,258.66,226.042,258,226.042,258z"/>
			<path style="opacity:0.2;enable-background:new    ;" d="M207.903,267.51c-0.42-0.57-0.53-1.03-0.53-1.03s3.18-0.6-1.59-4.39
				c-3.27-2.59,0.94-6.64,3.94-8.95c0.75-0.25,1.53-0.46,2.35-0.62C212.072,252.52,215.992,263.58,207.903,267.51z"/>
			<g>
				<path style="fill:#EEC1BB;" d="M211.752,256.06c-0.22,0.96-0.57,1.92-1.09,2.91c-3.88,7.49-14.12,6.91-18.21,0.03
					c-0.35-0.59-0.68-1.22-0.99-1.89c-3.04-6.4-4.45-16.16,1.32-20.88c4.53-3.75,11.24-3.12,14.99,1.41
					c1.07,1.29,1.82,2.81,2.19,4.45C211.442,248.16,212.672,252.15,211.752,256.06z"/>
				<path style="opacity:0.1;enable-background:new    ;" d="M211.752,256.06c-0.22,0.96-0.57,1.92-1.09,2.91
					c-3.88,7.49-14.12,6.91-18.21,0.03c-0.35-0.59-0.68-1.22-0.99-1.89c1.57-1.09,5.73-1.46,5.73-1.46s3.42-3.62,6.03-4.28
					c2.62-0.66,4.31,0.41,4.31,0.41l-0.72-3.37l1.6,2.68C208.412,251.09,210.732,253.44,211.752,256.06z"/>
				<path style="fill:#263238;" d="M199.312,247.648c0.227,0.588,0.021,1.192-0.382,1.316c-0.403,0.123-0.868-0.276-1.057-0.878
					c-0.19-0.602-0.012-1.196,0.382-1.316C198.648,246.65,199.118,247.036,199.312,247.648z"/>
				<path style="fill:#263238;" d="M192.462,249.758c0.227,0.588,0.012,1.196-0.382,1.316c-0.393,0.12-0.868-0.276-1.057-0.878
					c-0.19-0.602-0.012-1.196,0.382-1.316C191.798,248.76,192.283,249.184,192.462,249.758z"/>
				<path style="fill:#D4827D;" d="M194.73,249.385c-0.15,2.075-0.587,4.12-1.298,6.076c1.028,0.343,2.156,0.213,3.079-0.353
					L194.73,249.385z"/>
				<path style="fill:#263238;" d="M196.16,246.2c0.026-0.137,0.123-0.249,0.254-0.295c0.905-0.276,1.627-0.964,1.948-1.854
					c0.052-0.198,0.254-0.316,0.451-0.264c0.198,0.052,0.316,0.254,0.264,0.451c0,0.001,0,0.001,0,0.002
					c-0.376,1.136-1.28,2.02-2.425,2.37c-0.192,0.07-0.404-0.029-0.474-0.221c-0.001-0.003-0.002-0.006-0.003-0.008
					C196.161,246.321,196.156,246.26,196.16,246.2z"/>
				<path style="fill:#263238;" d="M191.61,247.183c0.062,0.042,0.11,0.103,0.136,0.173c0.033,0.202-0.105,0.392-0.307,0.424
					c-0.003,0.001-0.005,0.001-0.008,0.001c-1.184,0.2-2.392-0.19-3.236-1.043c-0.135-0.153-0.12-0.387,0.033-0.522
					c0,0,0.001-0.001,0.001-0.001c0.156-0.13,0.386-0.115,0.523,0.034l0,0c0.686,0.654,1.642,0.946,2.576,0.786
					C191.439,247.041,191.542,247.095,191.61,247.183z"/>
				<g>
					<path style="fill:#263238;" d="M202.418,258.439c-0.204,0.118-0.432,0.224-0.661,0.329l-4.027-2.515
						c0,0,0.17-0.223,0.464-0.549c0.969-1.132,3.279-3.516,5.147-3.131c0.17,0.04,0.382,0.108,0.615,0.212
						c0.63,0.291,1.383,0.836,1.683,1.569C206.084,255.408,205.583,256.851,202.418,258.439z"/>
					<path style="fill:#FFFFFF;" d="M203.956,252.784l-5.236,3.149l-0.526-0.23c0.969-1.132,3.279-3.516,5.147-3.131
						C203.512,252.612,203.723,252.681,203.956,252.784z"/>
					<path style="fill:#DE5753;" d="M202.418,258.439c-0.656-1.837,1.696-3.374,3.221-4.086
						C206.084,255.408,205.583,256.851,202.418,258.439z"/>
				</g>
				<path style="fill:#263238;" d="M194.972,239.308c0,0,1.045-0.989,2.652,0c1.607,0.989,2.875,4.22,4.681,6.33
					c1.806,2.11,4.509,2.769,4.509,2.769l2.439,4.111l2.978-1.144l1.836-5.247c0,0,1.78,0.17,2.637-1.544
					c0,0-1.912,0.198-3.429-2.308c0,0,1.319,1.187,3.033,0.198c0,0-1.978,0.198-3.494-2.176c-1.517-2.374-0.659-6.533-5.275-8.607
					c-4.615-2.074-9.743,0.299-9.743,0.299s-4.646-0.948-5.463,3.119c0,0-3.56-1.603-6.078,1.43
					c-2.519,3.033-3.178,7.451-0.87,10.747c2.308,3.297-0.066,6.011-0.066,6.011s1.587,1.926,3.497,1.056
					c1.91-0.87,0.13-5.783,0.459-10.151C189.605,239.835,192.559,238.648,194.972,239.308z"/>
				<path style="fill:#EEC1BB;" d="M215.852,249.256c-0.512,1.894-1.755,3.507-3.456,4.486c-2.26,1.281-4.014-0.594-3.914-3.055
					c0.109-2.186,1.392-5.555,3.922-5.803C214.936,244.635,216.452,246.923,215.852,249.256z"/>
				<path style="fill:none;stroke:#263238;stroke-width:0.5;stroke-linecap:round;stroke-linejoin:round;stroke-miterlimit:10;" d="
					M194.972,238.681c0,0,2.136-0.893,2.652,2.472c0.516,3.365,2.344,5.551,4.13,5.594"/>
				<path style="fill:none;stroke:#263238;stroke-width:0.5;stroke-linecap:round;stroke-linejoin:round;stroke-miterlimit:10;" d="
					M194.056,238.574c0,0-2.516,0.503-2.593,2.58c-0.077,2.077,2.236,6.214,1.97,7.706"/>
			</g>
			<path style="opacity:0.2;enable-background:new    ;" d="M257.352,281.69c-13.7-1.28-20.59-14.79-20.81-15.23
				c5.34,4.81,15.93,6.77,15.93,6.77s0.19,0.07,0.52,0.18C254.333,275.7,255.813,278.45,257.352,281.69z"/>
			<g>
				<path style="opacity:0.7;fill:#FFFFFF;enable-background:new    ;" d="M250.01,304.85c-0.01,0.1-0.01,0.2-0.01,0.3
					c-0.32,12.66-22.36,15.83-27.66,6.93c-0.23-0.38-0.46-0.79-0.68-1.21c-0.1-0.17-0.2-0.35-0.29-0.53c-1.07-2.01-2.12-4.35-3-6.83
					c-0.62-1.74-1.16-3.55-1.57-5.35c-1.74-7.71-1.09-15.44,5.93-17.93c10-3.55,20.98,5.66,25.34,15.87
					c0.52,1.22,0.95,2.46,1.27,3.69c0.27,1.04,0.46,2.08,0.57,3.11C249.98,303.56,250.01,304.21,250.01,304.85z"/>
				<path style="opacity:0.4;fill:#FFFFFF;" d="M250.01,304.85c-0.01,0.1-0.01,0.2-0.01,0.3c-0.32,12.66-22.36,15.83-27.66,6.93
					c-0.23-0.38-0.46-0.79-0.68-1.21c-0.1-0.17-0.2-0.35-0.29-0.53c-1.07-2.01-2.12-4.35-3-6.83c-0.62-1.74-1.16-3.55-1.57-5.35
					c1.1,0.27,1.57,1.46,1.57,1.46l5.65-1.09l-3.42,1.23c1.19,0.2,1.78,2.13,1.78,2.13s0.89-1.48,2.67-1.14
					c1.79,0.35,3.02,1.88,3.02,1.88l2.77-0.33l-2.05,0.6c0.72-0.18,2.39,0.23,2.39,0.23s1.49-0.2,1.24-1.68
					c-0.24-1.49,2.53-2.58,2.53-2.58l-1.95,0.25l2.69-1.04c0,0-0.2-1.28,0.85-2.22c1.06-0.94,2.95,0,2.95,0
					c0.37-1.92,1.88-2.92,3.81-2.43c1.93,0.5,2.98,2.67,2.98,2.67h1.79c0.52,1.22,0.95,2.46,1.27,3.69
					c0.27,1.04,0.46,2.08,0.57,3.11C249.98,303.56,250.01,304.21,250.01,304.85z"/>
				<path style="opacity:0.3;fill:#574CFA;" d="M249.34,299.79c0.27,1.04,0.46,2.08,0.57,3.11c-13.2,2.73-24.26,6.08-28.54,7.44
					c-1.07-2.01-2.12-4.35-3-6.83c0.11-0.8,0.25-1.35,0.45-1.42c0.84-0.31,3.71,2.32,4.6,2.16c0.89-0.16,0.84-2.41,1.63-2.36
					c0.8,0.05,7.22,4.35,7.47,4.06c0.25-0.3,2.33-6.68,2.57-6.68c0.25,0,2.77,1.14,3.12,0.44c0.35-0.69,2.57-6.13,4.3-5.39
					C243.75,294.86,247.39,298.04,249.34,299.79z"/>
				<path style="opacity:0.5;fill:#574CFA;" d="M250,305.15c-0.32,12.66-22.36,15.83-27.66,6.93c-0.32-0.54-0.65-1.13-0.97-1.74
					c4.28-1.36,15.34-4.71,28.54-7.44C249.99,303.66,250.02,304.41,250,305.15z"/>
				<path style="opacity:0.4;fill:#FFFFFF;" d="M245.094,311.598c-0.089-0.091-0.141-0.098-0.21-0.125
					c-0.071-0.024-0.14-0.034-0.169-0.03c-0.18-0.004-0.277,0.031-0.389,0.058c-1.309,0.484-2.613,0.816-3.949,1.169
					c-2.551,0.629-5.153,1.279-7.719,1.59c0.006-0.003,0.012-0.005,0.018-0.008c0.615-0.266,1.263-0.496,1.909-0.725l3.917-1.318
					c0.655-0.221,1.31-0.445,1.963-0.691c0.328-0.125,0.652-0.25,0.983-0.416c0.087-0.05,0.164-0.082,0.26-0.148
					c0.052-0.04,0.08-0.045,0.151-0.116c0.032-0.033,0.063-0.067,0.091-0.103c0.029-0.02,0.093-0.208,0.065-0.315
					c-0.041-0.206-0.282-0.325-0.305-0.315c-0.077-0.028-0.144-0.042-0.193-0.045c-0.116-0.018-0.209-0.015-0.308-0.017
					c-1.461,0.091-2.775,0.428-4.138,0.699c-1.349,0.281-2.698,0.6-4.039,0.805c-0.127,0.018-0.254,0.03-0.378,0.041
					c0.117-0.066,0.236-0.131,0.361-0.19c0.609-0.292,1.249-0.549,1.886-0.805c1.277-0.523,2.576-0.962,3.836-1.607
					c0.079-0.043,0.158-0.09,0.237-0.145c0.066-0.085,0.191-0.048,0.236-0.36c-0.002-0.072-0.06-0.126-0.11-0.17
					c-0.039-0.025-0.061-0.03-0.094-0.045c-0.059-0.022-0.108-0.029-0.16-0.039c-0.099-0.013-0.193-0.015-0.285-0.014
					c-0.364,0.009-0.707,0.063-1.051,0.118l-2.036,0.383c-0.338,0.063-0.676,0.122-1.013,0.16c-0.287,0.024-0.849,0.075-0.563-0.146
					c0.511-0.393,1.206-0.607,1.832-0.87c0.32-0.128,0.642-0.254,0.957-0.401c0.156-0.076,0.314-0.151,0.456-0.263
					c0.061-0.05,0.166-0.134,0.115-0.256c-0.057-0.089-0.14-0.131-0.224-0.164c-0.696-0.16-1.387,0.023-2.055,0.163
					c0.667-0.122,1.379-0.278,2.035-0.105c0.075,0.031,0.148,0.077,0.183,0.137c0.029,0.051-0.035,0.12-0.1,0.166
					c-0.132,0.099-0.291,0.169-0.446,0.239c-0.314,0.136-0.639,0.252-0.962,0.37c-0.644,0.254-1.312,0.418-1.913,0.85
					c-0.062,0.066-0.169,0.148-0.129,0.322c0.085,0.164,0.211,0.147,0.298,0.171c0.188,0.022,0.363,0.011,0.538-0.001
					c0.349-0.029,0.692-0.079,1.034-0.132l2.041-0.322c0.338-0.044,0.68-0.086,1.006-0.084c0.063,0.001,0.123,0.007,0.182,0.014
					c-0.057,0.035-0.116,0.07-0.18,0.102c-1.218,0.571-2.543,1.011-3.826,1.509c-0.646,0.247-1.292,0.493-1.931,0.787
					c-0.16,0.073-0.319,0.153-0.479,0.243c-0.081,0.049-0.159,0.092-0.244,0.158c-0.071,0.08-0.198,0.092-0.255,0.388
					c0.036,0.267,0.182,0.287,0.266,0.33c0.059,0.012,0.128,0.028,0.18,0.031c0.103,0.006,0.201,0.007,0.291,0.002
					c0.185-0.008,0.361-0.028,0.536-0.049c1.39-0.189,2.733-0.485,4.088-0.744c1.1-0.203,2.225-0.443,3.31-0.557
					c-0.094,0.036-0.182,0.077-0.277,0.113c-0.638,0.237-1.29,0.456-1.943,0.672l-3.933,1.3c-0.656,0.228-1.309,0.456-1.962,0.734
					c-0.334,0.157-0.635,0.249-1.019,0.571c-0.04,0.024-0.131,0.162-0.167,0.252c-0.027,0.089-0.02,0.243,0.028,0.343
					c0.043,0.089,0.099,0.125,0.164,0.177c0.222,0.127,0.316,0.107,0.426,0.125c0.213,0.018,0.391,0.007,0.574-0.003
					c2.82-0.296,5.48-0.966,8.18-1.612c1.14-0.295,2.304-0.603,3.423-0.979c-0.136,0.125-0.279,0.247-0.428,0.363
					c-0.521,0.402-1.091,0.765-1.679,1.09c-2.366,1.307-5.033,2.064-7.765,2.455c2.765,0.025,5.571-0.565,8.102-1.815
					c0.628-0.322,1.247-0.67,1.819-1.11c0.287-0.219,0.566-0.448,0.828-0.738c0.127-0.16,0.266-0.268,0.368-0.63
					C245.249,311.955,245.268,311.769,245.094,311.598z"/>
				<circle style="fill:#FFFFFF;" cx="229.308" cy="297.885" r="2.868"/>
				<path style="opacity:0.4;fill:#FFFFFF;" d="M237.813,289.28c-1.385-1.038-2.272,0.643-2.125,1.286
					c0.147,0.643-1.259,1.335-0.976,1.78c0.283,0.445-1.497,1.335-1.497,1.335l9.049-2.67h-1.335c0,0,0.297-0.841-0.593-1.385
					c-0.89-0.544-1.335,0.247-1.583,0.148c-0.247-0.099,0.099-0.76-0.346-0.825C237.962,288.885,237.813,289.28,237.813,289.28z"/>
				<path style="opacity:0.4;fill:#FFFFFF;" d="M219.022,293.681c0.148-0.643,0.939-1.038,1.385-0.445
					c0.445,0.593,0.89,0.247,1.385,0.445c0.495,0.198,0.544,1.088,0.544,1.088l3.115-0.518l-7.08,2.496l1.048-0.89
					c0,0-0.908,0.154-1.048-1.011C218.231,293.681,219.022,293.681,219.022,293.681z"/>
			</g>
		</g>
		<g>
			<rect x="138.627" y="229.011" style="fill:#574CFA;" width="4.043" height="109.539"/>
			<rect x="160.158" y="229.011" style="fill:#574CFA;" width="4.043" height="109.539"/>
			<rect x="181.689" y="229.011" style="fill:#574CFA;" width="4.043" height="109.539"/>
			<rect x="203.22" y="229.011" style="fill:#574CFA;" width="4.043" height="109.539"/>
			<rect x="224.751" y="229.011" style="fill:#574CFA;" width="4.043" height="109.539"/>
			<rect x="246.281" y="229.011" style="fill:#574CFA;" width="4.043" height="109.539"/>
			<rect x="138.627" y="229.011" style="opacity:0.6;fill:#FFFFFF;enable-background:new    ;" width="4.043" height="109.539"/>
			<rect x="160.158" y="229.011" style="opacity:0.6;fill:#FFFFFF;enable-background:new    ;" width="4.043" height="109.539"/>
			<rect x="181.689" y="229.011" style="opacity:0.6;fill:#FFFFFF;enable-background:new    ;" width="4.043" height="109.539"/>
			<rect x="203.22" y="229.011" style="opacity:0.6;fill:#FFFFFF;enable-background:new    ;" width="4.043" height="109.539"/>
			<rect x="224.751" y="229.011" style="opacity:0.6;fill:#FFFFFF;enable-background:new    ;" width="4.043" height="109.539"/>
			<rect x="246.281" y="229.011" style="opacity:0.6;fill:#FFFFFF;enable-background:new    ;" width="4.043" height="109.539"/>
			<polygon style="fill:#574CFA;" points="253.025,232.839 135.926,232.839 133.926,229.011 255.025,229.011 			"/>
			<polygon style="fill:#574CFA;" points="135.926,335.011 253.025,335.011 255.025,338.84 133.926,338.84 			"/>
			<polygon style="opacity:0.4;fill:#FFFFFF;enable-background:new    ;" points="253.025,232.839 135.926,232.839 133.926,229.011 
				255.025,229.011 			"/>
			<polygon style="opacity:0.4;fill:#FFFFFF;enable-background:new    ;" points="135.926,335.011 253.025,335.011 255.025,338.84 
				133.926,338.84 			"/>
		</g>
		<path style="fill:#EEC1BB;" d="M157.803,298.022h8.505l-1.187,12.461h-7.319C157.803,310.483,156.616,304.747,157.803,298.022z"/>
		<path style="fill:#EEC1BB;" d="M251.946,235.543h-8.505l1.187,12.462h7.319C251.946,248.005,253.133,242.268,251.946,235.543z"/>
		<g>
			<path style="fill:#574CFA;" d="M146.829,243.586l0.96,0.414l0.312-1.02l0.688-2.254c2.683,1.143,5.379,2.255,8.079,3.359
				c1.511,0.631,3.041,1.22,4.562,1.827c1.522,0.606,3.045,1.209,4.578,1.788l1.116,0.421l-0.035-1.141l-0.073-2.418
				c3.555,1.202,7.118,2.383,10.728,3.444c-3.693-1.773-7.438-3.41-11.192-5.025l-0.89-0.383l-0.031,1.016l-0.067,2.182
				c-1.146-0.517-2.294-1.03-3.445-1.533c-1.501-0.655-2.995-1.327-4.506-1.959c-3.013-1.285-6.028-2.565-9.064-3.795l-1.013-0.41
				l-0.298,1.032l-0.669,2.318c-3.296-1.299-6.6-2.579-9.925-3.809c-3.658-1.346-7.329-2.66-11.05-3.856
				c3.479,1.78,7.007,3.441,10.548,5.07C139.685,240.477,143.252,242.044,146.829,243.586z"/>
			<path style="fill:#574CFA;" d="M156.676,262.615l-0.445-1.24l-0.478-1.33c2.254,0.083,4.51,0.131,6.765,0.193
				c2.738,0.032,5.476,0.075,8.216,0.049l1.018-0.01l-0.278-0.922c-0.217-0.72-0.445-1.437-0.674-2.153
				c2.618,0.133,5.24,0.225,7.87,0.237c-2.874-0.574-5.758-1.06-8.647-1.488l-0.833-0.123l0.184,0.885
				c0.141,0.679,0.296,1.354,0.448,2.03c-2.413-0.166-4.827-0.293-7.242-0.421c-2.736-0.101-5.47-0.239-8.208-0.289l-1.459-0.027
				l0.506,1.346l0.561,1.492c-2.927,0.213-5.852,0.451-8.775,0.733c-3.354,0.347-6.706,0.714-10.051,1.229
				c3.381,0.148,6.753,0.148,10.125,0.128c3.37-0.044,6.738-0.138,10.103-0.27L156.676,262.615z"/>
			<path style="fill:#574CFA;" d="M188.103,266.46c-1.428,0.004-2.853,0.043-4.273,0.113c-1.422,0.053-2.838,0.16-4.256,0.248
				l-1.128,0.07l0.644,1.017l0.765,1.209c-0.544,0.09-1.09,0.178-1.634,0.266c-0.941,0.159-1.885,0.306-2.822,0.487
				c-1.876,0.352-3.757,0.68-5.624,1.076l-1.519,0.323l0.914,1.223l0.751,1.005c-2.583,0.644-5.163,1.305-7.732,2.012
				c-3.035,0.852-6.065,1.729-9.063,2.744c3.143-0.377,6.255-0.893,9.361-1.433c3.102-0.557,6.192-1.169,9.275-1.81l1.428-0.297
				l-0.867-1.205l-0.664-0.922c1.371-0.265,2.739-0.546,4.108-0.822c0.936-0.183,1.866-0.401,2.799-0.606
				c0.931-0.212,1.866-0.405,2.794-0.634l1.248-0.309l-0.735-0.959l-0.974-1.271c1.012-0.186,2.025-0.373,3.034-0.589
				C185.326,267.117,186.717,266.806,188.103,266.46z"/>
		</g>
	</g>
</g>
</svg>
