<?xml version="1.0" standalone="no"?>
<svg xmlns:xlink="http://www.w3.org/1999/xlink" id="wave" style="transform:rotate(0deg); transition: 0.3s" viewBox="0 0 1440 180" version="1.1" xmlns="http://www.w3.org/2000/svg"><defs><linearGradient id="sw-gradient-0" x1="0" x2="0" y1="1" y2="0"><stop stop-color="rgba(249, 248, 244, 1)" offset="0%"/><stop stop-color="rgba(249, 248, 244, 1)" offset="100%"/></linearGradient></defs><path style="transform:translate(0, 0px); opacity:1" fill="url(#sw-gradient-0)" d="M0,162L80,153C160,144,320,126,480,102C640,78,800,48,960,39C1120,30,1280,42,1440,60C1600,78,1760,102,1920,117C2080,132,2240,138,2400,141C2560,144,2720,144,2880,132C3040,120,3200,96,3360,93C3520,90,3680,108,3840,99C4000,90,4160,54,4320,33C4480,12,4640,6,4800,9C4960,12,5120,24,5280,51C5440,78,5600,120,5760,123C5920,126,6080,90,6240,72C6400,54,6560,54,6720,51C6880,48,7040,42,7200,42C7360,42,7520,48,7680,48C7840,48,8000,42,8160,57C8320,72,8480,108,8640,117C8800,126,8960,108,9120,87C9280,66,9440,42,9600,36C9760,30,9920,42,10080,63C10240,84,10400,114,10560,105C10720,96,10880,48,11040,45C11200,42,11360,84,11440,105L11520,126L11520,180L11440,180C11360,180,11200,180,11040,180C10880,180,10720,180,10560,180C10400,180,10240,180,10080,180C9920,180,9760,180,9600,180C9440,180,9280,180,9120,180C8960,180,8800,180,8640,180C8480,180,8320,180,8160,180C8000,180,7840,180,7680,180C7520,180,7360,180,7200,180C7040,180,6880,180,6720,180C6560,180,6400,180,6240,180C6080,180,5920,180,5760,180C5600,180,5440,180,5280,180C5120,180,4960,180,4800,180C4640,180,4480,180,4320,180C4160,180,4000,180,3840,180C3680,180,3520,180,3360,180C3200,180,3040,180,2880,180C2720,180,2560,180,2400,180C2240,180,2080,180,1920,180C1760,180,1600,180,1440,180C1280,180,1120,180,960,180C800,180,640,180,480,180C320,180,160,180,80,180L0,180Z"/></svg>